<?xml version="1.0" standalone="no"?>
<!DOCTYPE svg PUBLIC "-//W3C//DTD SVG 20010904//EN"
 "http://www.w3.org/TR/2001/REC-SVG-20010904/DTD/svg10.dtd">
<svg version="1.0" xmlns="http://www.w3.org/2000/svg"
 width="700.000000pt" height="700.000000pt" viewBox="0 0 700.000000 700.000000"
 preserveAspectRatio="xMidYMid meet">
<metadata>
Created by potrace 1.11, written by Peter Selinger 2001-2013
</metadata>
<g transform="translate(0.000000,700.000000) scale(0.100000,-0.100000)"
fill="#000000" stroke="none">
<path d="M2866 6204 c-13 -13 -16 -41 -16 -154 l0 -139 -32 -6 c-18 -3 -82
-14 -143 -23 -108 -17 -110 -18 -113 -45 -2 -15 -2 -27 0 -27 2 0 55 9 118 20
63 11 127 20 142 20 l28 0 2 -447 c3 -440 3 -448 23 -448 20 0 20 8 25 447 3
279 9 450 15 456 6 5 123 27 260 47 138 21 260 42 273 46 25 9 30 37 8 45 -8
3 -132 -13 -276 -35 -144 -23 -266 -39 -271 -36 -5 4 -9 69 -9 145 0 76 -4
141 -9 145 -5 3 -17 -2 -25 -11z"/>
<path d="M4557 6174 c-18 -18 -5 -46 26 -59 18 -7 219 -76 447 -153 228 -77
422 -143 430 -146 13 -5 15 -82 12 -619 -1 -336 0 -622 3 -633 6 -26 35 -40
47 -22 4 7 8 291 8 631 0 339 2 617 4 617 3 0 62 -20 132 -45 69 -25 128 -45
129 -45 7 0 14 32 9 44 -3 8 -42 27 -87 42 -45 15 -106 35 -134 46 l-53 19 0
144 c0 136 -1 145 -21 155 -11 7 -23 9 -26 7 -2 -3 -4 -69 -4 -146 0 -78 -2
-141 -4 -141 -5 0 -867 293 -896 304 -8 4 -18 3 -22 0z"/>
<path d="M3980 6059 c-63 -10 -164 -26 -225 -35 -191 -28 -214 -43 -224 -146
l-6 -63 -185 -28 c-192 -30 -228 -42 -264 -90 -20 -28 -21 -39 -21 -365 l0
-337 65 -9 c60 -8 155 -1 283 20 l37 7 0 -52 c0 -28 4 -51 9 -51 5 0 16 -3 25
-6 13 -5 16 2 16 42 0 27 4 55 8 61 7 11 100 34 235 57 l37 7 0 -155 c0 -85 3
-161 6 -170 4 -10 71 -37 179 -72 142 -47 174 -61 179 -78 3 -12 6 -263 6
-558 l0 -538 45 0 c29 0 127 -26 273 -74 361 -117 671 -209 687 -202 8 3 15
14 15 25 0 22 -67 50 -435 183 -121 44 -278 101 -350 127 l-130 47 -3 118 -3
118 23 -5 c13 -3 131 -39 263 -80 132 -41 256 -78 275 -82 19 -4 41 -11 50
-16 30 -17 284 -90 297 -85 26 10 14 46 -19 61 -37 15 -578 214 -673 247 -33
11 -95 34 -137 51 l-78 30 0 119 c0 92 3 119 13 115 11 -4 293 -93 419 -132
26 -8 54 -15 63 -15 8 0 23 -5 33 -11 9 -6 94 -34 187 -64 170 -53 205 -56
205 -20 0 8 -8 18 -17 24 -23 12 -605 228 -754 280 -63 21 -122 42 -131 46
-16 6 -18 23 -18 136 0 71 4 129 8 129 4 0 66 -20 137 -43 l130 -44 3 -66 c2
-55 6 -69 23 -78 36 -19 48 -4 51 59 l3 59 143 -50 142 -50 0 -54 c0 -63 13
-93 40 -93 22 0 23 3 20 73 -1 33 2 47 12 47 20 0 249 -77 259 -87 5 -5 10
-333 11 -778 l3 -770 50 0 50 0 3 1481 2 1481 -22 33 c-17 24 -39 39 -78 53
-30 11 -266 91 -525 178 -531 180 -504 174 -725 138z m160 -189 c0 -60 -3
-110 -7 -110 -4 0 -66 19 -138 42 -137 43 -191 50 -302 35 l-63 -9 0 36 c0 20
6 39 13 41 13 5 311 51 397 61 30 3 57 8 59 10 2 2 13 4 23 4 16 0 18 -10 18
-110z m383 -128 c2 -116 0 -132 -14 -132 -17 0 -239 73 -258 84 -7 5 -11 55
-11 141 l0 134 140 -47 141 -47 2 -133z m205 64 c70 -24 135 -47 145 -51 15
-6 17 -23 17 -142 0 -104 -3 -134 -12 -131 -7 3 -71 24 -143 48 -71 24 -136
47 -142 53 -17 12 -18 267 -2 267 6 0 67 -20 137 -44z m-953 -196 l0 -135
-130 -22 c-71 -12 -136 -22 -142 -22 -10 -1 -13 33 -13 139 0 77 3 140 8 140
27 1 216 31 221 35 3 3 17 5 31 3 l25 -3 0 -135z m245 82 l115 -39 3 -137 3
-138 -23 8 c-13 4 -72 23 -133 44 l-110 36 -3 138 c-2 128 -1 137 15 132 10
-3 70 -23 133 -44z m1075 -11 c61 -20 116 -40 123 -44 16 -11 17 -267 1 -267
-25 0 -245 74 -261 88 -15 13 -18 33 -18 137 0 67 3 125 7 129 4 3 14 4 22 0
9 -3 66 -22 126 -43z m-1655 -115 c0 -74 -4 -137 -9 -140 -8 -5 -249 -46 -271
-46 -6 0 -10 47 -10 124 0 138 5 150 63 161 38 7 197 32 215 34 9 1 12 -32 12
-133z m959 22 l124 -43 -2 -145 c-1 -80 -4 -146 -5 -148 -3 -3 -190 61 -243
83 l-33 14 0 147 c0 135 1 146 18 141 9 -3 73 -25 141 -49z m330 -113 c73 -24
139 -50 147 -56 11 -9 14 -44 14 -150 0 -126 -2 -139 -17 -138 -10 0 -79 21
-153 48 l-135 47 -3 147 c-1 81 1 147 6 147 4 0 68 -20 141 -45z m-949 -199
c0 -99 -4 -147 -12 -152 -12 -8 -220 -43 -256 -44 l-23 0 3 148 3 147 125 22
c69 12 133 22 143 22 15 1 17 -12 17 -143z m230 90 l125 -44 3 -146 c2 -113 0
-146 -10 -145 -7 0 -67 19 -133 42 l-120 43 -3 147 c-1 81 1 147 5 147 5 0 64
-20 133 -44z m1076 -11 c70 -25 132 -51 136 -58 4 -6 8 -72 8 -146 l0 -133
-36 7 c-21 3 -85 23 -143 44 l-106 38 -3 146 c-1 85 1 147 7 147 5 0 67 -20
137 -45z m-1648 -137 l-3 -153 -105 -17 c-58 -9 -122 -17 -142 -17 l-38 -1 0
145 c0 107 3 147 13 150 10 4 58 12 270 44 4 0 6 -68 5 -151z m942 24 l135
-47 5 -148 c3 -81 1 -147 -4 -147 -4 0 -69 21 -142 46 l-134 47 0 148 c0 82 1
149 3 149 1 -1 63 -22 137 -48z m355 -122 c72 -24 136 -47 143 -53 17 -13 17
-287 0 -287 -15 0 -257 79 -280 91 -16 9 -18 27 -18 155 0 113 3 145 13 142 6
-3 71 -24 142 -48z m-740 -100 c66 -22 126 -48 133 -57 17 -24 17 -283 0 -283
-7 0 -68 18 -135 41 l-123 41 0 149 c0 82 1 149 3 149 2 0 57 -18 122 -40z
m981 21 c5 -5 61 -25 124 -46 63 -21 118 -43 122 -49 4 -6 8 -73 8 -148 0
-104 -3 -138 -12 -137 -7 0 -71 21 -143 47 l-130 47 -3 148 c-2 117 0 147 11
147 7 0 17 -4 23 -9z m-586 -155 l125 -43 3 -146 c1 -81 -1 -147 -5 -147 -25
0 -267 90 -273 101 -12 22 1 279 14 278 6 0 67 -19 136 -43z m360 -124 l135
-47 3 -149 c2 -117 0 -147 -10 -144 -7 3 -71 24 -143 48 -71 24 -136 48 -142
53 -9 7 -13 49 -13 148 0 126 2 139 18 138 9 0 78 -21 152 -47z m215 -65 c22
-16 99 -45 130 -50 11 -2 33 -9 48 -15 16 -7 38 -12 51 -12 12 0 27 -5 34 -12
16 -16 17 -308 1 -308 -14 0 -187 54 -249 78 l-45 18 -3 157 c-1 86 1 157 6
157 4 0 16 -6 27 -13z"/>
<path d="M2771 4875 c-397 -70 -751 -335 -940 -704 -112 -220 -159 -495 -116
-680 66 -280 356 -432 870 -458 180 -8 182 -6 106 164 -149 338 -145 753 12
1033 63 113 188 234 297 288 129 63 237 85 390 80 107 -4 138 -9 213 -35 48
-17 113 -46 143 -64 80 -48 194 -157 244 -234 43 -66 66 -79 89 -51 16 19 -9
69 -88 172 -72 96 -158 180 -269 262 -143 106 -279 170 -452 213 -113 28 -376
35 -499 14z"/>
<path d="M3330 4413 c-78 -11 -172 -39 -225 -66 -91 -45 -192 -152 -243 -257
-64 -130 -82 -216 -81 -384 2 -159 7 -194 31 -210 30 -19 41 8 55 136 17 157
43 250 101 362 104 202 275 311 487 308 77 0 135 -11 238 -44 51 -17 70 -19
79 -10 33 33 -144 133 -277 157 -79 14 -116 16 -165 8z"/>
<path d="M3536 3585 c-78 -20 -186 -78 -249 -134 -67 -61 -142 -178 -170 -265
-21 -67 -22 -88 -22 -388 0 -291 1 -319 18 -335 17 -17 57 -18 616 -21 594 -2
598 -2 624 18 25 20 27 27 27 93 0 62 -5 79 -32 127 -59 103 -88 163 -88 181
0 25 -27 49 -55 49 -41 0 -54 23 -48 87 10 112 -42 253 -129 349 l-51 55 22
29 c11 16 21 36 21 44 0 22 -64 62 -150 92 -94 33 -243 42 -334 19z m296 -217
c80 -37 152 -107 191 -187 29 -60 32 -75 32 -161 0 -86 -3 -101 -31 -160 -38
-79 -109 -151 -184 -187 -73 -35 -202 -44 -282 -19 -269 85 -356 427 -160 629
83 85 167 118 292 114 66 -2 98 -9 142 -29z"/>
<path d="M3582 3295 c-126 -39 -209 -162 -199 -295 7 -110 60 -190 159 -239
164 -82 362 1 413 172 33 111 9 204 -75 289 -43 43 -69 60 -110 72 -64 19
-129 20 -188 1z"/>
<path d="M1421 3433 c-79 -48 -177 -150 -216 -228 -27 -53 -30 -70 -30 -150 0
-81 3 -95 30 -144 97 -177 375 -336 715 -408 118 -25 498 -25 687 0 148 19
329 54 356 68 15 9 17 28 17 190 l0 181 -50 -7 c-83 -11 -447 -8 -555 5 -120
14 -298 51 -377 79 -209 73 -353 200 -413 366 -36 98 -65 106 -164 48z"/>
<path d="M4156 3379 c-33 -26 -33 -36 3 -108 28 -55 51 -131 65 -213 7 -37 8
-38 50 -38 49 0 66 14 91 74 11 25 14 51 10 73 -7 38 -157 233 -179 233 -7 0
-25 -9 -40 -21z"/>
<path d="M4484 3146 c-3 -8 -4 -29 -2 -47 l3 -32 315 -98 c173 -55 324 -98
335 -96 12 1 20 9 20 22 0 17 -38 34 -250 112 -429 159 -415 154 -421 139z"/>
<path d="M4454 2564 c-4 -15 -2 -30 5 -37 9 -9 126 -11 458 -9 245 2 457 1
470 -3 14 -3 30 -20 41 -43 11 -24 24 -37 37 -37 18 0 20 8 23 63 2 38 -2 69
-9 78 -10 12 -93 14 -515 14 l-504 0 -6 -26z"/>
<path d="M1847 1974 c-14 -14 -6 -34 13 -34 19 0 20 -7 20 -93 l0 -94 -50 11
c-72 15 -136 -13 -170 -74 -33 -60 -36 -184 -5 -245 39 -77 123 -106 203 -68
26 12 37 14 40 5 2 -8 33 -12 98 -12 93 0 114 9 74 30 -19 10 -20 23 -22 293
l-3 282 -95 3 c-53 1 -99 0 -103 -4z m30 -281 c14 -49 10 -238 -6 -256 -19
-24 -48 -21 -55 6 -9 36 -7 223 4 251 13 36 47 35 57 -1z"/>
<path d="M5012 1963 c-17 -15 -62 -128 -62 -155 0 -22 41 -3 93 43 44 40 57
57 57 79 0 47 -50 65 -88 33z"/>
<path d="M5947 1974 c-13 -13 -7 -24 18 -34 24 -9 25 -13 25 -93 l0 -84 -74 1
c-84 1 -115 -14 -151 -75 -29 -49 -29 -197 1 -253 35 -68 129 -97 198 -61 20
11 32 12 41 5 18 -15 187 -9 192 7 2 6 -5 14 -16 18 -20 6 -21 14 -23 288 l-3
282 -101 3 c-55 1 -103 0 -107 -4z m31 -266 c15 -15 17 -241 2 -269 -11 -20
-45 -26 -55 -9 -8 13 -7 253 1 274 7 19 35 21 52 4z"/>
<path d="M2166 1939 c-19 -15 -26 -30 -26 -55 0 -49 14 -71 55 -84 38 -12 70
-7 98 18 25 22 23 96 -3 122 -27 27 -89 27 -124 -1z"/>
<path d="M7 1933 c-13 -13 -7 -31 13 -36 19 -5 20 -14 20 -245 0 -231 -1 -240
-20 -245 -11 -3 -20 -12 -20 -21 0 -15 23 -16 223 -14 l222 3 6 80 c5 59 3 84
-7 94 -11 12 -16 9 -31 -19 -44 -81 -99 -120 -167 -120 l-36 0 0 109 c0 61 4
112 9 115 21 14 62 -15 83 -59 37 -77 48 -61 48 75 0 92 -3 120 -13 120 -7 0
-21 -16 -30 -35 -18 -38 -56 -61 -82 -51 -13 5 -15 22 -13 108 l3 103 27 3
c45 5 98 -27 131 -80 43 -70 57 -64 57 25 0 43 -5 78 -12 85 -13 13 -399 18
-411 5z"/>
<path d="M2935 1930 c-8 -14 3 -30 21 -30 12 0 14 -38 14 -244 0 -236 -1 -245
-20 -251 -11 -3 -20 -13 -20 -21 0 -11 24 -14 130 -14 104 0 130 3 130 14 0 7
-9 16 -20 19 -19 5 -21 12 -18 119 l3 113 68 3 67 3 0 -116 c0 -115 0 -116
-26 -125 -51 -20 -12 -30 117 -30 108 0 129 2 129 15 0 8 -4 16 -10 16 -5 1
-16 2 -22 3 -10 1 -14 59 -16 248 l-2 247 22 3 c13 2 23 10 23 18 0 13 -21 15
-130 15 -109 0 -130 -2 -130 -15 0 -8 10 -16 23 -18 21 -3 22 -7 22 -113 l0
-109 -70 0 -70 0 0 109 c0 102 1 109 21 114 12 3 19 12 17 19 -6 16 -243 24
-253 8z"/>
<path d="M935 1877 c-59 -17 -65 -24 -65 -71 0 -35 -4 -45 -20 -49 -11 -3 -20
-10 -20 -15 0 -5 9 -12 20 -15 19 -5 20 -14 20 -144 0 -155 7 -179 60 -205 38
-20 114 -24 154 -8 30 11 66 65 66 97 0 37 -17 35 -37 -4 -22 -46 -59 -57 -68
-21 -3 13 -4 82 -3 153 l3 130 65 0 65 0 5 -140 c5 -151 13 -177 65 -211 34
-22 136 -15 165 11 17 15 20 16 20 3 0 -9 7 -19 16 -22 20 -8 148 -8 168 0 23
9 20 34 -4 34 -19 0 -20 8 -22 178 l-3 177 -94 3 c-97 3 -130 -7 -92 -27 20
-11 21 -20 21 -134 0 -126 -10 -169 -42 -175 -25 -5 -31 45 -24 187 4 69 3
131 -2 138 -5 9 -53 13 -157 15 l-150 3 -3 63 -3 62 -32 -1 c-18 -1 -50 -6
-72 -12z"/>
<path d="M585 1756 c-53 -23 -85 -70 -85 -127 0 -69 32 -102 135 -138 88 -32
112 -53 81 -77 -51 -37 -141 -3 -176 66 -11 22 -25 38 -30 35 -13 -8 -13 -142
0 -150 6 -4 17 -1 25 5 11 9 23 9 46 1 46 -16 126 -14 165 5 44 21 74 70 74
123 0 83 -38 119 -163 155 -32 9 -60 23 -64 32 -9 24 17 44 59 44 32 0 47 -7
72 -32 18 -18 35 -39 37 -47 3 -9 12 -12 22 -8 13 5 17 19 17 61 0 58 -11 76
-35 56 -11 -10 -26 -10 -59 -1 -57 14 -84 13 -121 -3z"/>
<path d="M2504 1760 c-54 -12 -101 -49 -123 -94 -39 -79 -21 -208 35 -258 72
-64 236 -64 308 0 51 45 74 181 42 255 -35 84 -146 125 -262 97z m91 -47 c12
-28 17 -224 8 -268 -11 -51 -47 -62 -63 -20 -13 34 -13 246 0 279 11 30 44 35
55 9z"/>
<path d="M3644 1752 c-22 -9 -51 -24 -63 -33 -78 -58 -82 -230 -7 -305 57 -57
176 -72 256 -31 48 24 86 77 76 104 -6 14 -14 9 -47 -30 -34 -39 -46 -47 -75
-47 -20 0 -44 5 -54 10 -21 11 -40 67 -40 118 l0 32 109 0 c99 0 110 2 116 19
8 26 -3 68 -28 110 -39 65 -154 90 -243 53z m104 -85 l3 -57 -31 0 c-28 0 -30
2 -30 41 0 49 16 81 38 77 13 -2 18 -16 20 -61z"/>
<path d="M4172 1750 c-28 -17 -33 -18 -38 -5 -8 21 -204 22 -204 1 0 -7 9 -16
20 -19 19 -5 20 -14 20 -162 0 -148 -1 -157 -20 -162 -11 -3 -20 -12 -20 -19
0 -11 26 -14 130 -14 109 0 130 2 130 15 0 9 -9 15 -25 15 l-25 0 0 119 c0
127 11 175 42 192 29 15 35 3 9 -18 -43 -35 -2 -103 61 -103 57 0 90 63 64
124 -24 57 -85 72 -144 36z"/>
<path d="M4567 1751 c-29 -15 -37 -16 -37 -5 0 11 -22 14 -105 14 -69 0 -105
-4 -105 -11 0 -6 9 -13 20 -16 19 -5 20 -14 20 -168 0 -157 -1 -163 -21 -168
-12 -3 -18 -10 -14 -16 4 -7 50 -11 121 -11 91 0 114 3 114 14 0 8 -7 16 -15
20 -12 4 -15 28 -15 123 0 101 3 123 20 151 37 60 45 38 48 -123 2 -126 0
-150 -13 -158 -34 -18 1 -27 111 -27 90 0 114 3 114 14 0 7 -9 16 -20 19 -19
5 -20 14 -20 142 0 155 -10 188 -65 211 -47 19 -94 18 -138 -5z"/>
<path d="M4916 1760 c-50 -16 -76 -48 -76 -95 0 -51 23 -75 71 -75 67 0 101
55 67 110 -10 15 -10 22 0 32 25 24 43 -19 40 -92 l-3 -65 -60 -6 c-65 -6
-119 -29 -129 -54 -14 -37 -6 -94 17 -121 31 -35 122 -46 163 -19 24 15 28 15
59 1 47 -23 116 -21 148 4 34 27 52 89 32 109 -15 16 -20 10 -27 -33 -2 -11
-8 -21 -14 -23 -9 -3 -13 33 -16 124 -4 140 -13 168 -66 193 -34 16 -167 23
-206 10z m104 -262 c0 -42 -10 -78 -21 -78 -10 0 -12 93 -2 103 14 15 23 5 23
-25z"/>
<path d="M5510 1759 c-13 -6 -33 -17 -42 -26 -17 -15 -18 -15 -18 5 0 21 -4
22 -100 22 -78 0 -100 -3 -100 -14 0 -7 9 -16 20 -19 19 -5 20 -14 20 -160 0
-146 -1 -155 -20 -160 -11 -3 -20 -12 -20 -21 0 -14 16 -16 115 -16 92 0 115
3 115 14 0 8 -7 16 -15 20 -24 9 -21 207 5 264 10 23 25 42 33 42 20 0 27 -45
27 -182 0 -96 -3 -120 -15 -124 -8 -4 -15 -12 -15 -20 0 -11 23 -14 114 -14
71 0 117 4 121 11 4 6 -2 13 -14 16 -20 5 -21 12 -21 137 0 105 -4 138 -18
166 -28 58 -107 85 -172 59z"/>
<path d="M6336 1756 c-53 -20 -104 -72 -117 -121 -15 -56 -5 -147 21 -189 37
-61 82 -81 182 -81 98 0 128 14 163 78 17 30 18 38 6 49 -11 11 -14 11 -18 0
-3 -8 -19 -29 -35 -48 -25 -28 -37 -34 -69 -34 -25 0 -46 7 -58 19 -18 18 -37
113 -26 131 3 6 53 10 110 10 117 0 122 3 106 73 -11 46 -34 82 -66 103 -35
23 -149 28 -199 10z m107 -74 c11 -55 4 -72 -27 -72 -30 0 -42 38 -25 87 15
48 41 41 52 -15z"/>
<path d="M2100 1747 c0 -8 9 -17 20 -20 19 -5 20 -14 20 -166 0 -154 -1 -161
-20 -161 -11 0 -20 -7 -20 -15 0 -13 21 -15 125 -15 104 0 125 2 125 15 0 8
-9 15 -20 15 -19 0 -20 8 -22 178 l-3 177 -102 3 c-84 2 -103 0 -103 -11z"/>
<path d="M6655 1748 c-7 -24 -12 -121 -8 -139 8 -30 19 -22 41 30 23 57 58 84
100 79 l29 -3 -78 -140 c-100 -178 -107 -194 -88 -206 24 -15 302 -11 323 4
15 11 20 31 24 89 5 91 -9 110 -37 46 -10 -24 -29 -53 -42 -65 -27 -25 -76
-46 -83 -35 -2 4 34 77 80 162 46 85 84 163 84 173 0 15 -15 17 -170 17 -128
0 -172 -3 -175 -12z"/>
<path d="M2647 1263 c-3 -4 -30 -91 -61 -193 -68 -225 -70 -228 -101 -240 -17
-6 -23 -14 -19 -25 10 -24 137 -17 142 8 2 12 -3 17 -17 17 -24 0 -26 17 -11
69 12 43 24 51 80 51 55 0 64 -6 78 -49 18 -51 15 -71 -9 -71 -14 0 -19 -5
-17 -17 3 -16 15 -18 88 -18 68 0 85 3 85 15 0 8 -11 17 -25 20 -22 5 -30 24
-91 220 -62 204 -67 215 -91 218 -14 2 -28 0 -31 -5z m38 -175 c9 -35 20 -71
22 -80 5 -16 -2 -18 -47 -18 -45 0 -52 2 -47 18 2 9 13 45 22 80 10 34 21 62
25 62 4 0 15 -28 25 -62z"/>
<path d="M4397 1263 c-13 -12 -7 -24 18 -33 23 -9 25 -14 25 -80 0 -38 -3 -70
-7 -70 -5 1 -28 5 -53 10 -102 19 -146 -36 -138 -174 4 -71 8 -82 31 -102 25
-22 35 -23 149 -21 90 1 122 5 126 15 2 7 -5 16 -17 19 -20 5 -21 10 -21 208
0 112 -3 210 -6 219 -4 12 -20 16 -53 16 -26 0 -51 -3 -54 -7z m18 -228 c22
-21 25 -33 25 -95 0 -57 -4 -74 -20 -90 -22 -22 -79 -27 -98 -8 -19 19 -16
183 4 202 23 23 61 19 89 -9z"/>
<path d="M3787 1214 c-15 -15 -6 -54 14 -64 27 -15 51 5 47 39 -2 19 -9 27
-28 29 -14 2 -29 0 -33 -4z"/>
<path d="M2046 1144 c-3 -9 -6 -42 -6 -75 l0 -59 -67 0 c-76 0 -97 -9 -91 -36
3 -16 14 -19 80 -22 87 -3 88 -4 88 -104 0 -50 3 -58 19 -58 25 0 31 19 31 96
l0 64 68 0 c75 0 96 9 90 36 -3 16 -14 19 -81 22 l-77 3 0 52 c0 29 -3 62 -6
75 -7 25 -39 30 -48 6z"/>
<path d="M3214 1081 c-44 -27 -57 -67 -52 -157 3 -71 6 -78 36 -105 29 -26 39
-29 103 -29 65 0 73 2 100 29 28 28 29 33 29 121 0 50 -5 100 -11 112 -25 47
-147 64 -205 29z m130 -37 c12 -11 16 -36 16 -99 0 -46 -3 -90 -6 -99 -9 -23
-109 -23 -118 0 -8 22 -7 177 2 190 17 26 83 31 106 8z"/>
<path d="M3553 1093 c-84 -18 -113 -205 -43 -275 26 -25 35 -28 99 -28 62 0
72 3 86 23 21 33 23 70 4 75 -11 2 -20 -7 -28 -28 -10 -30 -12 -31 -63 -28
l-53 3 -3 103 c-3 100 -2 102 22 113 33 15 76 4 76 -20 0 -28 26 -47 45 -31
23 19 18 57 -8 75 -25 16 -98 26 -134 18z"/>
<path d="M4643 1094 c-12 -3 -34 -19 -48 -35 -23 -28 -25 -39 -25 -121 0 -86
1 -91 29 -119 27 -26 36 -29 95 -29 35 0 76 4 91 10 40 15 58 69 53 162 -3 68
-6 81 -29 104 -21 21 -38 26 -85 29 -32 2 -69 1 -81 -1z m115 -49 c14 -14 14
-179 0 -196 -20 -25 -82 -33 -102 -14 -24 25 -23 200 2 215 17 11 88 7 100 -5z"/>
<path d="M2930 1075 c-21 -26 -25 -101 -6 -130 14 -21 24 -25 69 -25 60 0 77
-12 77 -52 0 -53 -75 -58 -113 -7 -11 16 -26 29 -33 29 -17 0 -26 -44 -14 -74
9 -25 13 -26 89 -26 74 0 81 2 100 26 27 35 29 114 4 137 -10 8 -45 19 -78 24
-58 8 -60 9 -63 40 -2 24 1 33 17 38 30 9 63 -3 87 -32 27 -31 44 -23 44 22 0
40 -10 45 -100 45 -48 0 -71 -4 -80 -15z"/>
<path d="M3747 1084 c-13 -14 -7 -32 13 -37 18 -5 20 -14 20 -110 0 -96 -2
-105 -20 -110 -11 -3 -20 -12 -20 -21 0 -13 13 -16 75 -16 67 0 75 2 75 19 0
10 -9 21 -20 24 -18 5 -20 15 -22 128 l-3 124 -45 3 c-25 2 -49 0 -53 -4z"/>
<path d="M3956 1071 c-10 -11 -16 -31 -14 -48 2 -22 9 -29 31 -31 24 -3 27 0
27 27 0 25 5 32 26 37 43 11 74 -10 74 -50 l0 -34 -66 -7 c-89 -9 -119 -36
-111 -101 7 -70 15 -74 131 -73 55 1 113 3 129 6 30 5 38 33 8 33 -22 0 -31
40 -31 151 0 100 -10 109 -112 109 -61 0 -78 -4 -92 -19z m142 -169 c6 -38
-23 -72 -62 -72 -34 0 -46 13 -46 50 0 48 102 68 108 22z"/>
<path d="M4894 1054 c-18 -42 -12 -94 12 -119 9 -9 33 -15 59 -15 27 0 51 -7
66 -19 21 -16 22 -22 11 -45 -10 -22 -18 -26 -51 -26 -33 0 -44 5 -63 30 -32
43 -48 39 -48 -14 0 -41 2 -44 31 -50 56 -11 134 -7 156 9 14 10 24 31 28 59
13 82 -9 105 -105 115 -49 5 -55 9 -58 30 -4 27 20 51 51 51 10 0 32 -13 49
-30 40 -40 50 -38 46 13 l-3 42 -83 3 -83 3 -15 -37z"/>
</g>
</svg>
