<svg width="131" height="127" viewBox="0 0 131 127" fill="none" xmlns="http://www.w3.org/2000/svg">
<g clip-path="url(#clip0)">
<path d="M105.451 85.7196C105.378 85.9939 105.137 86.0118 104.842 85.8588C104.547 85.7057 104.29 85.5422 104.512 85.1246C104.775 84.6185 105.013 84.0999 105.225 83.5707C105.358 83.2306 105.535 83.1191 105.874 83.245C106.214 83.3709 106.432 83.5913 106.273 83.9688C106.033 84.5236 105.756 85.0657 105.451 85.7196Z" fill="#D3A462"/>
<path d="M27.3257 62.4146C27.1101 43.4575 42.5113 27.7925 61.8939 27.3778C81.9062 26.9547 97.8358 42.5456 98.127 61.471C98.4354 81.01 82.5424 96.2158 63.8522 96.7532C43.5659 97.3372 27.3991 81.3506 27.3257 62.4146Z" fill="#A0CC04"/>
<path d="M104.658 123.638C97.5297 123.346 91.8898 120.297 88.0379 114.293C83.4569 107.152 84.4922 97.5446 90.324 91.3116C93.7252 87.6767 97.9006 85.6181 102.87 85.0849C103.752 84.9919 106.5 85 105.5 85.5C106.273 88.1147 104.409 84.7462 105 85.0001C105.591 85.254 105.5 85.0001 104 85.0001C102.5 85.0001 106.066 85.0024 106.372 85.0236C108.374 85.1538 110.341 85.6026 112.195 86.3523C118.635 88.9927 122.699 93.6643 124.163 100.346C125.423 106.094 124.163 111.42 120.497 116.076C116.543 121.097 111.195 123.496 104.658 123.638Z" fill="#193C4D"/>
<path d="M131 23.0257C131 33.7737 122.289 42.3319 111.309 42.3509C107.422 42.3463 103.623 41.2117 100.392 39.0903C97.1619 36.9689 94.6448 33.9559 93.1589 30.4319C91.673 26.908 91.285 23.031 92.044 19.2909C92.8029 15.5507 94.6747 12.115 97.4229 9.41785C100.171 6.72067 103.673 4.88295 107.485 4.13681C111.297 3.39067 115.249 3.76958 118.842 5.22568C122.435 6.68178 125.508 9.14975 127.671 12.3179C129.835 15.486 130.994 19.2121 131 23.0257Z" fill="#193C4D"/>
<path d="M19.663 38.5715C8.89225 38.5948 0.0194508 29.9942 4.02e-05 19.5297C-0.0215271 8.68864 8.63776 0.0225259 19.5077 0.00771565C30.5739 -0.00921035 39.3669 8.4961 39.4143 19.261C39.4618 29.916 30.6321 38.5482 19.663 38.5715Z" fill="#193C4D"/>
<path d="M43.6091 106.039C43.814 110.296 42.9233 114.265 40.6285 117.943C35.7176 125.813 24.9922 129.19 16.3804 125.511C9.67507 122.646 5.54277 117.67 4.44715 110.612C2.70667 99.4129 10.5291 90.4167 20.2948 88.6776C21.0001 88.5527 21.7118 88.466 22.4214 88.3644C22.8378 88.1825 23.3083 88.1592 23.7413 88.2988C32.1784 88.6099 38.3251 92.3949 41.9916 99.9164C42.7356 101.448 43.126 103.09 43.4603 104.757C43.6501 105.168 43.9326 105.568 43.6091 106.039Z" fill="#193C4D"/>
<path d="M63.1384 15.3392H63.8911C64.288 15.3392 64.4735 15.5381 64.4691 15.9316C64.4648 16.3252 64.2945 16.5198 63.889 16.5156C63.3857 16.5156 62.8825 16.5156 62.3793 16.5156C61.9997 16.5156 61.6676 16.5156 61.6525 15.9824C61.6374 15.4493 61.9091 15.3096 62.3814 15.3477C62.6338 15.3392 62.8861 15.3392 63.1384 15.3392Z" fill="#D7AA6D"/>
<path d="M15.4832 67.7485C15.8692 67.7252 16.0698 67.8014 16.1108 68.1251C16.1841 68.7175 16.2726 69.3078 16.3545 69.9002C16.3726 69.9599 16.3763 70.0229 16.3653 70.0842C16.3542 70.1455 16.3287 70.2034 16.2908 70.2533C16.2529 70.3033 16.2036 70.3438 16.1469 70.3718C16.0902 70.3997 16.0276 70.4143 15.9641 70.4144C15.7204 70.4419 15.3797 70.5138 15.3171 70.2028C15.1621 69.4834 15.0562 68.7547 15.0001 68.0214C14.9764 67.6787 15.3581 67.7802 15.4832 67.7485Z" fill="#D2A25D"/>
<path d="M18.2783 77.9506C18.3625 77.9231 18.4509 78.086 18.5156 78.2447C18.7672 78.861 19.0116 79.4788 19.2489 80.098C19.3912 80.4683 19.113 80.5825 18.8499 80.7158C18.494 80.8978 18.3129 80.7158 18.2029 80.4239C17.9742 79.878 17.7586 79.3258 17.5429 78.7757C17.3272 78.2256 17.7758 78.1473 18.2783 77.9506Z" fill="#D2A362"/>
<path d="M69.945 109.49C69.6775 109.585 69.5266 109.397 69.4856 109.067C69.4446 108.737 69.4338 108.432 69.904 108.379C70.4701 108.31 71.0322 108.212 71.5884 108.087C71.9443 108.005 72.1362 108.087 72.2246 108.439C72.3131 108.79 72.2548 109.094 71.8537 109.177C71.2606 109.293 70.6567 109.372 69.945 109.49Z" fill="#D3A462"/>
<path d="M109.687 73.9455C109.532 74.5147 109.387 75.088 109.219 75.6529C109.103 76.038 108.818 76.0761 108.458 75.9809C108.098 75.8857 108.065 75.6445 108.151 75.3462C108.302 74.8109 108.451 74.2756 108.594 73.7382C108.693 73.3616 108.939 73.2367 109.312 73.315C109.685 73.3933 109.754 73.6091 109.687 73.9455Z" fill="#D3A260"/>
<path d="M43.3245 20.2606C43.3533 20.3446 43.3487 20.4363 43.3115 20.5171C43.2743 20.598 43.2073 20.662 43.1239 20.6964C42.5545 20.9842 41.9873 21.2782 41.3985 21.5427C41.0017 21.7225 40.8032 21.42 40.6458 21.1471C40.4517 20.8128 40.6803 20.6329 40.9607 20.4996C41.4697 20.2521 41.9722 19.9919 42.4898 19.7655C43.0074 19.5391 43.2253 19.8163 43.3245 20.2606Z" fill="#D5A867"/>
<path d="M108.538 49.6905C108.169 49.7011 108.016 49.4662 107.923 49.1891C107.768 48.7257 107.643 48.2539 107.492 47.7885C107.377 47.4351 107.444 47.1791 107.82 47.0289C108.195 46.8787 108.434 47.0649 108.551 47.4013C108.732 47.9302 108.889 48.4592 109.06 49.0008C109.211 49.4789 108.928 49.6292 108.538 49.6905Z" fill="#D3A362"/>
<path d="M106.603 44.6676C106.506 44.679 106.408 44.6578 106.325 44.6075C106.242 44.5571 106.179 44.4806 106.146 44.3905C105.904 43.8467 105.654 43.3093 105.4 42.7741C105.236 42.4292 105.432 42.262 105.706 42.1118C105.764 42.0693 105.831 42.0407 105.902 42.0283C105.973 42.016 106.046 42.0203 106.115 42.041C106.184 42.0616 106.248 42.0979 106.3 42.147C106.352 42.196 106.392 42.2565 106.415 42.3234C106.687 42.8523 106.946 43.3813 107.164 43.9441C107.382 44.5069 106.933 44.5809 106.603 44.6676Z" fill="#D29F5A"/>
<path d="M88.1456 22.3403C88.7409 22.7444 89.4246 23.1739 90.063 23.6606C90.2786 23.8235 90.0414 24.0372 89.9055 24.1916C89.7697 24.3461 89.6079 24.6148 89.3016 24.4159C88.7711 24.0668 88.2362 23.7219 87.7121 23.358C87.655 23.3306 87.6047 23.2912 87.5649 23.2425C87.5252 23.1939 87.4968 23.1372 87.482 23.0765C87.4672 23.0159 87.4662 22.9528 87.4791 22.8917C87.4921 22.8306 87.5186 22.7731 87.5568 22.7233C87.6093 22.6123 87.6922 22.5178 87.7961 22.4502C87.9 22.3826 88.021 22.3446 88.1456 22.3403Z" fill="#D09F58"/>
<path d="M69.2785 16.8604C68.7113 16.8096 68.1441 16.761 67.5747 16.706C67.1433 16.6658 67.0765 16.3822 67.098 16.0289C67.1196 15.6756 67.3504 15.5529 67.6825 15.6058C68.2842 15.684 68.8817 15.7877 69.4856 15.8491C69.9881 15.902 69.8867 16.2447 69.8759 16.5473C69.8608 16.945 69.5977 16.9577 69.2785 16.8604Z" fill="#D4A261"/>
<path d="M111.048 64.0839C111.048 64.3314 111.048 64.5768 111.048 64.8223C111.063 65.2454 110.916 65.4887 110.433 65.457C109.95 65.4252 109.948 65.1333 109.957 64.7969C109.968 64.306 109.978 63.8123 109.987 63.3158C109.987 62.9816 110.019 62.6938 110.487 62.6811C110.996 62.6621 111.091 62.9329 111.078 63.3391C111.078 63.5845 111.078 63.83 111.078 64.0754L111.048 64.0839Z" fill="#D1A05B"/>
<path d="M85.4024 21.1936C85.2708 21.5977 85.0918 21.9129 84.5699 21.6506C84.0479 21.3882 83.4915 21.1195 82.9501 20.8529C82.6741 20.7154 82.6288 20.5165 82.7819 20.2521C82.9351 19.9876 83.0278 19.685 83.3987 19.8522C84.0091 20.1272 84.5979 20.4509 85.1975 20.7535C85.2783 20.7922 85.3429 20.8572 85.3803 20.9375C85.4177 21.0178 85.4255 21.1083 85.4024 21.1936Z" fill="#D2A05E"/>
<path d="M18.4702 47.1198C18.2308 47.8434 18.0389 48.4422 17.8232 49.024C17.7024 49.3541 17.4242 49.3879 17.1201 49.2737C16.857 49.1742 16.6888 48.9944 16.788 48.7066C16.9713 48.1058 17.1568 47.5049 17.3681 46.9104C17.3857 46.8497 17.4169 46.7937 17.4594 46.7464C17.5019 46.6991 17.5546 46.6617 17.6138 46.637C17.6729 46.6122 17.7369 46.6008 17.8011 46.6034C17.8654 46.606 17.9282 46.6227 17.985 46.6523C18.2912 46.7454 18.4638 46.9337 18.4702 47.1198Z" fill="#D2A25F"/>
<path d="M77.4397 107.283C77.485 107.59 77.3103 107.707 77.0364 107.789C76.4907 107.933 75.9451 108.089 75.4037 108.248C75.0975 108.337 74.8602 108.346 74.7567 107.965C74.6575 107.622 74.6424 107.33 75.0565 107.218C75.6669 107.042 76.2837 106.879 76.9005 106.727C77.3879 106.602 77.3836 106.979 77.4397 107.283Z" fill="#D2A25F"/>
<path d="M20.5968 42.2937C20.2582 42.9496 19.9304 43.6457 19.5379 44.3058C19.4193 44.5047 19.1389 44.346 18.9513 44.2572C18.8921 44.2362 18.8384 44.2029 18.7938 44.1595C18.7492 44.116 18.7148 44.0636 18.693 44.0057C18.6712 43.9479 18.6626 43.8861 18.6677 43.8246C18.6728 43.7632 18.6916 43.7035 18.7226 43.6499C18.9728 43.1104 19.2252 42.5688 19.4775 42.0293C19.4945 41.9693 19.5247 41.9138 19.566 41.8666C19.6074 41.8194 19.6588 41.7817 19.7167 41.7563C19.7745 41.7308 19.8374 41.7182 19.9008 41.7193C19.9642 41.7204 20.0266 41.7352 20.0835 41.7627C20.2127 41.7922 20.3302 41.8582 20.4215 41.9526C20.5127 42.047 20.5737 42.1656 20.5968 42.2937Z" fill="#D1A25D"/>
<path d="M109.532 52.1342C109.832 52.1088 109.944 52.3458 109.998 52.5785C110.123 53.1201 110.198 53.6723 110.332 54.2097C110.42 54.561 110.313 54.7577 109.968 54.8148C109.685 54.8635 109.344 54.8974 109.262 54.5419C109.116 53.8985 109.005 53.2481 108.928 52.5933C108.885 52.2167 109.213 52.1702 109.532 52.1342Z" fill="#D3A260"/>
<path d="M60.0499 109.814C59.8343 109.79 59.5452 109.757 59.2606 109.735C58.8508 109.704 58.4453 109.683 58.5165 109.101C58.5812 108.574 58.9716 108.652 59.3253 108.678C59.7566 108.699 60.188 108.754 60.6064 108.758C61.0248 108.762 61.2879 108.811 61.2749 109.325C61.2599 109.873 60.9105 109.829 60.546 109.82L60.0499 109.814Z" fill="#D09850"/>
<path d="M109.778 58.6867C109.778 58.4074 109.754 58.126 109.778 57.851C109.814 57.4913 110.108 57.4278 110.403 57.4151C110.699 57.4025 110.834 57.5929 110.85 57.8764C110.882 58.3651 110.938 58.8517 110.962 59.3405C110.977 59.679 111.065 60.0704 110.53 60.1339C109.995 60.1974 109.883 59.8335 109.857 59.4209C109.84 59.1776 109.825 58.9321 109.81 58.6867H109.778Z" fill="#D19F5A"/>
<path d="M21.5695 84.8733C21.588 84.9993 21.5636 85.1277 21.5 85.2387C21.4365 85.3497 21.3373 85.4369 21.218 85.4869C21.1655 85.5211 21.1059 85.5436 21.0436 85.5527C20.9813 85.5619 20.9176 85.5576 20.8572 85.54C20.7967 85.5225 20.7409 85.4921 20.6937 85.4512C20.6465 85.4102 20.609 85.3595 20.5839 85.3028C20.2798 84.7506 20.0016 84.1836 19.7212 83.6208C19.6924 83.5759 19.6733 83.5257 19.6652 83.4732C19.6571 83.4208 19.6601 83.3672 19.6741 83.316C19.6881 83.2647 19.7127 83.2168 19.7464 83.1754C19.7801 83.1339 19.8222 83.0997 19.87 83.0749C20.0857 82.948 20.4286 82.8633 20.5645 83.0749C20.957 83.6779 21.287 84.3423 21.5695 84.8733Z" fill="#D1A15A"/>
<path d="M108.076 79.0232C107.86 79.5754 107.621 80.2334 107.345 80.8787C107.246 81.1114 107.024 81.1178 106.799 81.0099C106.575 80.902 106.251 80.8194 106.349 80.519C106.569 79.8527 106.826 79.1987 107.118 78.5598C107.239 78.2911 107.517 78.3144 107.765 78.4244C107.988 78.5281 108.119 78.6741 108.076 79.0232Z" fill="#D2A260"/>
<path d="M53.625 16.9663C53.6357 17.0077 53.6377 17.0509 53.6308 17.0932C53.6239 17.1354 53.6083 17.1758 53.5848 17.2119C53.5614 17.248 53.5307 17.279 53.4945 17.303C53.4584 17.327 53.4176 17.3434 53.3748 17.3513C52.7278 17.5206 52.0807 17.6793 51.4143 17.8126C51.1469 17.8676 50.9161 17.766 50.9075 17.4402C50.9075 17.1736 50.8147 16.8605 51.2116 16.7695C51.8327 16.6277 52.4495 16.4754 53.075 16.3591C53.5495 16.2723 53.5473 16.6595 53.625 16.9663Z" fill="#D3A563"/>
<path d="M57.9062 15.6481C58.0852 15.6312 58.2642 15.6248 58.4411 15.5995C58.7818 15.5529 59.0191 15.6397 58.9996 16.0226C58.9867 16.3167 58.9285 16.5833 58.5424 16.6214C57.973 16.6785 57.4015 16.7314 56.8408 16.8329C56.3727 16.9197 56.2951 16.6362 56.2067 16.3167C56.0773 15.8555 56.3706 15.7708 56.7286 15.737L57.9062 15.6354V15.6481Z" fill="#D2A05A"/>
<path d="M50.5775 107.552C50.4913 107.764 50.5581 108.151 50.2432 108.136C49.4655 108.069 48.7087 107.853 48.0153 107.501C47.7414 107.374 47.8557 107.061 47.9441 106.841C47.9911 106.745 48.0731 106.67 48.1738 106.631C48.2745 106.592 48.3865 106.591 48.4876 106.629C49.1066 106.788 49.7192 106.964 50.3295 107.146C50.3739 107.155 50.416 107.173 50.453 107.198C50.49 107.224 50.5211 107.257 50.5444 107.295C50.5677 107.334 50.5827 107.376 50.5884 107.42C50.5941 107.464 50.5904 107.509 50.5775 107.552Z" fill="#D19D57"/>
<path d="M110.679 68.7217C110.597 69.274 110.511 69.8262 110.438 70.3805C110.39 70.7275 110.203 70.8713 109.851 70.8036C109.54 70.7444 109.31 70.6069 109.355 70.2472C109.426 69.6929 109.532 69.1428 109.571 68.5884C109.601 68.1653 109.842 68.051 110.203 68.0595C110.655 68.0722 110.703 68.379 110.679 68.7217Z" fill="#D2A15E"/>
<path d="M48.3583 18.3372C48.3799 18.6567 48.1427 18.7477 47.9033 18.8302C47.4029 19.0058 46.9004 19.1793 46.3935 19.3359C46.1779 19.4036 45.8824 19.5707 45.7681 19.2216C45.6861 18.9699 45.5805 18.6017 45.8716 18.46C46.4919 18.1176 47.1711 17.8903 47.8752 17.7893C48.2462 17.7554 48.3497 18.0241 48.3583 18.3372Z" fill="#D19E58"/>
<path d="M65.2262 109.829H64.4713C64.4088 109.838 64.345 109.833 64.2848 109.814C64.2246 109.795 64.1697 109.762 64.1244 109.719C64.079 109.676 64.0445 109.623 64.0235 109.565C64.0025 109.506 63.9956 109.444 64.0033 109.382C64.0033 109.08 64.0292 108.794 64.4217 108.775C64.9954 108.745 65.5712 108.737 66.1471 108.724C66.4598 108.724 66.7294 108.785 66.7596 109.16C66.7756 109.239 66.7727 109.32 66.7512 109.398C66.7296 109.475 66.6899 109.547 66.6354 109.607C66.5808 109.667 66.5127 109.713 66.4366 109.743C66.3604 109.773 66.2783 109.785 66.1967 109.778C65.8753 109.795 65.5497 109.778 65.2283 109.778L65.2262 109.829Z" fill="#D3A25D"/>
<path d="M55.1929 109.278C54.6386 109.175 54.0821 109.067 53.53 108.965C53.4584 108.962 53.3886 108.942 53.3265 108.906C53.2644 108.871 53.2117 108.822 53.1727 108.763C53.1338 108.704 53.1097 108.636 53.1024 108.566C53.0952 108.496 53.105 108.426 53.131 108.36C53.1364 108.29 53.1575 108.222 53.193 108.16C53.2285 108.099 53.2774 108.046 53.3362 108.006C53.395 107.965 53.4623 107.938 53.5331 107.926C53.6039 107.914 53.6765 107.918 53.7457 107.937C54.3021 108.03 54.8579 108.132 55.4129 108.242C55.7105 108.301 55.9456 108.419 55.8852 108.796C55.8248 109.173 55.5789 109.312 55.1929 109.278Z" fill="#D09F57"/>
<path d="M43.6091 106.039C43.5163 105.616 43.3783 105.193 43.4495 104.757L45.1382 105.392C45.4574 105.512 45.5695 105.705 45.4294 106.043C45.2892 106.382 45.1058 106.562 44.709 106.412C44.3488 106.268 43.9757 106.16 43.6091 106.039Z" fill="#D3A461"/>
<path d="M23.7413 88.2988C23.3252 88.4817 22.8543 88.5051 22.4214 88.3644C22.1755 87.9243 22.499 87.7297 22.8139 87.6006C23.5084 87.3065 23.2841 88.2502 23.7413 88.2988Z" fill="#C48F63"/>
<path d="M61.523 80.8639C59.6898 80.8639 57.8566 80.8004 56.0277 80.8808C54.119 80.9655 53.0363 79.7489 52.6459 78.2552C52.4949 77.6776 52.3095 77.0809 52.3181 76.497C52.3698 72.8241 50.6358 69.807 48.6948 66.8682C46.3547 63.3265 44.7544 59.5774 44.8321 55.2464C45.0024 45.8546 50.8019 40.013 60.1449 39.2133C65.7783 38.7267 70.7819 40.4277 74.636 44.6677C77.265 47.5599 78.1299 51.1313 78.3024 54.8931C78.5181 59.4144 76.8229 63.3561 74.347 67.0375C73.1435 68.8295 72.0565 70.6829 71.3987 72.75C71.1139 73.6184 70.9464 74.5196 70.9005 75.4307C70.8466 76.7001 70.7474 77.9696 70.1413 79.1248C69.5741 80.2101 68.7265 80.8639 67.4325 80.8597C65.4742 80.8597 63.4986 80.8639 61.523 80.8639Z" fill="#FEFEFE"/>
<path d="M61.5833 87.2494C59.6077 87.2494 57.6343 87.2494 55.6588 87.2494C54.9363 87.2494 54.2806 87.1563 54.3043 86.1915C54.3259 85.2817 54.9514 85.2013 55.6307 85.1992C59.6164 85.1992 63.5999 85.1992 67.5855 85.1992C68.3425 85.1992 68.9248 85.487 68.8796 86.2571C68.8343 87.0272 68.2519 87.2684 67.4971 87.2599C65.5237 87.2367 63.5481 87.2599 61.5747 87.2599L61.5833 87.2494Z" fill="#FCFDFC"/>
<path d="M61.5899 84.1158C59.6186 84.1158 57.6474 84.1158 55.6761 84.1158C54.9514 84.1158 54.2936 84.0524 54.3087 83.0685C54.3217 82.1376 54.9752 82.0932 55.6351 82.0911C59.6488 82.0911 63.6646 82.0911 67.6783 82.0911C68.4224 82.0911 68.9033 82.4529 68.8861 83.1341C68.8688 83.8154 68.3253 84.1264 67.6115 84.1222C65.6057 84.1116 63.5978 84.1222 61.5899 84.1222V84.1158Z" fill="#FDFDFC"/>
<path d="M61.5898 90.2367C60.0499 90.2367 58.5121 90.2261 56.9722 90.2367C56.2174 90.2367 55.5186 90.0822 55.5078 89.2317C55.497 88.3811 56.198 88.3156 56.9011 88.3177C59.9442 88.3304 62.9874 88.3177 66.0305 88.3177C66.2095 88.3177 66.3885 88.3177 66.5675 88.3177C67.1736 88.3367 67.6459 88.5631 67.661 89.2211C67.6739 89.9299 67.1779 90.2007 66.5309 90.2071C64.8853 90.2219 63.2375 90.2071 61.5898 90.2071V90.2367Z" fill="#FDFDFC"/>
<path d="M61.5834 91.2205C62.7674 91.2205 63.9558 91.2205 65.1334 91.2205C65.8968 91.2205 65.9961 91.5336 65.5884 92.1345C64.0076 94.483 62.9421 94.9273 60.0737 94.447C59.7191 94.3987 59.3951 94.224 59.1635 93.9562C58.6567 93.368 58.1736 92.7586 57.6926 92.1493C57.5266 91.9377 57.1858 91.7727 57.3627 91.4469C57.5223 91.157 57.863 91.2205 58.1434 91.2184C59.2908 91.2184 60.4382 91.2184 61.5834 91.2184V91.2205Z" fill="#FEFEFD"/>
<path d="M61.2707 32.8067C61.2707 32.1064 61.2858 31.4061 61.2707 30.7058C61.2578 30.3059 61.357 29.9822 61.8013 29.9441C62.3275 29.8976 62.4613 30.2721 62.4634 30.6952C62.4634 32.1318 62.4634 33.5663 62.4742 35.0007C62.4742 35.4683 62.2995 35.7645 61.8099 35.7434C61.3656 35.7243 61.2513 35.4239 61.2664 35.0113C61.2901 34.2772 61.2707 33.5345 61.2707 32.8067Z" fill="#F4F7F2"/>
<path d="M50.3166 39.2089C49.9456 39.228 49.7709 39.0397 49.6113 38.7858C48.8802 37.584 48.1448 36.3865 47.3899 35.1996C47.1182 34.7764 47.0944 34.3744 47.5322 34.1057C47.9701 33.837 48.1793 34.2559 48.3518 34.5289C49.1433 35.7772 49.909 37.0403 50.6897 38.2949C51.0046 38.7985 50.7932 39.0672 50.3166 39.2089Z" fill="#F5F8F3"/>
<path d="M43.5358 45.8799C43.4172 46.4533 43.0505 46.6776 42.5912 46.4131C41.2065 45.6155 39.8521 44.7692 38.4934 43.9144C38.432 43.8754 38.3791 43.8249 38.3377 43.7657C38.2963 43.7066 38.2672 43.64 38.2522 43.5698C38.2372 43.4996 38.2364 43.4271 38.2501 43.3566C38.2637 43.2862 38.2914 43.219 38.3316 43.1591C38.4977 42.8756 38.7845 42.7465 39.0606 42.9137C40.484 43.779 41.8924 44.6718 43.2986 45.5647C43.415 45.6324 43.469 45.7826 43.5358 45.8799Z" fill="#F5F8F3"/>
<path d="M43.5206 65.1948C43.5429 65.3567 43.5149 65.5214 43.4403 65.6675C43.3656 65.8136 43.2478 65.9342 43.1022 66.0136L39.6019 68.4446C39.2719 68.6731 38.9268 68.9269 38.5774 68.4996C38.228 68.0722 38.558 67.7908 38.8772 67.5623C40.0591 66.716 41.2489 65.8803 42.4466 65.0551C42.893 64.742 43.2985 64.7695 43.5206 65.1948Z" fill="#F5F9F4"/>
<path d="M84.6108 43.3304C84.6165 43.4694 84.5841 43.6073 84.517 43.7297C84.4498 43.8521 84.3504 43.9547 84.2291 44.0265C83.017 44.7649 81.8135 45.5202 80.5993 46.2565C80.2262 46.4808 79.7819 46.7135 79.4735 46.21C79.1845 45.7403 79.6244 45.5054 79.9436 45.3023C81.1514 44.5407 82.3743 43.8044 83.5885 43.0533C84.0975 42.7401 84.4512 42.8163 84.6108 43.3304Z" fill="#F7F9F6"/>
<path d="M80.0558 64.8477C80.2531 64.9488 80.4446 65.0604 80.6295 65.1819C81.7618 65.9796 82.8812 66.7941 84.0178 67.5854C84.3348 67.797 84.6152 68.0086 84.3607 68.4317C84.1062 68.8549 83.7546 68.7724 83.4333 68.5544C82.1507 67.6757 80.8754 66.7864 79.6072 65.8865C79.4862 65.8055 79.4012 65.6823 79.3696 65.5419C79.3379 65.4016 79.362 65.2547 79.4368 65.1312C79.5425 64.9196 79.7345 64.8604 80.0558 64.8477Z" fill="#F7FAF6"/>
<path d="M75.8523 34.474C75.6582 34.8358 75.3735 35.3541 75.0974 35.8788C74.6251 36.778 74.1463 37.6772 73.6912 38.5849C73.495 38.9784 73.1801 39.0905 72.8156 38.9319C72.4511 38.7732 72.4856 38.4156 72.6387 38.1194C73.3267 36.778 74.0212 35.4409 74.7394 34.1143C74.8882 33.8393 75.1535 33.6107 75.5245 33.7335C75.779 33.816 75.9558 33.9895 75.8523 34.474Z" fill="#F7F9F5"/>
<path d="M84.421 55.9002C85.1715 55.9002 85.9307 55.915 86.6748 55.9002C87.0716 55.8896 87.3218 56.0398 87.3218 56.4228C87.3298 56.502 87.3196 56.5819 87.2919 56.6567C87.2642 56.7315 87.2197 56.7992 87.1617 56.8549C87.1037 56.9105 87.0338 56.9527 86.9569 56.9782C86.8801 57.0038 86.7984 57.0121 86.7179 57.0025C85.1413 57.0025 83.5669 57.0025 81.9925 57.0025C81.9111 57.0128 81.8283 57.0045 81.7507 56.9782C81.6732 56.9519 81.6028 56.9084 81.5452 56.851C81.4875 56.7937 81.4442 56.7241 81.4186 56.6476C81.3929 56.5711 81.3856 56.4898 81.3972 56.4101C81.4188 55.987 81.7078 55.9066 82.0658 55.9087C82.8466 55.9023 83.6338 55.8981 84.421 55.9002Z" fill="#FAFBF9"/>
<path d="M38.5797 55.8979H40.7256C41.1009 55.8979 41.474 55.9085 41.487 56.4078C41.4977 56.8754 41.1872 56.9981 40.7817 56.9981C39.2792 56.9981 37.7767 56.9981 36.2741 56.9981C35.8687 56.9981 35.5344 56.8754 35.5538 56.4227C35.5732 55.9699 35.9334 55.8979 36.3259 55.9022C37.0786 55.9043 37.8291 55.9001 38.5797 55.8979Z" fill="#F9FAF8"/>
<path d="M114.674 115.327C113.269 115.327 112.016 115.315 110.765 115.327C110.203 115.327 110.021 115.095 110.024 114.564C110.041 110.13 110.041 105.699 110.024 101.27C110.024 100.712 110.22 100.528 110.774 100.543C111.812 100.57 112.853 100.57 113.891 100.543C114.479 100.523 114.686 100.682 114.682 101.311C114.656 105.948 114.674 110.59 114.674 115.327Z" fill="#FEFEFE"/>
<path d="M102.872 100.088L111.007 95.5684C111.473 95.3082 111.38 94.9337 111.223 94.5571C111.007 94.0409 110.748 93.5394 110.442 92.8899C112.167 93.1607 113.658 93.6981 115.187 94.1234C115.558 94.227 115.581 94.445 115.42 94.7581C114.837 95.9218 114.268 97.0918 113.712 98.2681C113.405 98.9029 113.235 98.5326 113.028 98.2025C112.217 96.9098 112.206 96.9014 110.834 97.6694C107.944 99.2879 105.063 100.921 102.177 102.536C101.841 102.724 101.485 102.876 100.983 103.122V97.8217L95.8215 101.418C95.5534 101.595 95.2963 101.787 95.0515 101.994C94.4455 102.546 94.2126 102.125 93.8179 101.677C93.3865 101.184 93.4361 100.951 93.9322 100.604C96.6971 98.6645 99.4527 96.7131 102.199 94.7496C102.803 94.3265 102.893 94.5169 102.885 95.1284C102.857 96.7384 102.872 98.3528 102.872 100.088Z" fill="#FEFEFC"/>
<path d="M107.878 109.67C107.878 111.254 107.852 112.843 107.891 114.422C107.908 115.082 107.755 115.391 107.004 115.342C106.075 115.283 105.139 115.319 104.2 115.342C103.584 115.355 103.303 115.156 103.31 114.496C103.343 111.252 103.346 108.012 103.32 104.778C103.32 104.143 103.508 103.896 104.183 103.932C105.149 103.976 106.124 103.978 107.088 103.932C107.72 103.9 107.882 104.143 107.871 104.721C107.843 106.376 107.871 108.03 107.871 109.687L107.878 109.67Z" fill="#FEFEFE"/>
<path d="M96.4427 111.633C96.4427 110.613 96.4599 109.594 96.4427 108.574C96.4276 107.99 96.6583 107.753 97.2579 107.77C98.2974 107.797 99.3391 107.797 100.377 107.77C100.972 107.749 101.209 107.941 101.2 108.551C101.173 110.525 101.173 112.495 101.2 114.46C101.2 115.095 101.004 115.361 100.338 115.342C99.3348 115.313 98.3298 115.317 97.3183 115.342C96.6044 115.361 96.3888 115.054 96.4254 114.382C96.4793 113.465 96.4405 112.549 96.4427 111.633Z" fill="#FEFEFE"/>
<path d="M116.067 25.3594C116.338 25.0413 116.725 24.8401 117.145 24.7987C118.56 24.53 118.847 23.6181 118.888 22.355C119.058 17.2582 117.434 13.0161 113.043 10.016C112.849 9.88266 112.553 9.75995 112.7 9.44682C112.864 9.09348 113.131 9.30718 113.334 9.40873C118.012 11.863 121.802 15.0789 123.236 20.3704C123.389 20.9375 123.02 21.824 123.749 22.0186C124.249 22.1519 124.916 21.7753 125.474 21.5531C126.231 21.2569 126.337 21.4706 126.167 22.1879C125.492 25.1499 124.858 28.112 124.215 31.074C124.124 31.4866 124.09 31.9203 123.51 31.44C121.039 29.4047 118.559 27.3778 116.067 25.3594Z" fill="#FEFEFE"/>
<path d="M106.456 37.3048C103.963 34.7913 101.692 32.4957 99.4124 30.2107C99.0285 29.8256 99.2658 29.6818 99.6281 29.5591L108.402 26.5229C108.458 27.1406 108.38 27.7629 108.173 28.3488C107.957 29.0788 108.212 29.5104 108.796 29.9483C112.924 33.0437 117.356 34.1143 122.302 31.9985C122.552 31.8906 122.852 31.6431 123.048 31.9985C123.244 32.354 122.845 32.4703 122.617 32.5973C117.952 35.2843 113.127 36.7949 107.787 34.5438C107.235 34.311 107.108 34.5014 107.013 34.9669C106.881 35.6186 106.709 36.2639 106.456 37.3048Z" fill="#FEFEFE"/>
<path d="M104 13.8751L101.921 11.954L111.667 9.04907C111.197 12.3031 110.746 15.4154 110.265 18.7456C109.7 18.2949 109.217 18.0029 108.861 17.6052C108.27 16.9408 107.694 17.0424 106.97 17.3724C102.408 19.4522 99.6476 22.793 99.227 27.82C99.2076 28.057 99.3801 28.4674 98.9121 28.4547C98.498 28.4441 98.5757 28.0697 98.5649 27.8031C98.3384 22.4312 99.2378 17.4676 104 13.8751Z" fill="#FEFEFE"/>
<path d="M8.24096 19.6975C8.62486 19.7483 9.08425 19.8414 9.16836 19.2998C9.28051 18.5656 10.4883 18.0642 9.69676 17.1671C9.08424 16.471 9.2309 15.9569 9.99654 15.6184C10.5336 15.3793 10.8118 14.1754 11.5774 14.9329C12.2913 15.6353 12.8111 15.411 13.5336 15.1212C14.213 14.8482 14.8966 14.7086 14.7845 13.7544C14.737 13.3439 14.9635 13.1197 15.4315 13.1599C15.862 13.197 16.295 13.197 16.7256 13.1599C17.3532 13.1091 17.7867 13.2085 17.6918 13.9787C17.6271 14.4949 17.9269 14.7192 18.4207 14.825C19.3374 15.0217 20.2734 15.7771 21.0735 14.5838C21.2719 14.2897 21.5049 14.5732 21.7033 14.7213C22.0656 15.009 22.4042 15.3285 22.7817 15.5909C23.2777 15.9357 23.461 16.2912 22.9564 16.7651C22.484 17.2073 22.663 17.5818 23.0016 18.0346C23.5106 18.7264 23.6681 19.8287 24.988 19.3717C25.2576 19.2786 25.4431 19.4796 25.484 19.7822C25.5194 20.1674 25.5917 20.5485 25.6997 20.9205C25.965 21.6864 25.8852 22.2068 24.9211 22.2915C24.4639 22.3317 24.2741 22.5898 24.2245 23.0616C24.1512 23.9798 23.6034 24.9996 24.9664 25.5116C25.3007 25.6365 25.277 25.9115 25.0656 26.2014C24.8306 26.5134 24.6337 26.8514 24.479 27.2085C24.1771 27.9342 23.7608 28.2008 23.0189 27.7226C22.6415 27.4793 22.2037 27.3227 21.8888 27.803C21.5092 28.3848 20.2799 28.4758 20.7781 29.5654C21.1878 30.4667 20.7328 30.7375 19.9348 31.0464C18.9211 31.4379 18.2094 31.6177 17.778 30.3207C17.5624 29.686 15.6084 29.7664 15.2266 30.3567C14.9678 30.7566 14.8988 31.5331 14.4459 31.4992C13.6889 31.4421 12.9362 31.1014 12.2266 30.7608C11.8341 30.5704 12.1382 30.1261 12.2029 29.8045C12.2913 29.3686 12.5566 28.899 11.9656 28.607C11.3186 28.2833 10.911 27.2106 9.88871 27.9405C9.21796 28.4208 8.7823 28.2283 8.40272 27.5004C7.9498 26.633 7.2122 25.8819 8.65937 25.1731C9.27835 24.8706 8.63564 22.9135 7.92177 22.6152C7.55943 22.465 6.87359 22.6152 6.88653 22.0672C6.91923 21.2976 7.0645 20.5366 7.31788 19.8076C7.44081 19.4881 7.91529 19.742 8.24096 19.6975Z" fill="#FEFEFE"/>
<path d="M29.8535 14.0803C30.1511 14.6474 29.6745 14.7151 29.3186 14.8484C28.9239 15.0028 28.5918 15.1996 28.264 14.6368C27.8952 14.0021 27.0842 14.0359 26.6982 14.6833C26.4243 15.1467 26.159 15.1234 25.7471 14.9436C25.3351 14.7637 24.9404 14.7616 25.0655 14.1121C25.098 13.9568 25.086 13.7957 25.0309 13.6467C24.9758 13.4977 24.8798 13.3666 24.7534 13.2678C24.627 13.169 24.4753 13.1065 24.3149 13.0871C24.1546 13.0677 23.9919 13.0922 23.8448 13.1579C23.325 13.3694 23.1202 13.1727 22.9455 12.7813C22.7923 12.4406 22.3675 12.1677 22.9261 11.7234C23.4846 11.2791 23.3401 10.4709 22.6284 10.1895C22.0892 9.9779 22.1755 9.65419 22.2208 9.27547C22.2661 8.89675 22.292 8.56458 22.8678 8.5138C23.6701 8.44186 23.9462 7.79233 23.6572 7.15972C23.4415 6.67098 23.5537 6.47845 23.9095 6.22456C24.2654 5.97067 24.4422 5.66177 24.9879 6.02991C25.5335 6.39805 26.2366 6.05318 26.4437 5.50943C26.627 5.03762 26.7974 4.91068 27.2503 4.9276C27.7032 4.94453 27.9922 4.89163 28.2036 5.4777C28.3934 6.00663 29.1482 6.34092 29.6788 5.95797C30.2093 5.57502 30.4444 5.88392 30.7679 6.11454C31.0914 6.34515 31.2316 6.55461 31.0138 7.05393C30.7701 7.61884 31.2036 8.22182 31.8161 8.34454C32.3035 8.44186 32.5127 8.58785 32.5451 9.04485C32.5753 9.45108 32.7025 9.7769 32.1137 10.0498C31.9773 10.1133 31.8589 10.209 31.7694 10.3283C31.6798 10.4476 31.6217 10.5868 31.6003 10.7335C31.579 10.8802 31.595 11.0298 31.6469 11.1689C31.6989 11.3081 31.7852 11.4324 31.8981 11.5309C32.3531 11.954 32.1806 12.1994 31.9779 12.5887C31.7514 13.0246 31.5465 13.1981 30.9879 13.0119C30.3948 12.8003 29.8125 13.4054 29.8535 14.0803Z" fill="#FCFDFC"/>
<path d="M12.2998 100.964C13.9804 98.1871 16.6076 96.0828 19.7168 95.0226C25.2467 93.0867 32.4415 95.6743 35.1159 100.68C34.1558 100.741 33.1977 100.533 32.3531 100.081C30.9922 99.3917 29.765 99.7471 28.4537 100.064C27.6083 100.276 26.7283 100.318 25.9088 100.674C25.4386 100.885 26.0468 100.359 25.6608 100.206C24.8822 99.8994 23.036 100.458 22.7147 101.264C22.6564 101.41 22.6219 101.554 22.7621 101.632C23.5278 102.072 22.9001 102.345 22.6457 102.665C22.2337 103.02 22.072 102.404 21.6471 102.453C21.8002 102.823 21.9771 103.177 21.9426 103.568C21.8153 104.059 20.7779 104.326 21.5694 105.049C21.6514 105.085 21.6773 105.119 21.6492 105.155C21.641 105.169 21.6295 105.181 21.6156 105.19C21.6018 105.199 21.5859 105.204 21.5694 105.206C21.1381 106.209 20.215 107.004 20.476 108.284C20.6485 109.13 21.0799 109.628 21.8886 109.765C22.4451 109.858 23.2237 109.221 23.5558 109.877C23.8879 110.533 24.2805 111.327 24.2028 112.152C24.1252 112.977 24.4185 113.745 24.7226 114.479C24.839 114.756 24.893 115.114 25.3114 115.152C25.4916 115.182 25.6769 115.149 25.8347 115.059C25.9925 114.968 26.1127 114.826 26.1741 114.657C26.6054 113.554 27.4681 112.579 27.2524 111.272C27.1381 110.573 27.6191 110.089 27.9749 109.568C28.3826 108.972 28.7125 108.407 27.6255 108.18L27.6105 108.193C28.458 107.77 29.4286 107.417 29.0684 106.149C29.3922 106.141 29.7124 106.218 29.9952 106.373C30.278 106.527 30.5129 106.754 30.6752 107.029C30.9857 107.52 31.0871 108.14 31.6845 108.64C31.6567 108.292 31.6603 107.943 31.6953 107.597C31.788 107.173 32.0145 106.778 32.489 106.682C33.0088 106.579 33.1101 106.981 33.2632 107.362C33.3299 107.521 33.4306 107.664 33.5586 107.782C33.6866 107.9 33.8389 107.99 34.0052 108.045C34.6845 108.303 34.7881 107.806 34.6112 107.52C34.1799 106.843 34.5551 106.627 35.062 106.35C35.4825 106.122 35.7241 105.608 35.5386 105.267C34.9886 104.245 36.0174 104.108 36.2999 103.479C36.4574 103.674 36.5846 103.759 36.5781 103.833C36.4962 104.838 37.1022 105.711 37.1044 106.714C37.1167 107.805 37.028 108.895 36.8391 109.97C36.6623 110.929 35.7996 111.354 35.1331 111.904C34.5487 112.387 34.1044 112.86 34.3675 113.732L35.3747 113.284C34.512 116.457 29.1784 120.46 23.6162 120.35C17.3164 120.225 11.1071 115.332 10.6499 108.176C11.5967 108.648 12.5241 109.105 13.3631 109.767C13.1927 109.31 13.1237 108.862 12.7851 108.445C12.5694 108.166 12.6902 107.715 12.1877 108.233C12.0108 108.422 11.8296 108.1 11.7736 107.912C11.5859 107.277 12.0065 106.797 12.4831 106.854C13.3458 106.953 13.6542 106.376 13.8397 105.902C14.2042 104.958 15.179 104.632 15.6923 103.799C16.2747 102.864 16.4084 102.8 15.1338 102.159C15.3468 102.168 15.556 102.101 15.7228 101.971C15.8897 101.841 16.0029 101.656 16.0417 101.45C16.1043 101.116 15.688 100.981 15.3494 100.934C14.8102 100.532 15.2157 100.363 15.5651 100.278C15.989 100.184 16.4332 100.241 16.8182 100.439C17.2279 100.752 17.1374 101.361 17.6528 101.744C18.0453 101.069 18.7937 100.856 19.3782 100.424C19.7147 100.177 20.1395 99.8423 19.9346 99.398C19.7297 98.9537 19.2423 99.2097 18.8735 99.2668C18.1618 99.3768 17.5191 99.7048 16.8376 99.9015C16.2854 99.9819 15.7247 99.9819 15.192 100.213C14.5579 100.488 14.0575 100.847 14.0187 101.59C13.6931 101.522 13.3588 101.433 13.1668 101.827C12.619 101.793 12.302 101.529 12.2998 100.964Z" fill="#FEFEFE"/>
<path d="M21.5695 105.182C21.562 105.13 21.562 105.078 21.5695 105.026C21.857 104.888 22.1091 104.688 22.3071 104.442C22.4255 104.28 22.5778 104.144 22.7539 104.044C22.9299 103.944 23.1257 103.882 23.3281 103.862C23.5305 103.842 23.735 103.864 23.9278 103.928C24.1207 103.991 24.2976 104.094 24.4466 104.23C24.8779 104.571 25.5077 104.387 25.9843 104.713C26.1698 104.842 26.3596 104.897 26.3122 105.157C26.3061 105.21 26.2881 105.262 26.2593 105.308C26.2305 105.354 26.1917 105.393 26.1457 105.422C26.0997 105.451 26.0476 105.47 25.9932 105.477C25.9389 105.485 25.8835 105.48 25.8312 105.464C25.0397 105.216 24.1058 105.925 23.3661 104.88C23.0404 104.412 22.2014 105.129 21.5695 105.182Z" fill="#FEFEFE"/>
<path d="M16.8333 100.538C16.4489 100.474 16.0605 100.438 15.6708 100.428C15.4098 100.428 15.0238 100.506 15.3494 100.932C14.7952 100.932 14.2711 100.987 14.0187 101.596C13.9023 100.538 14.6658 99.7871 15.9771 99.6708C16.2579 99.656 16.5394 99.656 16.8203 99.6708C16.695 99.9164 16.5033 100.124 16.2661 100.27C16.1216 100.27 16.238 100.35 16.2661 100.325C16.5421 100.143 16.7837 100.104 16.8333 100.538Z" fill="#193C4D"/>
<path d="M15.0519 101.41C14.9505 101.975 14.4437 102.256 14.3876 102.764C14.3574 103.046 14.2798 103.471 13.8571 103.338C13.5832 103.253 13.1195 103.223 13.0785 102.883C13.0375 102.542 13.3999 102.273 13.704 102.282C14.3855 102.297 14.3078 101.395 15.0519 101.41Z" fill="#FEFEFE"/>
<path d="M12.2998 100.964L13.1625 101.833C12.811 102.178 12.3689 102.256 11.821 102.256C11.8022 102.02 11.8352 101.782 11.9178 101.559C12.0004 101.336 12.1307 101.133 12.2998 100.964Z" fill="#FDFDFC"/>
<path d="M21.934 103.553C21.6191 103.363 21.7873 102.887 21.274 102.707C20.957 102.591 21.6342 102.229 21.6213 101.875C22.1259 102.007 22.1195 102.646 22.6371 102.663C22.5228 103.041 21.9663 103.096 21.934 103.553Z" fill="#193C4D"/>
<path d="M27.3473 103.177C28.0504 103.559 28.2445 103.93 28.2553 104.393C28.2553 104.429 28.0525 104.526 28.0202 104.501C27.6514 104.211 27.5651 103.799 27.3473 103.177Z" fill="#FEFEFE"/>
<path d="M26.8644 103.926C26.2562 103.883 25.8205 104.196 25.4517 103.759C25.4404 103.711 25.4406 103.661 25.4522 103.613C25.4638 103.566 25.4865 103.521 25.5186 103.483C25.9672 103.376 26.3748 103.445 26.8644 103.926Z" fill="#FEFEFE"/>
<path d="M27.6235 108.163C27.1145 107.825 26.7285 107.419 26.7371 106.594C27.2784 107.114 27.4057 107.666 27.5998 108.176L27.6235 108.163Z" fill="#FEFEFE"/>
<path d="M59.3705 53.74C62.8881 56.0525 64.978 59.3933 66.4058 63.1974C66.7767 64.1855 67.0528 65.2095 67.3332 66.2272C67.5014 66.8407 67.6114 66.9994 68.1829 66.4599C70.909 63.8872 70.8249 59.9667 69.1448 56.7973C66.1621 51.1715 60.3022 48.3068 53.8946 49.2546C52.6307 49.4429 51.3604 49.5995 49.9995 50.1263C52.6954 51.6793 54.4488 53.886 55.7731 56.4609C56.6617 58.1915 57.1922 60.0576 57.8284 61.873C58.4086 63.5423 59.1505 65.1376 60.4165 66.4409C61.2792 67.3189 62.2972 67.8902 63.5373 67.8817C64.3288 67.8817 64.4 68.2308 64.4 68.8486C64.3799 71.8784 64.3799 74.9109 64.4 77.9463C64.4 78.5112 64.2081 78.6847 63.6581 78.6805C61.1433 78.6608 58.6272 78.6608 56.1095 78.6805C55.3029 78.6805 54.9794 78.2129 54.7831 77.5486C54.5006 76.5859 54.5826 75.5915 54.4769 74.6119C54.1232 71.3304 52.4862 68.5714 50.7479 65.8612C49.4301 63.8025 48.1922 61.7164 47.5796 59.3298C46.3201 54.4446 47.3963 47.7101 52.0721 44.4117C56.4158 41.348 61.2404 40.5906 66.3885 42.1139C68.6445 42.7825 70.702 43.8066 72.3519 45.5097C75.1772 48.4231 76.0507 52.0093 76.0183 55.8917C75.986 59.3996 74.6272 62.4675 72.7228 65.3555C71.3986 67.3633 70.1348 69.405 69.3519 71.6922C68.8872 72.9851 68.6325 74.3416 68.597 75.7121C68.6083 76.5246 68.4482 77.3307 68.1268 78.0796C67.8853 78.6107 67.4604 78.6868 66.9708 78.6043C66.4813 78.5218 66.5826 78.0902 66.5805 77.758C66.5546 74.7621 66.5805 71.7662 66.505 68.7703C66.354 62.7425 63.5481 57.98 59.088 54.0214C59.0513 53.795 59.1419 53.6998 59.3705 53.74Z" fill="#A0CC04"/>
<path d="M59.3706 53.74L59.0902 54.0172C58.385 53.6977 57.8479 53.1709 57.3174 52.6187C58.0944 52.7988 58.8052 53.187 59.3706 53.74Z" fill="#8EB288"/>
<path d="M16.5185 16.9789C17.5841 16.9962 18.6207 17.3229 19.4972 17.9177C20.3737 18.5126 21.0508 19.3489 21.443 20.3211C21.8352 21.2933 21.9249 22.3577 21.7008 23.3798C21.4767 24.402 20.9488 25.3361 20.1838 26.0641C19.4188 26.7921 18.4511 27.2814 17.4028 27.4701C16.3545 27.6588 15.2727 27.5385 14.2941 27.1244C13.3154 26.7103 12.4838 26.021 11.9043 25.1435C11.3249 24.266 11.0235 23.2397 11.0382 22.1943C11.0458 21.4979 11.1939 20.8099 11.474 20.17C11.7541 19.53 12.1607 18.9509 12.6702 18.466C13.1798 17.9811 13.7822 17.6 14.4427 17.3448C15.1032 17.0895 15.8087 16.9652 16.5185 16.9789Z" fill="#193C4D"/>
<path d="M30.4228 9.94819C30.4166 10.7319 30.0965 11.4818 29.5316 12.0359C28.9667 12.5901 28.2023 12.9042 27.4034 12.9102C25.8506 12.8975 24.4379 11.5117 24.4271 9.99051C24.4205 9.21166 24.7296 8.46214 25.2864 7.90685C25.8431 7.35156 26.6019 7.03597 27.3959 7.02952C28.1898 7.02307 28.9538 7.32627 29.5199 7.87244C30.0859 8.41861 30.4076 9.163 30.4142 9.94185L30.4228 9.94819Z" fill="#193C4D"/>
<path d="M17.6205 117.936C16.7902 117.572 16.4732 117.003 16.2834 116.341C15.8305 114.754 15.3819 113.167 14.1266 111.955C13.4149 111.259 13.8614 110.414 13.911 109.649C13.939 109.278 14.3423 109.05 14.8297 109.149C15.4056 109.268 15.9944 109.424 16.3632 109.85C16.9081 110.453 17.5789 110.934 18.3301 111.261C18.8348 111.498 18.8693 111.821 18.7615 112.293C18.4768 113.628 18.095 114.925 17.3208 116.072C16.8916 116.732 17.3855 117.236 17.6205 117.936Z" fill="#193C4D"/>
<path d="M16.8333 100.538C16.7061 100.191 16.3524 100.378 16.0957 100.244L16.8204 99.6815C17.5952 99.3228 18.4113 99.0571 19.251 98.8902C19.6823 98.7928 20.0943 98.8605 20.3423 99.1356C20.655 99.4847 20.2517 99.8359 20.1115 100.168C19.9325 100.591 19.4882 100.722 19.1173 100.921C18.8067 101.088 18.4703 101.228 18.1769 101.406C17.8836 101.584 17.9613 102.288 17.4092 102.051C16.9972 101.875 16.9455 101.38 16.9045 100.953C16.8915 100.815 16.8592 100.676 16.8333 100.538Z" fill="#193C4D"/>
<path d="M27.6924 113.796C27.4767 112.875 27.7205 112.315 28.5098 111.68C28.3114 112.547 28.2596 113.172 27.6924 113.796Z" fill="#193C4D"/>
<path d="M33.7961 108.432C33.9972 108.671 34.1345 108.955 34.1955 109.258C34.2566 109.562 34.2393 109.876 34.1454 110.171C33.5567 109.634 33.3755 109.135 33.7961 108.432Z" fill="#193C4D"/>
<path d="M35.5581 108.352C35.6918 109.035 35.6896 109.507 35.2065 109.833C35.0728 109.922 34.9154 109.805 34.8571 109.681C34.5595 109.023 35.2453 108.889 35.5581 108.352Z" fill="#193C4D"/>
<path d="M16.4623 18.5932C17.4565 18.6223 18.3996 19.0319 19.0898 19.7345C19.78 20.437 20.1625 21.3766 20.1554 22.3523C20.1484 23.328 19.7523 24.2622 19.0521 24.9551C18.3518 25.6479 17.4029 26.0444 16.4084 26.0597C15.3947 26.0433 14.4275 25.6402 13.7116 24.936C12.9957 24.2318 12.5876 23.2817 12.5737 22.2873C12.5802 20.2668 14.366 18.5721 16.4623 18.5932Z" fill="#FDFDFD"/>
<path d="M27.4314 12.0661C27.1538 12.0689 26.8783 12.0177 26.6209 11.9154C26.3636 11.8131 26.1294 11.6617 25.9321 11.4701C25.7347 11.2784 25.5781 11.0503 25.4712 10.7989C25.3642 10.5475 25.3092 10.2778 25.3092 10.0054C25.2991 9.72859 25.3458 9.45262 25.4465 9.19388C25.5473 8.93513 25.7 8.69888 25.8956 8.49916C26.0912 8.29944 26.3257 8.14032 26.5853 8.03126C26.8448 7.92219 27.124 7.86541 27.4064 7.86428C27.6887 7.86314 27.9684 7.91768 28.2288 8.02465C28.4892 8.13163 28.7251 8.28886 28.9224 8.487C29.1197 8.68514 29.2743 8.92015 29.3772 9.17808C29.4801 9.43601 29.5291 9.71159 29.5213 9.98846C29.5286 10.2609 29.4797 10.532 29.3776 10.7855C29.2755 11.039 29.1223 11.2697 28.9272 11.4637C28.732 11.6577 28.499 11.811 28.2419 11.9146C27.9849 12.0181 27.7093 12.0696 27.4314 12.0661Z" fill="#F7F9F9"/>
<path d="M16.4042 20.3069C16.9469 20.3051 17.4686 20.5122 17.8574 20.8837C18.2461 21.2552 18.4709 21.7614 18.4833 22.2936C18.4922 22.5669 18.4451 22.8391 18.3448 23.0941C18.2444 23.3491 18.0927 23.5817 17.8989 23.7781C17.705 23.9745 17.4729 24.1306 17.2163 24.2373C16.9598 24.3439 16.6839 24.3989 16.4053 24.3989C16.1266 24.3989 15.8508 24.3439 15.5942 24.2373C15.3376 24.1306 15.1055 23.9745 14.9116 23.7781C14.7178 23.5817 14.5662 23.3491 14.4658 23.0941C14.3654 22.8391 14.3183 22.5669 14.3273 22.2936C14.3369 21.7609 14.5604 21.2534 14.9493 20.8814C15.3382 20.5094 15.861 20.303 16.4042 20.3069Z" fill="#193C4D"/>
<path d="M28.5596 9.97368C28.4905 10.6613 28.1282 11.0929 27.3992 11.0908C26.7069 11.0908 26.3209 10.6803 26.3079 10.0329C26.2864 9.31568 26.7069 8.91157 27.438 8.9158C28.1174 8.91792 28.469 9.32203 28.5596 9.97368Z" fill="#193C4D"/>
<path d="M15.9253 63.4195C15.9253 63.7009 15.9253 63.9823 15.9253 64.2658C15.9253 64.6424 15.7097 64.7355 15.3711 64.7418C15.0324 64.7482 14.8297 64.6191 14.8319 64.2552C14.8319 63.7277 14.8268 63.1994 14.8168 62.6705C14.8168 62.3129 14.8728 62.0506 15.3344 62.0718C15.7506 62.0971 15.8951 62.3087 15.8951 62.679C15.8951 62.9265 15.8951 63.1719 15.8951 63.4195H15.9253Z" fill="#D19D57"/>
<path d="M16.8528 51.5755C16.6134 52.2991 16.4214 52.8979 16.2058 53.4797C16.085 53.8098 15.8068 53.8436 15.5027 53.7272C15.2396 53.6278 15.0713 53.4501 15.1705 53.1623C15.3517 52.5615 15.5393 51.9585 15.7485 51.3661C15.7659 51.3062 15.7966 51.2508 15.8383 51.2039C15.8799 51.157 15.9317 51.1197 15.9898 51.0946C16.0479 51.0696 16.1109 51.0574 16.1743 51.059C16.2377 51.0605 16.3 51.0758 16.3567 51.1037C16.6738 51.2011 16.8463 51.3894 16.8528 51.5755Z" fill="#D2A25F"/>
<path d="M16.5767 72.9615C16.9606 72.9404 17.1633 73.0165 17.2022 73.3403C17.2755 73.9327 17.3661 74.523 17.448 75.1154C17.4674 75.1757 17.4719 75.2397 17.4613 75.3021C17.4507 75.3645 17.4253 75.4235 17.387 75.4744C17.3488 75.5254 17.2988 75.5667 17.2412 75.5951C17.1836 75.6235 17.12 75.6382 17.0555 75.638C16.8118 75.6655 16.471 75.7353 16.4085 75.4264C16.254 74.7056 16.1488 73.9754 16.0936 73.2408C16.0699 72.8875 16.4495 72.9954 16.5767 72.9615Z" fill="#D2A25D"/>
<path d="M75.4793 17.6983C74.9099 17.6475 74.3427 17.5988 73.7733 17.5438C73.3419 17.5036 73.2751 17.2201 73.2966 16.8668C73.3182 16.5135 73.549 16.3907 73.8811 16.4331C74.4828 16.5113 75.0803 16.615 75.6841 16.6764C76.1867 16.7293 76.0853 17.0699 76.0745 17.3746C76.068 17.7829 75.7877 17.7956 75.4793 17.6983Z" fill="#D4A261"/>
<path d="M80.7092 19.1792C80.5777 19.5812 80.3987 19.8964 79.8767 19.6341C79.3548 19.3717 78.7984 19.1052 78.257 18.8365C77.981 18.6989 77.9357 18.5 78.0888 18.2356C78.2419 17.9711 78.3368 17.6686 78.7056 17.8357C79.316 18.1129 79.9048 18.4345 80.5044 18.737C80.5851 18.7764 80.6495 18.8419 80.6868 18.9224C80.7241 19.0029 80.7321 19.0936 80.7092 19.1792Z" fill="#D2A05E"/>
<path d="M79.8574 106.85C79.59 106.947 79.439 106.759 79.3981 106.426C79.3571 106.094 79.3463 105.792 79.8165 105.737C80.3815 105.667 81.3024 105.491 81.8567 105.364C82.2126 105.284 82.0487 105.455 82.1371 105.788C82.2255 106.12 82.1673 106.443 81.7661 106.528C81.173 106.657 80.5692 106.74 79.8574 106.85Z" fill="#D3A462"/>
<path d="M16.003 57.1189C16.003 57.4003 16.003 57.6817 16.003 57.9652C16.003 58.3418 15.7873 58.4349 15.4487 58.4413C15.1101 58.4476 14.9095 58.3186 14.9095 57.9547C14.9095 57.4278 14.9095 56.8968 14.8944 56.37C14.8944 56.0124 14.9505 55.7501 15.412 55.7712C15.8304 55.7903 15.9771 56.0039 15.9685 56.3806C15.9685 56.6281 15.9685 56.8735 15.9685 57.1211L16.003 57.1189Z" fill="#D19D57"/>
</g>
<defs>
<clipPath id="clip0">
<rect width="131" height="127" fill="white"/>
</clipPath>
</defs>
</svg>
