<svg id="Capa_1" data-name="Capa 1" xmlns="http://www.w3.org/2000/svg" xmlns:xlink="http://www.w3.org/1999/xlink" viewBox="0 0 357.28 361.2"><defs><style>.cls-1{fill:none;}.cls-2{clip-path:url(#clip-path);}.cls-3{fill:#a0cc04;}.cls-4{fill:#193c4d;}.cls-5{fill:#fefefe;}.cls-6{fill:#fcfdfc;}.cls-7{fill:#fdfdfc;}.cls-8{fill:#fefefd;}.cls-9{fill:#f4f7f2;}.cls-10{fill:#f5f8f3;}.cls-11{fill:#f5f9f4;}.cls-12{fill:#f7f9f6;}.cls-13{fill:#f7faf6;}.cls-14{fill:#f7f9f5;}.cls-15{fill:#fafbf9;}.cls-16{fill:#f9faf8;}.cls-17{fill:#fefefc;}.cls-18{fill:#8eb288;}</style><clipPath id="clip-path" transform="translate(48.13 161.55)"><polyline class="cls-1" points="475 357 -186 357 -186 -304 475 -304"/></clipPath></defs><title>Lamparita</title><g class="cls-2"><path class="cls-3" d="M-48.12,20.85C-49.21-77.82,28.5-159.35,126.3-161.51c101-2.2,181.36,78.95,182.83,177.45,1.56,101.69-78.64,180.84-172.94,183.63C33.83,202.61-47.75,119.41-48.12,20.85Z" transform="translate(48.13 161.55)"/><path class="cls-4" d="M342.08,339.5" transform="translate(48.13 161.55)"/><path class="cls-5" d="M124.43,116.88c-9.25,0-18.5-.34-27.73.08-9.63.44-15.09-5.89-17.06-13.66-.76-3-1.7-6.12-1.65-9.15C78.25,75,69.5,59.33,59.7,44,47.9,25.6,39.82,6.08,40.21-16.46c.86-48.88,30.13-79.28,77.27-83.45,28.42-2.53,53.67,6.32,73.12,28.39,13.26,15.06,17.63,33.64,18.5,53.22,1.09,23.54-7.47,44.05-20,63.21-6.07,9.33-11.56,19-14.88,29.73a55.12,55.12,0,0,0-2.51,14c-.27,6.6-.77,13.21-3.83,19.22-2.86,5.65-7.14,9.06-13.67,9C144.37,116.85,134.4,116.88,124.43,116.88Z" transform="translate(48.13 161.55)"/><path class="cls-6" d="M124.74,150.11H94.84c-3.64,0-7-.49-6.83-5.51.11-4.73,3.26-5.15,6.69-5.16H155c3.82,0,6.76,1.5,6.53,5.5s-3.16,5.27-7,5.22c-10-.12-19.93,0-29.89,0Z" transform="translate(48.13 161.55)"/><path class="cls-7" d="M124.77,133.8H94.93c-3.66,0-7-.33-6.9-5.45.07-4.85,3.36-5.08,6.69-5.09h60.77c3.76,0,6.18,1.88,6.1,5.43s-2.83,5.17-6.44,5.14c-10.12-.05-20.25,0-30.38,0Z" transform="translate(48.13 161.55)"/><path class="cls-7" d="M124.77,165.66c-7.77,0-15.53-.06-23.3,0-3.81,0-7.33-.81-7.39-5.23s3.48-4.77,7-4.76c15.36.07,30.71,0,46.07,0h2.71c3.06.1,5.44,1.28,5.51,4.7.07,3.69-2.43,5.1-5.7,5.13-8.3.08-16.62,0-24.93,0Z" transform="translate(48.13 161.55)"/><path class="cls-8" d="M124.74,170.78h17.91c3.85,0,4.35,1.63,2.3,4.76-8,12.22-13.36,14.53-27.83,12a7.33,7.33,0,0,1-4.59-2.55c-2.56-3.07-5-6.24-7.42-9.41-.84-1.1-2.56-2-1.67-3.65.81-1.51,2.52-1.18,3.94-1.19h17.36Z" transform="translate(48.13 161.55)"/><path class="cls-9" d="M123.16-133.25c0-3.65.08-7.29,0-10.93-.07-2.09.44-3.77,2.68-4,2.65-.24,3.33,1.71,3.34,3.91,0,7.48,0,14.94,0,22.41,0,2.43-.88,4-3.35,3.87-2.24-.1-2.82-1.67-2.74-3.81C123.26-125.6,123.16-129.46,123.16-133.25Z" transform="translate(48.13 161.55)"/><path class="cls-10" d="M67.89-99.93c-1.87.1-2.76-.88-3.56-2.2-3.69-6.25-7.4-12.49-11.21-18.66-1.37-2.21-1.49-4.3.72-5.7s3.26.78,4.13,2.2c4,6.5,7.86,13.08,11.8,19.61C71.36-102.06,70.29-100.66,67.89-99.93Z" transform="translate(48.13 161.55)"/><path class="cls-10" d="M33.67-65.21c-.6,3-2.44,4.15-4.76,2.78-7-4.15-13.82-8.56-20.68-13a2.76,2.76,0,0,1-.79-.77,3.17,3.17,0,0,1-.43-1,3,3,0,0,1,0-1.11,2.89,2.89,0,0,1,.41-1c.84-1.47,2.29-2.15,3.68-1.28,7.18,4.51,14.29,9.16,21.39,13.8C33.06-66.49,33.34-65.71,33.67-65.21Z" transform="translate(48.13 161.55)"/><path class="cls-11" d="M33.6,35.32a4.27,4.27,0,0,1-.41,2.46,4.16,4.16,0,0,1-1.7,1.8L13.82,52.23c-1.66,1.19-3.4,2.51-5.17.29s-.09-3.69,1.52-4.88q8.94-6.6,18-13C30.43,33,32.48,33.11,33.6,35.32Z" transform="translate(48.13 161.55)"/><path class="cls-12" d="M240.93-78.48a4.05,4.05,0,0,1-.47,2.08A4.1,4.1,0,0,1,239-74.85c-6.11,3.84-12.18,7.77-18.31,11.6-1.89,1.17-4.13,2.38-5.68-.24-1.46-2.44.76-3.67,2.37-4.72,6.09-4,12.26-7.8,18.39-11.71C238.34-81.55,240.12-81.15,240.93-78.48Z" transform="translate(48.13 161.55)"/><path class="cls-13" d="M218,33.52a30.23,30.23,0,0,1,2.89,1.73c5.71,4.16,11.36,8.4,17.1,12.51,1.6,1.1,3,2.21,1.73,4.41s-3.06,1.77-4.68.64q-9.7-6.87-19.31-13.89a2.94,2.94,0,0,1-1.2-1.79,3,3,0,0,1,.34-2.14C215.36,33.89,216.32,33.58,218,33.52Z" transform="translate(48.13 161.55)"/><path class="cls-14" d="M196.74-124.57c-1,1.88-2.42,4.58-3.81,7.31-2.39,4.68-4.8,9.36-7.1,14.08-1,2.05-2.58,2.64-4.42,1.81s-1.66-2.69-.89-4.23c3.47-7,7-13.94,10.6-20.84.75-1.44,2.09-2.63,4-2C196.37-128,197.26-127.09,196.74-124.57Z" transform="translate(48.13 161.55)"/><path class="cls-15" d="M240-13c3.79,0,7.62.07,11.37,0,2-.06,3.27.72,3.27,2.72a2.77,2.77,0,0,1-.15,1.21,2.8,2.8,0,0,1-.66,1,2.86,2.86,0,0,1-1,.65,2.76,2.76,0,0,1-1.21.12H227.72a2.66,2.66,0,0,1-1.22-.12,2.74,2.74,0,0,1-1-.67,2.67,2.67,0,0,1-.64-1.06,2.84,2.84,0,0,1-.11-1.23c.11-2.2,1.57-2.62,3.38-2.61C232-13,236-13.07,240-13Z" transform="translate(48.13 161.55)"/><path class="cls-16" d="M8.66-13.07H19.49c1.9,0,3.78.06,3.85,2.66.05,2.43-1.52,3.07-3.56,3.07H-3c-2,0-3.73-.64-3.63-3S-4.69-13.07-2.71-13C1.09-13,4.88-13,8.66-13.07Z" transform="translate(48.13 161.55)"/><path class="cls-17" d="M323.54,205.14" transform="translate(48.13 161.55)"/><path class="cls-5" d="M432.7-134.34" transform="translate(48.13 161.55)"/><path class="cls-5" d="M431.11-137.46" transform="translate(48.13 161.55)"/><path class="cls-3" d="M113.57-24.3c17.75,12,28.3,29.43,35.5,49.22,1.87,5.15,3.26,10.48,4.68,15.77.85,3.2,1.4,4,4.29,1.22,13.75-13.39,13.33-33.8,4.85-50.3-15-29.28-44.62-44.19-76.95-39.25-6.38,1-12.79,1.79-19.65,4.53,13.6,8.09,22.45,19.57,29.13,33,4.48,9,7.16,18.72,10.37,28.17,2.93,8.69,6.67,17,13.06,23.78,4.35,4.57,9.49,7.54,15.75,7.5,4,0,4.35,1.81,4.35,5q-.15,23.66,0,47.35c0,2.94-1,3.84-3.74,3.82q-19-.15-38.09,0c-4.07,0-5.7-2.43-6.7-5.89-1.42-5-1-10.19-1.54-15.29-1.78-17.07-10-31.43-18.82-45.54-6.65-10.71-12.89-21.57-16-34-6.36-25.43-.93-60.48,22.67-77.65C98.66-88.79,123-92.74,149-84.81c11.39,3.48,21.77,8.81,30.09,17.68,14.26,15.16,18.67,33.82,18.5,54-.16,18.26-7,34.23-16.62,49.26-6.69,10.45-13.06,21.07-17,33a68.72,68.72,0,0,0-3.81,20.92,31.14,31.14,0,0,1-2.37,12.32c-1.22,2.77-3.37,3.16-5.84,2.73s-2-2.67-2-4.4c-.13-15.59,0-31.19-.38-46.78-.76-31.37-14.92-56.16-37.42-76.76C112-24,112.42-24.51,113.57-24.3Z" transform="translate(48.13 161.55)"/><path class="cls-18" d="M113.57-24.3l-1.41,1.44c-3.56-1.66-6.27-4.4-9-7.27A21.6,21.6,0,0,1,113.57-24.3Z" transform="translate(48.13 161.55)"/></g></svg>