<svg id="Capa_1" data-name="Capa 1" xmlns="http://www.w3.org/2000/svg" xmlns:xlink="http://www.w3.org/1999/xlink" viewBox="0 0 799.37 798.33"><defs><style>.cls-1,.cls-2{fill:none;}.cls-2{clip-path:url(#clip-path);}.cls-3{clip-path:url(#clip-path-2);}.cls-4{fill:#a0cc04;}.cls-5{fill:#193c4d;}.cls-6{fill:#fefefd;}.cls-7{fill:#fefefc;}.cls-8{fill:#fefefe;}</style><clipPath id="clip-path"><line class="cls-1" x1="-186" y1="-304" x2="475" y2="-304"/></clipPath><clipPath id="clip-path-2" transform="translate(334.23 292.2)"><line class="cls-2" x1="475" y1="357" x2="-186" y2="357"/></clipPath></defs><title>Oponente</title><g class="cls-3"><path class="cls-4" d="M136.19,199.57" transform="translate(334.23 292.2)"/><path class="cls-4" d="M126.3-161.51" transform="translate(334.23 292.2)"/><path class="cls-5" d="M342.08,339.5" transform="translate(334.23 292.2)"/><path class="cls-6" d="M117.12,187.57a7.33,7.33,0,0,1-4.59-2.55" transform="translate(334.23 292.2)"/><path class="cls-7" d="M323.54,205.14" transform="translate(334.23 292.2)"/><path class="cls-8" d="M432.7-134.34" transform="translate(334.23 292.2)"/><path class="cls-8" d="M431.11-137.46" transform="translate(334.23 292.2)"/></g><path class="cls-4" d="M65.44-292.2C286.09-293,469.59-111.33,465.06,115.39,460.71,332.38,280.8,510.75,56.46,506-161.27,501.46-338.93,321-334.14,97.9-329.5-117.95-152-292.82,65.44-292.2Z" transform="translate(334.23 292.2)"/><path class="cls-8" d="M96.62-142.24h168c19.45,0,32.49,13.12,32.49,32.69q0,113,0,226c0,19.55-12.72,32.69-32.38,32.88-24.5.24-49,.06-73.5.06h-253c-6.4,0-6.44,0-6-6.6,1.53-21.26,3.2-42.51,4.54-63.78.23-3.67,2.4-4.21,4.95-5.08C-28,63.62,2.25,53.21,32.55,43c8.26-2.78,15.75-6.56,18.25-15.46a50.51,50.51,0,0,0,0-28.11c-2.5-8.36-9-13.31-17.93-13.49-17.66-.34-35.33-.23-53-.26-16.33,0-32.67,0-49,0-1.26,0-3,.66-3.7-.67s.83-2.32,1.53-3.35c22.51-33.47,7.83-77.22-30.32-90-2.85-1-3.51-2.25-3.21-5,1.81-16.93,14.92-28.9,31.93-28.9Q11.88-142.26,96.62-142.24Z" transform="translate(334.23 292.2)"/><path class="cls-8" d="M-111.61,267.78c-16.82-.67-30.23,4-39.93,18.9-.86-11.62-1.63-21.82-2.36-32-1.95-27.4-3.84-54.8-5.87-82.2-.48-6.51-1.86-7.55-8.49-7.6-2,0-4,0-6,0-7.74,0-10-2.17-10.54-10q-4.47-61.53-8.92-123a42.63,42.63,0,0,1,.55-11.44c2-10.38,8.62-16.72,19.1-18.31,6.13-.93,12.3-.6,18.46-.55,3.53,0,5.75,2,7.65,4.83q10.41,15.27,21,30.41c3.62,5.16,5.74,5.15,9.3,0,6.86-9.84,13.77-19.64,20.38-29.64,2.67-4,5.85-5.8,10.73-5.78,38.48.13,77,.06,115.44.08,7.09,0,8.3,1.23,8.3,8.57,0,16.15,1.24,14.49-14.16,19.78C-7.34,40.18-37.72,50.62-68.16,60.86c-6.59,2.22-9.44,6.31-9.9,13.22-2,31.07-4.41,62.11-6.57,93.16-.19,2.77-.82,4.31-3.77,5.43a59,59,0,0,0-26,91.34C-113.66,264.92-113,265.86-111.61,267.78Z" transform="translate(334.23 292.2)"/><path class="cls-8" d="M190.26,371.76q-23.73,0-47.46,0c-14.68,0-19.93-4.6-21.18-19.23-1.2-13.92-2.19-27.88-2.76-41.84-.74-18.23,8.13-27.33,26.29-27.38q45-.12,89.91,0c17.64.05,27.07,9.19,26.43,26.47-.55,15-1.77,29.9-3.31,44.79-1.3,12.56-6.7,17.05-19.47,17.16C222.56,371.87,206.41,371.76,190.26,371.76Z" transform="translate(334.23 292.2)"/><path class="cls-8" d="M-18.94,371.77H-76.6c-13.82,0-27.64.05-41.45,0-13.49-.07-19-4.65-20.27-18-1.4-14.9-2.49-29.86-2.92-44.82-.46-16.16,8-25.27,24.09-25.48,31.12-.42,62.26-.15,93.39-.08,1.34,0,4.76-.81,2.84,2.52-6.93,12-5.95,24.95-4.91,37.94q1.21,15.17,2.35,30.36A51.39,51.39,0,0,0-18.94,371.77Z" transform="translate(334.23 292.2)"/><path class="cls-8" d="M58.83,371.77c-15.5,0-31,0-46.49,0-14.14,0-19.32-4.53-20.6-18.69-1.32-14.59-2.55-29.21-3-43.85-.49-16.77,8.51-25.77,25.36-25.87,30.49-.18,61,0,91.48-.07,3.26,0,5.28.09,2.81,4.27-4.18,7.09-5.37,15.11-4.91,23.17.88,15.46,2.23,30.89,3.38,46.33a24.23,24.23,0,0,0,2.31,9.66c2.75,5.12.19,5.16-3.87,5.12C89.83,371.68,74.33,371.77,58.83,371.77Z" transform="translate(334.23 292.2)"/><path class="cls-8" d="M-75.94-52.21C-76-28.67-94.36-9.5-117.08-9.38s-41.7-19.4-41.63-42.95c.06-23.8,18.55-42.67,41.76-42.62C-94.13-94.91-75.93-75.94-75.94-52.21Z" transform="translate(334.23 292.2)"/><path class="cls-8" d="M-111.42,227.54c.18-24.06,18.77-42.68,42.39-42.46,22.49.2,40.45,19.58,40.26,43.46-.18,23.22-18.67,42.09-41.26,42.13C-92.87,270.7-111.6,251.19-111.42,227.54Z" transform="translate(334.23 292.2)"/><path class="cls-8" d="M101.4,228.44C101,252,82,271.13,59.62,270.67c-23.1-.48-41.36-19.85-41-43.52.34-24,19.11-42.42,42.8-42.07C83.54,185.4,101.81,205.2,101.4,228.44Z" transform="translate(334.23 292.2)"/><path class="cls-8" d="M231.41,227.69c.09,23.68-18.7,43.13-41.51,43s-41.17-19.29-41.18-42.78c0-23.69,18.23-42.74,41-42.81C212.9,185,231.32,203.82,231.41,227.69Z" transform="translate(334.23 292.2)"/><path class="cls-4" d="M226.62-74.3c-6.11-1-10.87-1.69-15.58-2.61s-7.58-4.59-7-8.78,4.21-7.18,9.05-6.49q17.55,2.49,35,5.54c4.57.8,7,4.69,6.1,9.31Q250.68-60,246.72-42.7c-1.06,4.64-4.74,7-8.83,6.12s-6.6-4.41-5.86-9c.78-4.9,2-9.73,3.18-15.42-5.05,3-9.37,5.6-13.76,8.1-34.24,19.5-71.16,30.32-110.28,34.1-8.8.85-17.6,1.22-26.42,1.22-6,0-9.64-3-9.6-7.71s3.57-7.78,9.61-7.83c40-.32,78.3-8.38,114.52-25.59A193.2,193.2,0,0,0,226.62-74.3Z" transform="translate(334.23 292.2)"/><path class="cls-4" d="M233,34.16q0,25.25,0,50.48c0,5.85-1.12,6.93-7.06,7-14.81.13-13.79.66-13.77-13.33q.06-47,0-94c0-6.85.63-7.51,7.35-7.48,14.57.05,13.48-1.7,13.47,13.33Q233,12.16,233,34.16Z" transform="translate(334.23 292.2)"/><path class="cls-4" d="M189.84,43.55c0,13.82-.12,27.63.07,41.45.06,4.69-1.7,6.68-6.4,6.67-16.48,0-14.37.79-14.39-14.08q-.08-37.7,0-75.4c0-6.56.64-7.23,7.08-7.22,15,0,13.66-1.64,13.65,13.62Z" transform="translate(334.23 292.2)"/><path class="cls-4" d="M146.68,48.43c0,12.32-.11,24.64.06,36.95.06,4.55-1.91,6.28-6.27,6.28-16.65,0-14.33.79-14.38-14-.07-22,0-43.95,0-65.92,0-6.45.66-7.11,7.18-7.11,14.89,0,13.39-1.27,13.42,13.38C146.7,28.12,146.68,38.27,146.68,48.43Z" transform="translate(334.23 292.2)"/><path class="cls-4" d="M103.72,50.34c0,11.48,0,23,0,34.44,0,5.59-1.16,6.81-6.67,6.84-16.32.08-14,.91-14-13.76C83,56.9,83,35.93,83,15c0-5.73.87-6.58,6.7-6.61,15.06-.07,14.06-1.08,14,14C103.7,31.71,103.72,41,103.72,50.34Z" transform="translate(334.23 292.2)"/></svg>