<svg id="Capa_1" data-name="Capa 1" xmlns="http://www.w3.org/2000/svg" xmlns:xlink="http://www.w3.org/1999/xlink" viewBox="0 0 458 458"><defs><style>.cls-1{fill:none;}.cls-2{fill:#a0cc04;}.cls-3{clip-path:url(#clip-path);}.cls-4{fill:#fff;}</style><clipPath id="clip-path" transform="translate(80 123)"><rect class="cls-1" y="-56" width="300" height="300"/></clipPath></defs><title>3. Cheque</title><path class="cls-2" d="M378,120v3c-1,7.45-.77,15-1.6,22.44-2,18.08-7.65,35.21-14.85,51.76a229.27,229.27,0,0,1-51.25,74.36c-31.65,30.5-68.88,50.94-111.91,60.38-9.52,2.09-19.33,2-29,2.57-1.45.1-3-.47-4.35.49h-3c-1.84-1-3.84-.27-5.76-.5H140.67c-2.22.23-4.51-.51-6.67.5h-2c-7.45-1-15-.95-22.44-1.57-14.36-1.18-27.91-5.71-41.32-10.6-35.6-13-65.9-34.06-91.2-62.05a227.67,227.67,0,0,1-54-103.36c-2-8.85-1.89-18-2.57-27.06-.08-1.13.37-2.34-.49-3.36V95a7.89,7.89,0,0,0,0-6V84c1.07-6.29.93-12.69,1.59-19C-76.47,46.2-70,28.7-62.55,11.53c13.42-31,33.62-57,58.6-79.36C25.44-94.11,59.67-111.36,98.11-120c8.67-2,17.67-1.83,26.53-2.47,1.13-.08,2.34.37,3.36-.49h41c7,.86,14.1.87,21.11,1.6,19.26,2,37.21,8.65,54.66,16.57a229,229,0,0,1,74.9,54.67A226.8,226.8,0,0,1,375.22,57.69c1.9,9,1.66,18.29,2.29,27.46.12,1.62-.51,3.32.49,4.85v1c-1,2.15-.27,4.44-.5,6.65v15.66C377.73,115.54,377,117.83,378,120Z" transform="translate(80 123)"/><path class="cls-2" d="M377.17,94.12q0-8.58-.11-17.17c.36-.67.67-.66.94,0V94C377.83,94.79,377.55,94.83,377.17,94.12Z" transform="translate(80 123)"/><path class="cls-2" d="M139.94,314.07l17.18.1c.71.38.67.66-.12.83H140Q138.94,314.61,139.94,314.07Z" transform="translate(80 123)"/><path class="cls-2" d="M-80,69c1.46,2,1.16,4,0,6Z" transform="translate(80 123)"/><path class="cls-2" d="M378,77h-.47l-.47,0c.17-2-.7-4.18.94-6Z" transform="translate(80 123)"/><path class="cls-2" d="M377.17,94.12A5.72,5.72,0,0,1,378,94v6C376.36,98.23,377.17,96.12,377.17,94.12Z" transform="translate(80 123)"/><path class="cls-2" d="M139.94,314.07a4.85,4.85,0,0,1,.06.93h-6C135.75,313.25,138,314.3,139.94,314.07Z" transform="translate(80 123)"/><path class="cls-2" d="M157,315l.12-.83c1.68,0,3.46-.69,4.88.83Z" transform="translate(80 123)"/><g class="cls-3"><path class="cls-4" d="M278.59,244H21.65q-19-2.38-21.41-21.42V67.89C6.3,48.45,15.58,42.07,40.68,41.72c39.25-.55,78.51-1.38,117.74.33,20,.88,31.09-5.74,39.8-23.35,10-20.18,22.36-39.22,33.47-58.87,4.57-8,10.31-14,20.18-14.5h13.66c22.1,3,29.52,8.69,33.3,25.49v14.61C297.33,3.57,285.56,17,277.21,31.91c-6.31,11.3-6.69,11.45,4.87,15.87,13.76,5.26,17.2,16,16.66,29.23V216.82C298.55,235.93,296.81,238.26,278.59,244Z" transform="translate(80 123)"/><path class="cls-2" d="M252.06-53.79c-7.8,1.81-11.13,8.24-14.68,14.4-15,26-30.19,51.86-44.77,78.06-3.76,6.76-8,9.23-15.82,9.16-45.47-.38-90.95.26-136.42-.4C22.77,47.17,9,52,.24,67.89.24,29.53.52-8.81,0-47.17-.12-55.1,2.38-56,9.33-56q121.55.21,243.09.14C254-54.87,253.89-54.18,252.06-53.79Z" transform="translate(80 123)"/><path class="cls-2" d="M297.93,72.41c-4.4-18.34-18.25-23-35.69-23.79C274.31,27.65,286,7.3,297.64-13q1.08-2.39,2.38,0V72.65C299.12,74.25,298.43,74.18,297.93,72.41Z" transform="translate(80 123)"/><path class="cls-2" d="M297.62-29.68c-5.95-13.52-18.91-18-30.78-23.8-1.74-.57-1.81-1.28-.22-2.19h33.31v26C299.19-28.11,298.43-28.13,297.62-29.68Z" transform="translate(80 123)"/><path class="cls-2" d="M297.93,72.41a7.2,7.2,0,0,1,2.07.24V220.2c-.55,1.24-1.24,1.33-2.07.24Z" transform="translate(80 123)"/><path class="cls-2" d="M297.93,220.44a5.58,5.58,0,0,0,2.07-.24V244H278.59C287.63,238.26,296.5,232.41,297.93,220.44Z" transform="translate(80 123)"/><path class="cls-2" d="M.24,222.58c5.23,9,11.89,16.78,21.41,21.42H.24Z" transform="translate(80 123)"/><path class="cls-2" d="M297.62-29.68a3.16,3.16,0,0,0,2.38,0V-13l-1.14-.19-1.24.19Z" transform="translate(80 123)"/><path class="cls-2" d="M266.69-55.86a2.65,2.65,0,0,0-.12,1.12,2.69,2.69,0,0,0,.34,1.07l-14.85-.12a10.31,10.31,0,0,0,.36-2.07Z" transform="translate(80 123)"/><path class="cls-2" d="M175.17,67.89c-12.06,14.78-9.35,30.94-10.11,45.86-.57,10.9-4.19,13.66-14,12.57a113.62,113.62,0,0,0-17.79.14c-6.57.33-10.35,3.83-10,10.64.33,6.11,3.85,9.3,10,9.3H248.54c6.31,0,10.9-2.85,11-9.75,0-6.17-4-9.52-9.8-9.81-8.66-.55-17.39-.47-26.17-.59A64.52,64.52,0,0,1,209.6,125c19-12,24.83-32.72,35.25-50,7.31-11.9,17.39-7.14,26.17-6.52,8.21.53,7.45,8.76,7.45,15.16v124.8c0,13.18-2.71,15.92-16.08,15.92h-227C21.6,224.39,19.06,222,19,208.87V82.74c0-10.23,3.48-15.3,14.51-15.23C79.86,68.06,126.33,67.89,175.17,67.89Z" transform="translate(80 123)"/><path class="cls-2" d="M240.52-1.12c5.81,3.54,12.83,6.3,17.58,11.23,4,4.12-2,8.33-4.18,12.07C241.43,44.07,228.15,65.54,216,87.62c-6.87,12.42-12,1.33-17.6-.47-6.05-2-10-4.76-5.09-12.69,14.06-22.8,27.09-46.21,40.7-69.3C235.5,2.59,236.1-1.12,240.52-1.12Z" transform="translate(80 123)"/><path class="cls-2" d="M279.73-22.54c-3,5.31-3.92,11.54-9.8,14.28-2,.9-20.65-12.07-19.87-13.38,2.88-4.76,3.81-13.51,10.26-12.85a27,27,0,0,1,11,3.84,27.06,27.06,0,0,1,8.39,8.11Z" transform="translate(80 123)"/><path class="cls-2" d="M185.64,115.49V103.16c4.57.29,9.13,2,9.28,5.48S189.78,113.35,185.64,115.49Z" transform="translate(80 123)"/><path class="cls-4" d="M45.75,171.8c.19-5.26,2.59-9.67,8.56-10.62s8.38,3.24,9.88,8.14a21.9,21.9,0,0,0,2.21,6.59c3.66,5,8.59,5.45,13.46,2s5.26-8.18,1.19-12.18a161.21,161.21,0,0,0-18-15.3c-20.86-15.19-24.43-40.68-1.66-54.55,3.4-2.07,3-5.14,3.16-8.26.38-6.09,3.83-9.8,9.83-9.52,5.14.24,9.3,3.48,9,9.07s2.88,8.28,7,11.09A27.94,27.94,0,0,1,102.32,118c1,6.33-.66,11.13-7.51,12.54-6.43,1.31-9.52-2.38-10.88-8.09a24.12,24.12,0,0,0-.71-3.48,9.66,9.66,0,0,0-9-6.64A8.92,8.92,0,0,0,67.8,128.1c8.21,7.4,17.18,14,25,21.8,11.42,11.43,13,23.8,5.28,36.56a23.78,23.78,0,0,1-7.77,8.66c-4.76,2.62-6.86,5.57-6.76,11.09s-3.59,8.69-9,9.11a7.93,7.93,0,0,1-6.25-1.63,8.06,8.06,0,0,1-2.08-2.56,7.85,7.85,0,0,1-.86-3.18c.15-8.12-4.92-11.5-10.16-15.76C49,187.22,46.51,180.08,45.75,171.8Z" transform="translate(80 123)"/><path class="cls-4" d="M189.37,203.54c-18.22,0-36.44-.14-54.71,0-6.69,0-12.52-1.23-12.69-8.87-.19-8.36,6.07-9.93,13.14-9.9H245.57c6.9,0,13.7,1.59,13.51,9.75s-7.14,9-14,9Q217.32,203.56,189.37,203.54Z" transform="translate(80 123)"/></g></svg>