<svg id="Capa_1" data-name="Capa 1" xmlns="http://www.w3.org/2000/svg" xmlns:xlink="http://www.w3.org/1999/xlink" viewBox="0 0 458 458"><defs><style>.cls-1{fill:none;}.cls-2{fill:#a0cc04;}.cls-3{clip-path:url(#clip-path);}.cls-4{fill:#fefefe;}.cls-5{fill:#fcfdfe;}.cls-6{fill:#fdfefe;}</style><clipPath id="clip-path" transform="translate(76 129)"><rect class="cls-1" x="3" y="-61" width="300" height="300"/></clipPath></defs><title>4. Anotación</title><path class="cls-2" d="M382,114v3c-1,7.45-.77,15-1.6,22.44-2,18.08-7.65,35.21-14.85,51.76a229.27,229.27,0,0,1-51.25,74.36c-31.65,30.5-68.88,50.94-111.91,60.38-9.52,2.09-19.33,2-29,2.57-1.45.1-3-.47-4.35.49h-3c-1.84-1-3.84-.27-5.76-.5H144.67c-2.22.23-4.51-.51-6.67.5h-2c-7.45-1-15-.95-22.44-1.57-14.36-1.18-27.91-5.71-41.32-10.6-35.6-13-65.9-34.06-91.2-62a227.67,227.67,0,0,1-54-103.36c-2-8.85-1.89-18-2.57-27.06-.08-1.13.37-2.34-.49-3.36V89a7.89,7.89,0,0,0,0-6V78c1.07-6.29.93-12.69,1.59-19C-72.47,40.2-66,22.7-58.55,5.53c13.42-31,33.62-57,58.6-79.36C29.44-100.11,63.67-117.36,102.11-126c8.67-2,17.67-1.83,26.53-2.47,1.13-.08,2.34.37,3.36-.49h41c7,.86,14.1.87,21.11,1.6,19.26,2,37.21,8.65,54.66,16.57a229,229,0,0,1,74.9,54.67A226.8,226.8,0,0,1,379.22,51.69c1.9,9,1.66,18.29,2.29,27.46.12,1.62-.51,3.32.49,4.85v1c-1,2.15-.27,4.44-.5,6.65v15.66C381.73,109.54,381,111.83,382,114Z" transform="translate(76 129)"/><g class="cls-3"><path class="cls-4" d="M22.19,187.39V-30.25c0-13.23,2.19-15.33,16.27-15.33H152c8.59,0,10.69,2.45,10.42,10.25-.64,14.63,0,29.26,0,43.81,0,10.43,2.83,12.88,13.61,13h47.89c3.19,0,7.76-2.19,9.13,2.45s-1.18,7.1-4.2,10c-23.3,22.17-46.42,44.6-69.91,66.59A51.63,51.63,0,0,0,145.1,121c-3.29,9.37-7.41,18.4-11.06,27.6a25.84,25.84,0,0,0-1.78,21.36,26.5,26.5,0,0,0,5.85,9.41,27.94,27.94,0,0,0,9.27,6.38c0,3-2.28,2.54-4.11,2.54H24.47A4.23,4.23,0,0,1,22.19,187.39Z" transform="translate(76 129)"/><path class="cls-4" d="M172.6,239H20.91A19.91,19.91,0,0,1,12,236.35,19,19,0,0,1,5.46,230a17.84,17.84,0,0,1-.91-17.31,10.83,10.83,0,0,1,4.49-5,11.45,11.45,0,0,1,6.66-1.52H158c5.39,0,7,1.93,6.67,6.75a39.64,39.64,0,0,0,7.95,26Z" transform="translate(76 129)"/><path class="cls-4" d="M209.52,147.26l-4-3.41c-9.14-8.76-18.28-18.31-28-27.25-3.11-3-3.93-4.91,0-8.76q26.13-25.5,51.9-51.43c3.38-3.42,5.57-4.21,9.14,0,9.14,9.55,19,18.75,28.6,28,2.83,2.62,3.84,4.46.46,7.71-18.28,17.52-36.56,34.6-54.19,52A25.12,25.12,0,0,0,209.52,147.26Z" transform="translate(76 129)"/><path class="cls-4" d="M22.19,187.39H136.78c3.47,0,7.4,1.14,10.42-1.66a37.93,37.93,0,0,0,24.12-2.37c4.94-1.92,9.78-3.94,14.9-5.43a76,76,0,0,0,44.22-28.12c3.93,1.66,2.56,4.2,2.56,6.13v58.27a23.21,23.21,0,0,1-1.85,9.78,24.29,24.29,0,0,1-5.81,8.24,25.33,25.33,0,0,1-8.77,5.3A26.21,26.21,0,0,1,206.32,239a25.61,25.61,0,0,1-10.12-2,24.66,24.66,0,0,1-8.37-5.81,23.34,23.34,0,0,1-5.15-8.59,22.64,22.64,0,0,1-1-9.87c.73-23.65.73-23.65-23.76-23.65H32.42C28.86,189,24.93,191.07,22.19,187.39Z" transform="translate(76 129)"/><path class="cls-4" d="M274.21,21.45a44.73,44.73,0,0,1,16,8,42.78,42.78,0,0,1,11.39,13.43,19,19,0,0,1-.24,12.68,19.88,19.88,0,0,1-8.26,9.92,46.32,46.32,0,0,0-6.31,6.13c-2.64,3.07-4.56,2.28-7.12,0-9.14-9.28-19.19-18.48-29-27.59-3-2.81-3.38-4.82,0-7.71C257.77,29.86,263.25,21.71,274.21,21.45Z" transform="translate(76 129)"/><path class="cls-5" d="M223.22,3.92H187.68c-5.39,0-6.86-1.84-6.76-6.65v-34Z" transform="translate(76 129)"/><path class="cls-6" d="M160.26,170.05c-9.13,0-13-4.39-10.69-11.13,3.2-9.29,7.4-18.31,11.06-27.43,1.28-3.33,2.83-4,5.57-1.4,8.23,7.8,16.54,15.6,24.68,23.48,1.55,1.49,3.93,3.6,0,5.09C180.37,162.77,169.59,166.63,160.26,170.05Z" transform="translate(76 129)"/><path class="cls-2" d="M83.87,171.89A11.37,11.37,0,0,1,77,168.38c-5.49-5.52-11-11-16.36-16.65a7.5,7.5,0,0,1-2.16-2.63,7.45,7.45,0,0,1,2.16-9.19c3.75-3.51,7.77-2.11,11.7,0s6.3,9.81,12.06,8.23c4.2-1.14,7.4-6,11-9.37l15.9-14.37c4.39-4,9.14-5.43,14-.88s3.38,8.76-1,13.06L89.81,168.29a8.94,8.94,0,0,1-2.6,2.37,9.34,9.34,0,0,1-3.34,1.23Z" transform="translate(76 129)"/><path class="cls-2" d="M128.65,78.92a9.31,9.31,0,0,1-1.11,3.74,9.68,9.68,0,0,1-2.55,3L91.64,117a9,9,0,0,1-3.32,3,9.45,9.45,0,0,1-8.81,0,8.91,8.91,0,0,1-3.31-3c-5.12-5-10.15-10-15.17-15.07-3.66-3.68-4.94-7.71-.83-11.65a9.42,9.42,0,0,1,12.52,0c4,2.8,6.13,9.81,11.88,8.14,4.21-1.22,7.31-6.13,10.88-9.46,5.75-5.26,11.33-10.6,17.27-15.77a8.53,8.53,0,0,1,4.82-2.35,8.67,8.67,0,0,1,5.32.95,11.66,11.66,0,0,1,3.68,3,11,11,0,0,1,2.08,4.18Z" transform="translate(76 129)"/><path class="cls-2" d="M128.65,29.33a10.34,10.34,0,0,1-1.36,4.06,10.59,10.59,0,0,1-2.94,3.21C113,46.85,101.6,57.11,90.45,67.53a8.27,8.27,0,0,1-3,2.5,8.62,8.62,0,0,1-7.67,0,8.22,8.22,0,0,1-3-2.5C71.53,62.28,66,57.19,60.66,51.94a7.35,7.35,0,0,1-2.12-2.36,7,7,0,0,1-.41-6.08,7.29,7.29,0,0,1,1.8-2.6c3.75-3.95,7.86-3.24,12.43-.62s6.12,10.78,12.79,8.24c4.57-1.75,7.77-6.75,11.61-10.25,5.57-5,10.78-10.43,16.72-15A9.8,9.8,0,0,1,118,21.57a10,10,0,0,1,4.83.63A9.58,9.58,0,0,1,126.72,25,9,9,0,0,1,128.65,29.33Z" transform="translate(76 129)"/></g></svg>