<svg id="Capa_1" data-name="Capa 1" xmlns="http://www.w3.org/2000/svg" xmlns:xlink="http://www.w3.org/1999/xlink" viewBox="0 0 458 458"><defs><style>.cls-1{fill:none;}.cls-2{fill:#a0cc04;}.cls-3{clip-path:url(#clip-path);}.cls-4{fill:#fefefe;}.cls-5{fill:#fefefc;}</style><clipPath id="clip-path" transform="translate(79 136)"><rect class="cls-1" x="-15" y="-65" width="300" height="300"/></clipPath></defs><title>5. Aumento</title><path class="cls-2" d="M379,107v3c-1,7.45-.77,15-1.6,22.44-2,18.08-7.65,35.21-14.85,51.76a229.27,229.27,0,0,1-51.25,74.36c-31.65,30.5-68.88,50.94-111.91,60.38-9.52,2.09-19.33,2-29,2.57-1.45.1-3-.47-4.35.49h-3c-1.84-1-3.84-.27-5.76-.5H141.67c-2.22.23-4.51-.51-6.67.5h-2c-7.45-1-15-.95-22.44-1.57-14.36-1.18-27.91-5.71-41.32-10.6-35.6-13-65.9-34.06-91.2-62a227.67,227.67,0,0,1-54-103.36c-2-8.85-1.89-18-2.57-27.06-.08-1.13.37-2.34-.49-3.36V82a7.89,7.89,0,0,0,0-6V71c1.07-6.29.93-12.69,1.59-19C-75.47,33.2-69,15.7-61.55-1.47c13.42-31,33.62-57,58.6-79.36C26.44-107.11,60.67-124.36,99.11-133c8.67-2,17.67-1.83,26.53-2.47,1.13-.08,2.34.37,3.36-.49h41c7,.86,14.1.87,21.11,1.6,19.26,2,37.21,8.65,54.66,16.57a229,229,0,0,1,74.9,54.67A226.8,226.8,0,0,1,376.22,44.69c1.9,9,1.66,18.29,2.29,27.46.12,1.62-.51,3.32.49,4.85v1c-1,2.15-.27,4.44-.5,6.65v15.66C378.73,102.54,378,104.83,379,107Z" transform="translate(79 136)"/><g class="cls-3"><path class="cls-4" d="M273.51,234.74c-19.14,0-36.23-.18-53.32,0-7.68,0-10.14-3.1-10.11-10.26q.36-88.84,0-177.6c0-7.44,2.7-9.9,10.25-9.7,14.14.36,28.36.36,42.5,0,8.11-.25,10.81,1.85,10.81,10.27C273.29,109.44,273.51,171.45,273.51,234.74Z" transform="translate(79 136)"/><path class="cls-5" d="M112.51,31.15l111-60.37c6.35-3.49,5.08-8.5,2.95-13.53C223.49-49.63,220-56.32,215.79-65c23.54,3.62,43.88,10.78,64.72,16.48,5.06,1.38,5.41,4.28,3.19,8.47Q271.77-16.73,260.4,6.84c-4.19,8.47-6.52,3.54-9.33-.87C240-11.3,239.85-11.41,221.14-1.17c-39.42,21.64-78.73,43.46-118.1,65-4.59,2.57-9.43,4.54-16.22,7.7V.89l-70.38,48a123.19,123.19,0,0,0-10.51,7.7C-2.18,64-5.51,58.36-10.89,52.38c-5.89-6.6-5.22-9.71,1.57-14.33Q47.23-.83,103.45-40.15c8.24-5.68,9.46-3.14,9.35,5.13C112.32-13.59,112.51,8,112.51,31.15Z" transform="translate(79 136)"/><path class="cls-4" d="M180.8,159.15c0,21.18-.35,42.41.19,63.48.22,8.83-1.87,13-12.11,12.29-12.68-.77-25.44-.3-38.23,0-8.44.18-12.25-2.56-12.17-11.29q.67-65,.16-129.83c0-8.47,2.54-11.78,11.76-11.29,13.17.59,26.47.62,39.64,0,8.62-.44,10.81,2.82,10.68,10.52-.38,22.13,0,44.23,0,66.35Z" transform="translate(79 136)"/><path class="cls-4" d="M24.8,185.33c0-13.63.24-27.23,0-40.86-.19-7.7,2.95-11,11.14-10.75,14.16.38,28.39.38,42.53,0,8.11-.29,11.35,2.28,11.24,10.44q-.57,39.56,0,78.93c0,8.5-2.7,12-11.76,11.78-13.68-.38-27.39-.33-41.2,0-9.73.26-12.68-3.82-12.17-12.83C25.31,209.87,24.77,197.63,24.8,185.33Z" transform="translate(79 136)"/></g></svg>