<svg id="Capa_1" data-name="Capa 1" xmlns="http://www.w3.org/2000/svg" viewBox="0 0 458 458"><defs><style>.cls-1{fill:#a0cc04;}.cls-2{fill:#fefefe;}</style></defs><title>6. Ida y vuelta</title><path class="cls-1" d="M378,100v3c-1,7.45-.77,15-1.6,22.44-2,18.08-7.65,35.21-14.85,51.76a229.27,229.27,0,0,1-51.25,74.36c-31.65,30.5-68.88,50.94-111.91,60.38-9.52,2.09-19.33,2-29,2.57-1.45.1-3-.47-4.35.49h-3c-1.84-1-3.84-.27-5.76-.5H140.67c-2.22.23-4.51-.51-6.67.5h-2c-7.45-1-15-.95-22.44-1.57-14.36-1.18-27.91-5.71-41.32-10.6-35.6-13-65.9-34.06-91.2-62a227.67,227.67,0,0,1-54-103.36c-2-8.85-1.89-18-2.57-27.06-.08-1.13.37-2.34-.49-3.36V75a7.89,7.89,0,0,0,0-6V64c1.07-6.29.93-12.69,1.59-19C-76.47,26.2-70,8.7-62.55-8.47c13.42-31,33.62-57,58.6-79.36C25.44-114.11,59.67-131.36,98.11-140c8.67-2,17.67-1.83,26.53-2.47,1.13-.08,2.34.37,3.36-.49h41c7,.86,14.1.87,21.11,1.6,19.26,2,37.21,8.65,54.66,16.57a229,229,0,0,1,74.9,54.67A226.8,226.8,0,0,1,375.22,37.69c1.9,9,1.66,18.29,2.29,27.46.12,1.62-.51,3.32.49,4.85v1c-1,2.15-.27,4.44-.5,6.65V93.31C377.73,95.54,377,97.83,378,100Z" transform="translate(80 143)"/><path class="cls-1" d="M377.17,94.12q0-8.58-.11-17.17c.36-.67.67-.66.94,0V94C377.83,94.79,377.55,94.83,377.17,94.12Z" transform="translate(80 143)"/><path class="cls-1" d="M139.94,314.07l17.18.1c.71.38.67.66-.12.83H140Q138.94,314.61,139.94,314.07Z" transform="translate(80 143)"/><path class="cls-1" d="M-80,69c1.46,2,1.16,4,0,6Z" transform="translate(80 143)"/><path class="cls-1" d="M378,77h-.47l-.47,0c.17-2-.7-4.18.94-6Z" transform="translate(80 143)"/><path class="cls-1" d="M377.17,94.12A5.72,5.72,0,0,1,378,94v6C376.36,98.23,377.17,96.12,377.17,94.12Z" transform="translate(80 143)"/><path class="cls-1" d="M139.94,314.07a4.85,4.85,0,0,1,.06.93h-6C135.75,313.25,138,314.3,139.94,314.07Z" transform="translate(80 143)"/><path class="cls-1" d="M157,315l.12-.83c1.68,0,3.46-.69,4.88.83Z" transform="translate(80 143)"/><path class="cls-2" d="M49.31,159c-13.32,0-26.64,0-40,0C-.87,159-5.28,154.9-6.12,144.78c-.91-10.94-1.75-21.89-2.6-32.84-1-13.51,6.19-21.6,19.74-22.09,14.44-.53,14.44-.53,22.73,11.11,3.77,5.28,7.51,10.59,11.3,15.86,3.43,4.76,4.94,4.74,8.45-.16,5.34-7.44,10.72-14.85,15.9-22.39,2.19-3.19,4.79-4.78,8.75-4.49,5,.37,10-.42,14.92.78,8.53,2.08,13.74,7.89,13.84,16.63.15,13.32-1.18,26.59-2.74,39.81-1,8.23-5.58,11.9-13.89,12C76.63,159.08,63,159,49.31,159Z" transform="translate(80 143)"/><path class="cls-2" d="M248.37,159c-13.32,0-26.64,0-40,0-10.1-.05-14.61-4.29-15.38-14.36-.83-10.79-1.61-21.57-2.41-32.36-1-14.2,6.14-22.37,20.31-22.37,17.23,0,12.17-2.22,21.85,10.81,4.17,5.61,8.15,11.37,12.18,17.08,2.38,3.37,4.64,3.3,7,0,5.58-7.88,11.28-15.67,16.76-23.62,2.09-3,4.53-4.61,8.31-4.34,5.29.38,10.65-.52,15.89.95,8.11,2.26,12.93,7.78,13.14,16.13.34,13.5-1.17,26.94-2.66,40.32-.92,8.22-5.64,11.72-14.06,11.78C275.69,159.07,262,159,248.37,159Z" transform="translate(80 143)"/><path class="cls-2" d="M206.43-31.74c1.59-3.7,2-6.71,4.51-8.78,2.8-2.29,5.9-3,9.31-1.59s5.82,4.27,5.51,8.13c-.85,10.27-1.78,20.56-3.24,30.77-.77,5.39-5.88,8-11.49,6.41Q197.82-.49,184.7-4.53c-5.5-1.69-7.86-5.36-7.07-10.44.75-4.85,4.24-7.27,10.26-7.15.66,0,1.31,0,2,0,.6-1.78-1-2.28-1.84-3a64.69,64.69,0,0,0-97.79,13.5c-.45.7-.83,1.44-1.28,2.14-3.29,5.1-8.22,6.65-12.75,4-4.68-2.7-5.69-8-2.57-13.51,25.87-45.55,90.65-54.63,128.2-17.94C203.52-35.33,204.92-33.48,206.43-31.74Z" transform="translate(80 143)"/><path class="cls-2" d="M90.29,215.08c-.27,1.46-.39,2.39-.61,3.3-1.36,5.61-5.2,8.44-10.42,7.7-4.82-.68-7.77-4.48-7.29-10.17.77-9.11,1.79-18.21,2.87-27.3.83-7,5.47-10.18,12.32-8.27,8.65,2.41,17.24,5,25.81,7.66,5.54,1.7,8.11,5.85,7,10.93-1,4.82-5.46,7.41-11.15,6.51-.61-.09-1.23-.13-2.76-.3,9.93,10.22,21.13,16.35,34.21,18.79C167.56,229,193.1,217.66,208,194c1.64-2.59,3.23-5.16,6.41-5.89,3.67-.83,7-.1,9.43,3,2.68,3.42,2.62,7,.47,10.69A81.13,81.13,0,0,1,184.14,237a82.27,82.27,0,0,1-89.93-18.18C93.05,217.67,91.85,216.57,90.29,215.08Z" transform="translate(80 143)"/><path class="cls-2" d="M248.3,12.83A33.24,33.24,0,0,1,282,46.18,33.5,33.5,0,1,1,215,46,32.9,32.9,0,0,1,248.3,12.83Z" transform="translate(80 143)"/><path class="cls-2" d="M15.83,46c0-18.89,14.59-33.23,33.69-33.18A33.27,33.27,0,0,1,82.83,46.11,33.86,33.86,0,0,1,49.17,79.83,33.41,33.41,0,0,1,15.83,46Z" transform="translate(80 143)"/></svg>