<?xml version="1.0" encoding="utf-8"?>
<!-- Generator: Adobe Illustrator 23.0.0, SVG Export Plug-In . SVG Version: 6.00 Build 0)  -->
<svg version="1.1" id="Capa_1" focusable="false" xmlns="http://www.w3.org/2000/svg" xmlns:xlink="http://www.w3.org/1999/xlink"
	 x="0px" y="0px" viewBox="0 0 512 512" style="enable-background:new 0 0 512 512;" xml:space="preserve">
<style type="text/css">
	.st0{fill:#FFFFFF;}
	.st1{fill:#193C4D;}
</style>
<circle class="st0" cx="256" cy="256.9" r="256"/>
<path class="st1" d="M256,512C114.6,512,0,397.7,0,256.7S114.5,1.4,256,1.4s256,114.3,256,255.3S397.4,512,256,512z M285.8,364.2
	l-77.9-74.5h188.5c13.7,0,24.8-11,24.8-24.7v-16.5c0-13.7-11-24.7-24.8-24.7H207.9l77.9-74.5c10-9.6,10.2-25.5,0.4-35.3l-11.4-11.2
	c-9.7-9.7-25.4-9.7-35,0l-137,136.5c-9.7,9.7-9.7,25.3,0,34.9l137,136.6c9.7,9.7,25.4,9.7,35,0l11.4-11.2
	C296,389.7,295.8,373.7,285.8,364.2z"/>
</svg>
