<svg id="Capa_1" data-name="Capa 1" xmlns="http://www.w3.org/2000/svg" viewBox="0 0 936.19 332.19"><defs><style>.cls-1{fill:#fff;}.cls-2{fill:#1f1e21;}.cls-3{fill:#2a271f;}.cls-4{fill:#272520;}.cls-5{fill:#242220;}.cls-6{fill:#222020;}.cls-7{fill:#232220;}.cls-8{fill:#252320;}.cls-9{fill:#2c291f;}.cls-10{fill:#2b281f;}.cls-11{fill:#262420;}.cls-12{fill:#232120;}.cls-13{fill:#36311d;}.cls-14{fill:#443c1b;}.cls-15{fill:#29271f;}.cls-16{fill:#201e21;}.cls-17{fill:#39341d;}.cls-18{fill:#3a351d;}</style></defs><title>Logo MELAR</title><path class="cls-1" d="M150,251q-231.75,0-463.5.09c-3.75,0-4.6-.84-4.59-4.59q.16-161.74,0-323.5c0-3.42.68-4.1,4.1-4.09q464,.15,928,0c3.42,0,4.1.67,4.1,4.09q-.18,162,0,324c0,3.42-.68,4.1-4.1,4.09Q382,250.94,150,251Z" transform="translate(318.1 81.09)"/><path class="cls-2" d="M-124.86,166.88H-156c3.76-4.25,2-7.86.29-11.78-9.18-21.57-18.15-43.23-27.23-64.84-.53-1.26-.55-2.9-2.55-3.91v5.11c0,35.32.09,70.65-.07,106,0,8.39.11,16.63,3.74,24.4,1.09,2.31,1.1,3.7-2.11,3.68q-20-.1-40,0c-2.87,0-3.05-1.27-2.06-3.32,4.44-9.26,3.5-19.16,3.51-28.95,0-54.15-.06-108.3.07-162.44,0-8.39-.11-16.65-3.6-24.45-1.3-2.91-.37-3.61,2.62-3.58,11.33.14,22.66.19,34,0,3.24-.06,4.55,1.18,5.79,4q20.12,45.66,40.5,91.19c.65,1.46.82,3.25,2.7,4.37l25.43-58q8.33-18.95,16.64-37.9c.78-1.78,1.16-3.69,3.95-3.66,13,.12,26,0,39.79,0-8.09,16-5,32.48-5.11,48.62-.32,48.48-.06,97-.16,145.45,0,8.53-.15,17,3.77,24.87,1.22,2.45.84,3.81-2.5,3.77-13-.16-26-.11-39,0-2.86,0-4.29-.69-2.78-3.7,4.23-8.37,3.73-17.45,3.84-26.38.36-27.65.5-55.3.7-82.94.06-8.56,0-17.12,0-27.06-4,9.18-7.53,17.17-11,25.19-6.4,14.8-12.74,29.63-19.16,44.42C-127.64,158.87-130.1,162.57-124.86,166.88Z" transform="translate(318.1 81.09)"/><path class="cls-2" d="M403.38,226c7.28-13.45,5-27.3,5.07-40.83.15-54.16,0-108.32.15-162.48a52.24,52.24,0,0,0-3.1-16.55c-.55-1.68-1.24-3.39,1.66-3.29,19.61.69,39.37-2,58.8,2.24,34.09,7.49,58.82,32.87,63.32,67,3.92,29.74-6.56,54.32-31,72.37-7.25,5.36-7.18,5.21-3.59,13.33,9.28,21,20.07,41.28,28.79,62.53,1.61,3.91,1.71,5.42-3.29,5.29-11.49-.3-23-.2-34.49,0-3.42.06-5.22-.61-3.66-4.3,2.89-6.88,1.23-13.06-1.92-19.48-5.94-12.09-11.32-24.44-17-36.67-2.21-4.79-11.88-7.38-16.29-4.52-1.39.91-1.34,2.19-1.34,3.51,0,15.33-.09,30.66.05,46,.05,4.56,2.43,8.61,3.85,12.84.89,2.65.18,3.12-2.3,3.11C432.94,226,418.79,226,403.38,226Z" transform="translate(318.1 81.09)"/><path class="cls-2" d="M232.2,225.47c13-27.41,16.15-56.63,23.22-84.74,10.07-40,19-80.26,28.62-120.35,1.25-5.2-.75-9.44-2.11-13.94-.88-2.89-.44-3.69,2.67-3.66,14.66.13,29.33.1,44,0,2.87,0,4.15.55,2.73,3.62-3,6.53-2.2,13-.56,19.86Q352.27,116.6,373.26,207c1.28,5.47,4.41,10,6.78,14.94,1.23,2.53,1,3.56-2.05,3.54q-19.25-.1-38.5,0c-2.74,0-3.38-1.17-2.19-3.3,2.44-4.34,1.44-8.6.34-13q-4.58-18.39-8.8-36.88c-.71-3.11-1.95-4.29-5.31-4.22-11.33.23-22.66.16-34,0-2.86,0-4.45.48-5.16,3.72-3.14,14.29-6.53,28.54-10,42.77-.76,3.13,1.1,5.44,1.87,8.07.58,2,.39,2.81-1.78,2.8Z" transform="translate(318.1 81.09)"/><path class="cls-2" d="M78,44C59.28,36.45,40,40.59,21,39.43c-4.05-.25-5,1.2-4.93,5,.27,9.15.2,18.32,0,27.48-.06,3.19.77,4.36,4.16,4.28,10.27-.24,20.67,1,30.4-3.65,2.72-1.29,3.4-.32,3.38,2.45q-.13,20,0,40c0,3-1,3.51-3.49,2.35-9.92-4.61-20.49-3.42-30.93-3.56-2.5,0-3.52.67-3.51,3.36q.14,33.74,0,67.46c0,2.61.79,3.45,3.41,3.43,14-.11,28,.23,42-.22,4.52-.14,9-2.05,13.46-3.41,2.89-.9,3.57,0,3.1,2.73-2,11.81-4,23.62-5.81,35.45-.38,2.47-1.53,2.9-3.63,2.9q-45.23,0-90.45,0c-2.64,0-3.85-.66-2.54-3.46,3.92-8.43,3.58-17.42,3.57-26.43q-.11-83.94.07-167.9c0-7.18-2.06-13.77-3.71-20.51-.74-3-.9-4.46,3.05-4.44,29.82.14,59.63.08,89.45.07,2,0,3.76-.32,4.21,2.71,1.8,12,3.9,24,5.87,36A14.3,14.3,0,0,1,78,44Z" transform="translate(318.1 81.09)"/><path class="cls-2" d="M211.17,183.07c-2.3,14.16-4.4,26.78-6.36,39.43-.53,3.45-2.91,3-5.22,3h-81c-2.83,0-5.67-.1-8.5,0s-3.49-1-2.34-3.56c3.48-7.81,3.49-16.09,3.47-24.45q-.15-84.75,0-169.5c0-7.44-.7-14.6-3.54-21.45-1.19-2.88-.58-3.79,2.57-3.76,13.16.11,26.33.08,39.5,0,2.37,0,3.55.46,2.35,3-4.62,9.92-3.64,20.51-3.65,31,0,48.67,0,97.33-.09,146,0,4,.8,5.53,5.15,5.3,7.31-.4,14.66-.18,22-.09C187.33,188.16,199.16,188.75,211.17,183.07Z" transform="translate(318.1 81.09)"/><path class="cls-3" d="M45.39-44v-12.2c0-1.08-.64-2.46,1.25-2.61s2,1,2,2.56c-.07,6.64,0,13.29,0,19.93,0,1.19.22,2.35-1.55,2.47-1.47.09-1.9-.72-2.42-1.91-1.86-4.22-3.88-8.38-6.23-13.38-1.47,4.55-.59,8.43-.83,12.2-.1,1.43.44,3.21-2,3-2.21-.15-1.41-1.89-1.42-3-.07-6.31-.06-12.62,0-18.93,0-1.14-.76-2.8,1.46-3,1.76-.15,2.13,1,2.7,2.29,1.94,4.29,4,8.53,6,12.78Z" transform="translate(318.1 81.09)"/><path class="cls-4" d="M-37.6-48.38c1.59-3.39,2.85-6,4.06-8.69.53-1.15,1.15-2,2.6-1.67s1.14,1.42,1.14,2.38c0,6.82,0,13.64.05,20.46,0,1.11-.1,2-1.47,2-1.71.08-1.73-1-1.71-2.26.06-4.26,0-8.53,0-13-3.1,1.17-1.53,5.88-4.75,5.82-3-.05-1.65-4.34-4.36-5.68-.84,4.3-.37,8.51-.31,12.69,0,1.15.49,2.39-1.38,2.44-1.58.05-1.88-.78-1.87-2.18,0-6.82,0-13.64,0-20.46,0-1-.15-2,1.25-2.26s2.06.39,2.61,1.66C-40.58-54.4-39.22-51.77-37.6-48.38Z" transform="translate(318.1 81.09)"/><path class="cls-5" d="M267.5-48.42c1.56-3.24,2.87-5.86,4.09-8.51.51-1.12,1-2.11,2.47-1.88,1.87.28,1.17,1.55,1.17,2.65,0,6.66-.05,13.32.06,20,0,1.28.28,2.27-1.48,2.33s-1.71-1-1.7-2.29c0-4.23,0-8.45,0-13.48-4.74,7.18-4.74,7.18-9.26-.42,0,5.33,0,9.51,0,13.69,0,1.45,0,2.69-2,2.47s-1.13-1.55-1.13-2.58q0-9.73,0-19.47c0-1-.9-2.39.92-2.84s2.25.87,2.83,2.09C264.74-54.15,266-51.62,267.5-48.42Z" transform="translate(318.1 81.09)"/><path class="cls-5" d="M384.5-46.36c0,7.08-4.37,12.51-10.06,12.53s-10.28-5.54-10.28-12.39,4.61-12.56,10.15-12.62S384.51-53.26,384.5-46.36Z" transform="translate(318.1 81.09)"/><path class="cls-6" d="M314.88-48.82q0,6.21,0,12.43c0,1.09.5,2.44-1.4,2.5-1.71,0-1.7-1-1.69-2.29.05-6.64,0-13.29.05-19.93,0-1.09-.4-2.43,1.37-2.67,1.55-.22,1.95.93,2.44,2A92,92,0,0,0,323-43.1V-56.18c0-1.12-.38-2.48,1.41-2.57S326-57.46,326-56.32q0,10,0,19.93c0,1.11.32,2.42-1.5,2.5-1.44.07-2-.8-2.48-2-2-4.47-4.09-8.9-6.15-13.34Z" transform="translate(318.1 81.09)"/><path class="cls-7" d="M-78.46-46.72c.21-7,5-12.43,10.57-12.11s10,6.26,9.73,13c-.26,7.11-4.82,12.27-10.6,12S-78.66-39.77-78.46-46.72Z" transform="translate(318.1 81.09)"/><path class="cls-8" d="M124.15-46a64.93,64.93,0,0,0-.08-8.49c-.57-4.21,1.49-4.78,4.84-4.21,5.83,1,9.71,7.21,8.84,14.22S132.9-33.61,127-33.77c-2-.06-3-.47-2.88-2.78C124.29-39.71,124.15-42.88,124.15-46Z" transform="translate(318.1 81.09)"/><path class="cls-9" d="M150.43-46.61v-5c0-7.66.95-8.45,8.4-7.3,1.34.21,2.23.46,2.16,2-.1,2-1.48,1.07-2.5,1.19-1.71.21-4.2-1.34-4.61,2-.36,3,1.41,3.24,3.65,3.08,1.38-.1,1.6.85,1.61,1.94,0,1.38-.87,1.51-2,1.53-6.28.15-2.47,4.87-3.17,7.43-.84,3.09,1.77,2.73,3.76,2.84,1.13.06,3-.93,3.16,1.21.21,2.53-1.9,1.67-3.2,1.81s-2.34-.1-3.49,0c-3.05.41-4.16-.72-3.85-3.86C150.66-40.6,150.43-43.62,150.43-46.61Z" transform="translate(318.1 81.09)"/><path class="cls-8" d="M192.62-33.88c-1.88.09-1.67-.95-1.32-2.24,1.89-6.89,3.78-13.77,5.52-20.7.34-1.35.73-2,2.21-2s1.8.76,2.12,2.09c1.67,6.77,3.53,13.49,5.28,20.23.25,1,1.43,2.26-.67,2.63-1.43.25-2.11-.48-2.4-1.85-.4-2-1-3.86-1.39-5.81-.36-1.68-1.11-2.62-3-2.6s-2.61,1-3,2.65c-.41,1.95-1,3.86-1.46,5.8C194.27-34.65,193.91-33.8,192.62-33.88Z" transform="translate(318.1 81.09)"/><path class="cls-9" d="M293.12-33.79c-4.12,1-5.1-1.15-4.78-5.4a121,121,0,0,0,0-15.47c-.17-3.2.62-4.73,4-4.24a28,28,0,0,0,4,0c1.42,0,2.72.06,2.59,2s-1.57,1-2.55,1.12c-1.71.23-4.2-1.29-4.55,2.11-.33,3.1,1.55,3.13,3.71,3,1.41-.07,1.56.95,1.54,2,0,1.87-1.46,1.35-2.54,1.47-5.31.59-1.84,4.64-2.62,7-.67,2,.26,3.36,2.85,3.33,1.35,0,3.91-1.37,4,1.22.12,3-2.71,1.27-4.18,1.76A6.72,6.72,0,0,1,293.12-33.79Z" transform="translate(318.1 81.09)"/><path class="cls-7" d="M19.69-33.89c-1.55.25-1.77-.9-2.06-2.09-.47-1.93-1.17-3.82-1.53-5.77S14.75-44.17,13-44.16a2.56,2.56,0,0,0-2.74,2.3c-.56,2.25-1.11,4.52-1.73,6.75-.34,1.2-1.36,1.4-2.4,1.17-1.68-.37-.73-1.43-.51-2.27C7.4-43.12,9.23-50,11-56.93c.26-1.06.42-1.9,1.75-1.9s2.14.1,2.53,1.66C17-50.08,19-43,20.84-36,21.12-34.95,21.38-33.95,19.69-33.89Z" transform="translate(318.1 81.09)"/><path class="cls-7" d="M93.81-35.22c.16.8-.17,1.22-1,1.31-1.07.11-2,0-2.36-1.26-.49-1.76-1-3.52-1.38-5.3S88.6-44.1,86-44.18s-2.83,1.66-3.26,3.5-1,3.85-1.6,5.76c-.4,1.32-1.55,1.18-2.46.92-1.16-.33-.62-1.31-.43-2,1.83-6.9,3.72-13.79,5.47-20.71.33-1.31.67-2.09,2.17-2.09s1.9.54,2.24,2c1.68,6.94,3.55,13.83,5.36,20.74A8,8,0,0,0,93.81-35.22Z" transform="translate(318.1 81.09)"/><path class="cls-10" d="M-16.57-46.5c0-2.83.39-5.73-.09-8.48-.79-4.45,1.82-4.22,4.59-3.74,3.79.66,6.51,2.76,7,6.77s-1.33,7-5.26,7.92c-3.3.75-2.81,2.91-3.17,5.21-.26,1.63,1.95,4.75-1.35,4.79-3.73,0-1.24-3.29-1.56-5C-16.9-41.44-16.57-44-16.57-46.5Z" transform="translate(318.1 81.09)"/><path class="cls-11" d="M402.88-33.81c-3.15-.13-5.38-1.49-6-4.76-.16-.81-1-2,.51-2.42,1.05-.26,2.41-.62,2.56,1.24.21,2.63,1.79,3.57,4.09,2.74,2.52-.91,2.67-3.16,2.18-5.41-.45-2-2-3.41-3.34-4.85-1.61-1.7-3.18-3.48-3.55-5.86a4.52,4.52,0,0,1,3.77-5.53c2.42-.53,4.2.74,4.95,3.07.29.92,1.25,2.36-.52,2.92-1.16.36-2.38.31-2.43-1.46,0-1.1-.35-2.15-1.7-1.57s-1.34,1.88-.59,2.92c1.63,2.28,3.49,4.39,5.12,6.67a8.14,8.14,0,0,1,.64,8.92A5.8,5.8,0,0,1,402.88-33.81Z" transform="translate(318.1 81.09)"/><path class="cls-12" d="M-107.17-46.1c-.06-8.19,6.21-14.2,13.11-12.46,1.46.36,3.75.47,3.1,2.94-.76,2.88-2.46.39-3.44.17-3.49-.8-5.93.62-7.69,3.26a10.13,10.13,0,0,0-.09,11.74c1.78,2.81,4.36,3.85,7.71,3.42,1.12-.14,2.83-2.66,3.46.14.6,2.6-1.83,2.71-3.61,3C-101.55-33-107.12-38.41-107.17-46.1Z" transform="translate(318.1 81.09)"/><path class="cls-13" d="M344.38-44.64c0-2.32-.06-4.65,0-7,.08-2.6-.11-4.86-3.69-4-1.32.33-1.86-.22-1.85-1.46,0-.87.29-1.74,1.32-1.76,3.83,0,7.65,0,11.48,0,1.34,0,1.53,1,1.46,2.09s-.61,1.42-1.63,1.17c-4-1-3.91,1.57-3.87,4.27.05,4.82,0,9.65,0,14.47,0,1.23.6,2.86-1.53,2.95s-1.73-1.48-1.73-2.77v-8Z" transform="translate(318.1 81.09)"/><path class="cls-14" d="M246.7-46.2c0,3.15,0,6.31,0,9.46,0,1.27.44,2.8-1.64,2.92s-1.82-1.27-1.81-2.66c.05-6.47,0-13,.05-19.43,0-1.24-.59-2.87,1.54-2.94,2.48-.08,1.84,1.79,1.85,3.18C246.72-52.51,246.7-49.36,246.7-46.2Z" transform="translate(318.1 81.09)"/><path class="cls-15" d="M220.12-46.19c0-3.32,0-6.64,0-10,0-1.1-.46-2.51,1.33-2.61,2.11-.13,1.76,1.46,1.76,2.76,0,4.81.21,9.63-.08,14.42-.23,3.63.76,5.34,4.63,4.73,1.16-.18,3-.72,3,1.42,0,2-1.8,1.51-3,1.61-7.55.58-7.55.57-7.55-6.91v-5.47Z" transform="translate(318.1 81.09)"/><path class="cls-16" d="M61.74-46.21c0-3.5.06-7,0-10.49,0-1.16,0-2,1.34-2.15,1.65-.19,1.84.83,1.84,2.17q-.06,10.24,0,20.5c0,1.23.11,2.35-1.67,2.3s-1.52-1.06-1.47-2.33c.13-3.33,0-6.67,0-10Z" transform="translate(318.1 81.09)"/><path class="cls-17" d="M45-61.88c-1.8,3.19-4.13,1.48-6,1.71-.2,0-.76-.88-.68-1,.37-.49.91-1.17,1.39-1.18A52.43,52.43,0,0,1,45-61.88Z" transform="translate(318.1 81.09)"/><path class="cls-18" d="M65.58-61.9A2.38,2.38,0,0,1,63.66-60c-.52.1-1.41,0-1.09-1a2.27,2.27,0,0,1,1.56-1.74C64.82-62.88,65.43-62.82,65.58-61.9Z" transform="translate(318.1 81.09)"/><path class="cls-1" d="M445.49,81.54c0-13.32,0-26.65,0-40,0-2.34-.07-4.29,3.28-4.08C475,39.15,495.3,60,494.07,83.93c-1,19.09-16.13,36.4-36.54,41-12,2.72-12,2.72-12-9.42Z" transform="translate(318.1 81.09)"/><path class="cls-1" d="M307.06,66.07q2.64,11.12,5.29,22.22c3.1,12.92,6.18,25.85,9.37,38.75.71,2.9.37,4.14-3.11,4-8-.21-16-.09-24,.14-3.31.1-3.85-.73-3-4,2.65-10.12,4.9-20.34,7.31-30.53s4.85-20.34,7.27-30.51Z" transform="translate(318.1 81.09)"/><path class="cls-1" d="M381.36-46.36c0,5.08-3.22,9.28-7.12,9.16-3.72-.12-6.75-4.11-6.83-9-.08-5,3.21-9.26,7.13-9.14C378.27-55.22,381.32-51.21,381.36-46.36Z" transform="translate(318.1 81.09)"/><path class="cls-1" d="M-75.15-46.13c0-5.34,2.92-9.27,6.93-9.19,3.65.07,7,4.3,7,8.9,0,4.9-3.41,9.32-7.19,9.22S-75.12-41.09-75.15-46.13Z" transform="translate(318.1 81.09)"/><path class="cls-1" d="M127.17-46.5c0-2,0-4,0-6,0-.94-.37-2.13.67-2.71s2.25.07,3.2.74c4.39,3.11,4.33,13.3-.06,16.51a3.25,3.25,0,0,1-2.75.85c-1.58-.43-1-1.88-1.05-2.93C127.11-42.18,127.17-44.34,127.17-46.5Z" transform="translate(318.1 81.09)"/><path class="cls-1" d="M199.06-47.35c-.89,0-1.07-.67-1-1.31s.31-1.61.65-1.69c1.15-.28,1.17.77,1.25,1.54S199.9-47.51,199.06-47.35Z" transform="translate(318.1 81.09)"/><path class="cls-1" d="M13.43-51.2c.76,1.44,1.47,2.71,0,4a.94.94,0,0,1-.89-.16C11.54-48.9,12-50.09,13.43-51.2Z" transform="translate(318.1 81.09)"/><path class="cls-1" d="M85.14-51.6c2,1.61,2.22,2.78,1.5,4.05a1.27,1.27,0,0,1-1.24.14C84.07-48.57,85.28-49.76,85.14-51.6Z" transform="translate(318.1 81.09)"/><path class="cls-1" d="M-13.75-51.1c.55-1.66-.81-4.12,1.7-4.18s3.79,2,3.71,4.36C-8.42-48.8-9.65-46.85-12-47-14.92-47.24-12.8-50-13.75-51.1Z" transform="translate(318.1 81.09)"/></svg>