<svg id="Capa_1" data-name="Capa 1" xmlns="http://www.w3.org/2000/svg" viewBox="0 0 1000 360"><defs><style>.cls-1{fill:#2d4184;}.cls-2{fill:#1a254d;}.cls-3{fill:#19254c;}.cls-4{fill:#fefefe;}.cls-5{fill:#314487;}.cls-6{fill:#fff;}.cls-7{fill:#727fad;}.cls-8{fill:#0a1e54;}.cls-9{fill:#b8bed5;}.cls-10{fill:#aab2cd;}.cls-11{fill:#949fc1;}.cls-12{fill:#2d4185;}</style></defs><title>Logo FORD</title><path class="cls-1" d="M111-80h78c1.71,1,3.58.47,5.36.47,21,0,41.95.22,62.84,1.81q48.3,3.66,96.18,11.29c45.29,7.29,90,17.16,133.63,31.34C523.42-23.26,558.48-8.38,590.7,12.58c13.17,8.56,25.44,18.33,36,30C639.34,56.69,649.38,72.16,650,92v16c-1.4,26.46-17.12,44.72-35.53,61.2-25,22.42-54.57,37.44-85.33,50.16-58.07,24-118.77,38.17-180.7,47.73-29,4.48-58.05,7.85-87.22,10.54-9.93.91-19.93,1.09-29.9,1.26-12.64.21-25.28,1-37.94.61-6.46.29-12.95-.62-19.38.5H126c-6.41-1.12-12.87-.21-19.3-.5-22.13.06-44.29-.24-66.34-1.84-28.72-2.09-57.3-5.68-85.78-10.07-36.74-5.66-73.19-12.69-109-22.75-42.78-12-84.47-26.87-123.16-49.15-17.7-10.19-34.07-22.26-48-37.22-13.28-14.23-23.73-30-24.39-50.47V92c2.09-30.61,21.61-50.21,43.57-67.93,24.07-19.43,51.59-33,80-44.67,45.5-18.66,92.84-31,141.05-40.19,32.89-6.29,66-10.95,99.32-14.3q34.31-3.47,68.72-4.09C92.11-79.37,101.6-78.66,111-80Z" transform="translate(350 80)"/><path class="cls-2" d="M106,280a5,5,0,0,0-.13-.86c6.71.12,13.49-1.09,20.13.86Z" transform="translate(350 80)"/><path class="cls-3" d="M194.13,279.14a6.15,6.15,0,0,0-.13.86H174C180.64,278.06,187.42,279.26,194.13,279.14Z" transform="translate(350 80)"/><path class="cls-4" d="M152.14,264.14A1236.07,1236.07,0,0,1,19.4,257.9C-50.79,250.84-120,238.78-187,216.06c-32.53-11-63.93-24.63-92.37-44.25-13.37-9.22-25.62-19.72-35.21-33-21.14-29.25-19.17-61.16,5-87.93,19.58-21.68,43.94-36.41,69.85-49C-202.49-16.22-163.12-28.22-123-37.91-82.48-47.69-41.47-54.4-.11-59.21A1321.89,1321.89,0,0,1,152-67.78,1332.82,1332.82,0,0,1,304.6-59.26c57.65,6.62,114.49,17.12,170,34.16,37,11.35,72.73,25.65,105.27,47,15.27,10,29.25,21.55,40,36.55,20.4,28.6,18.41,60-4.94,86.34-19.39,21.87-43.66,36.71-69.57,49.33-42.13,20.52-86.78,33.4-132.28,43.65-45.21,10.18-91,16.7-137.11,20.95C234.76,262.54,193.5,264.43,152.14,264.14Z" transform="translate(350 80)"/><path class="cls-5" d="M152.77-53.47A1316.85,1316.85,0,0,1,289.5-46.86C344-41.24,398.05-32.6,451-18.08,479.74-10.21,508-.73,534.9,12c23.41,11.1,45.73,24,63.42,43.51a73.63,73.63,0,0,1,14.68,23c6.51,17,5.15,33.2-4.35,48.8-8.87,14.55-21.26,25.56-35.09,35-31.63,21.69-66.95,35.3-103.33,46.44-43.05,13.18-87.07,21.83-131.58,28.3-70.41,10.24-141.24,13.73-212.3,12.56-59-1-117.8-5.41-176.12-14.81C-104.72,226.06-158.89,214-210.66,193c-25.37-10.3-49.7-22.57-70.84-40.35-9.76-8.21-18.37-17.46-24.14-29-10.14-20.24-8.9-39.76,4-58.45,12.35-17.85,29.36-30.33,47.84-40.89,43.31-24.77,90.51-39,138.75-50.24,42.7-9.95,86-16.38,129.55-20.87A1323.64,1323.64,0,0,1,152.77-53.47Z" transform="translate(350 80)"/><path class="cls-6" d="M376.13,112.18Q398.68,79.52,420,46.05c1.8-2.83,3.55-4.27,7.1-4.13,7,.26,14-.05,21,0,1.42,0,3.29-.69,4.12.87s-.74,2.78-1.52,4C434.79,71.15,418.81,95.48,403.05,120c-10.26,15.94-20.22,32.08-30.3,48.15a32.89,32.89,0,0,0-4.52,9.4c-1.23,5.06,1.53,8.58,6.74,8.62s9.57-2.51,13.68-5.42A187.71,187.71,0,0,0,413.4,159c3.75-3.8,7.73-7.37,11.32-11.3,2.71-3,4.68-2.51,7.38.06,5.1,4.86,5.27,4.75.63,10.07-12.83,14.7-26.07,29-42.67,39.6-8.35,5.34-17.25,9.46-27.44,9.52-11.27.07-18.55-5.89-20.47-17.07-.73-4.23-1.9-3.86-4.45-1.46a65.05,65.05,0,0,1-21.2,13.79c-24,9.28-44.53-4.35-45.28-30.07-.09-3.14.44-6.29.65-9.44.07-1.12.63-2.51-.48-3.24s-2.12.5-3,1.09a63.7,63.7,0,0,1-17.73,7.8c-16.53,4.41-29.3-4-31.8-20.82-.16-1.12-.38-2.23-.63-3.64-2.29.69-2.85,2.58-3.75,4-11,16.87-22,33.73-32.79,50.72-2,3.15-4.05,4.74-8,4.49-5.81-.36-11.66,0-17.49-.13-1.73,0-4,1-5.1-.86s.7-3.4,1.63-4.89c9.14-14.49,18.42-28.9,27.44-43.47q8.4-13.57,16.14-27.55c2.09-3.8,5.13-8.48.95-12.35s-8.63-.54-12.3,1.75c-12.93,8-22.8,19.34-32.17,31.07-7.79,9.75-15,20-22.89,29.64-9.73,11.89-21.25,21.61-36.23,26.35-20.44,6.47-40.21-.92-49-18-1.42-2.78-1.21-7.53-4.14-8-2.76-.46-4.39,4-6.89,5.93-3.43,2.62-6.72,5.45-10.06,8.19-2.41,2-4.54,1.73-6.38-.8-1.17-1.61-2.36-3.21-3.52-4.84-1.66-2.34-1.2-4.26,1-6s4-3.52,6-5.24A62,62,0,0,0,38.12,149.3c7.8-19.22,19.23-35.74,37.75-46.31a75.94,75.94,0,0,1,27.57-9.75c9.49-1.28,10,1,12.68,9.39,1,3.16-1.73,3.57-3.6,4.31-9.67,3.84-18.68,8.82-26.32,15.92-11.11,10.33-18.76,22.46-18.37,38.35.34,13.4,10.83,21.57,23.78,17.93,17.55-4.94,26.91-18.07,32.33-34.48a63.72,63.72,0,0,0,.88-36.43c-1.6-6.29,1.27-9.87,10.22-13.08,4.32-1.55,6.9-.15,9.68,5.3,3.08,6,4.36,12.53,5.09,19.18.16,1.42-.54,3.49.92,4,1.83.69,2.71-1.51,3.77-2.63,6.73-7.14,13.14-14.61,20.74-20.89,7-5.8,14.77-10.14,23.94-11.6,12.46-2,21.26,5,22,17.65.11,1.94-.45,4,.87,5.87,2.21.22,2.5-1.86,3.44-3,7.41-9,16.15-15.78,28-17.61,10.42-1.59,19.65,3.23,23.26,12.21,3.38,8.42-.23,19.65-8.23,25.22-5.14,3.59-10.8,4.6-16.53,1.84s-8.11-7.63-7.75-13.91c.06-.93.53-2.06-.65-2.63-1-.46-1.56.34-2.08.94-5.51,6.2-9.12,13.24-8.21,21.74,1,9.12,8.37,14.35,17.42,12.7,8.29-1.52,15-6.21,21.54-11.08,11.79-8.74,21.94-19.42,33.51-28.41,9.28-7.2,19.12-13.38,30.89-15.53,11.19-2,26.4-1.09,35.14,13.67C373.78,109,373.74,111.9,376.13,112.18Z" transform="translate(350 80)"/><path class="cls-6" d="M-97.35,202.3c-24.89-2-43.11-17.73-47.51-41.19-3.29-17.49.65-33.93,12.17-48.05,8.73-10.71,19.43-18.41,33.12-21.59a16.33,16.33,0,0,1,8.21.16c3.77,1,5.85,3.41,6.26,6.77.37,3.07-2.11,4.91-4.81,6.26-9.68,4.83-17.67,11.66-22.94,21.17-5.65,10.2-6.05,20.82,1,30.34,7.43,10,18.14,13,30.32,11,17.58-2.89,31.34-12.4,44.11-24.3,18.12-16.88,33.3-36.13,47.87-56a13.57,13.57,0,0,0,2.43-4.75c-9,.69-17.49,2-25.07,6.83-2.36,1.5-4.82,2.85-7.24,4.26-2.94,1.72-5.33,1.08-7.36-1.58-2.17-2.86-1-5.33,1-7.39,4.76-4.78,11-6.94,17.1-9.41C.93,71,11.12,69.75,21.18,68.07a13.53,13.53,0,0,0,9.35-5.71C38.2,52,45.26,41.1,54.43,32.06,67.09,19.58,80.29,7.58,96.75-.54A360.27,360.27,0,0,0,29-11.17a42.34,42.34,0,0,0-11.95,0C2.52-9.86-11.89-8.22-25.24-1.66-35,3.13-43.42,9.34-49.08,18.8c-3.55,5.92-5.12,12.41-3.14,19.06,2.89,9.71,11.88,13.19,23.35,9.28C-16.38,42.89-6.07,35.55,1.5,24.61c1.76-2.53,3.3-6.2,7.12-4.37,4,1.92,3.91,5.79,2.29,9.48-9.76,22.19-24,39.68-48.47,46.66-20.51,5.84-39.18-3.53-44.9-23.21-4.32-14.82-.44-28.42,8.33-40.52,13.09-18,32-27.46,52.73-33.57a136.1,136.1,0,0,1,36.29-5.36c8.07-.38,16.15-.32,24.23,0,18.7.78,37.2,3.24,55.72,5.95,27.52,4,54.89,9.12,82.55,12.21,11.86,1.32,23.75,1.94,35.66,2.32a61.53,61.53,0,0,0,13.9,0c22.32-.51,44.42-2.74,66.19-7.89A7,7,0,0,1,300.61-11c2.8,3.78,1.08,7.73-.54,11.22-2.06,4.45-5.85,7.61-9.84,10.43-12.81,9-27.24,13.68-42.66,15.53-29.54,3.54-57.88-2.9-86.08-10.5-15.24-4.11-30.53-8-45.8-12-2.25-.59-4.59-1.64-4.83,2.34-.09,1.52-1.83,2.27-3,3.16-13.92,10.35-27.5,21.08-39.14,34A112.43,112.43,0,0,0,54,63.53c11,1.21,21.37-.81,31.77-.78,3.6,0,3.25-3,3.25-5.5,0-9.59,3.8-17.22,11.76-22.59a17.43,17.43,0,0,1,17.43-1.5,12.78,12.78,0,0,1,7.68,12.37c-.35,9.06-4.55,16.36-12.6,21-7.81,4.48-7.83,4.35-1,9.93,1.65,1.35,4.51,2.66,2.45,5.44-1.81,2.42-4.13,4-7.66,2.4A40.88,40.88,0,0,1,95.44,76,8.48,8.48,0,0,0,88,73.2q-20.43,2.11-40.88,4c-3.37.31-4.52,2.78-6,5.14-10.7,17.45-21.32,35-33.1,51.72-10.95,15.57-22.64,30.61-36.81,43.38-14.51,13.09-31,22.73-51,24.73-1.79.18-3.35,1.67-5.27.84C-89.06,201.83-93.26,203-97.35,202.3Z" transform="translate(350 80)"/><path class="cls-7" d="M39.12-26.31l-24.23,0A83,83,0,0,1,39.12-26.31Z" transform="translate(350 80)"/><path class="cls-8" d="M376.13,112.18c-1.25,2.4-2.41,3.47-3.29-.21-.3-1.26-.68-2.5-1-3.75C375.07,107.57,375.38,110.11,376.13,112.18Z" transform="translate(350 80)"/><path class="cls-9" d="M227-5.81a25.54,25.54,0,0,1-13.9,0Z" transform="translate(350 80)"/><path class="cls-10" d="M17-11.15a19.58,19.58,0,0,1,12,0Z" transform="translate(350 80)"/><path class="cls-11" d="M-97.35,202.3c4.12.14,8.32-1,12.35.67C-89.11,202.66-93.29,203.71-97.35,202.3Z" transform="translate(350 80)"/><path class="cls-12" d="M301.17,168.44c1-16.52,9.17-29.58,20.08-41.27,5.37-5.76,11.25-10.94,18.83-13.61,5.1-1.8,10.25-2,14.51,2s3.5,9,2.1,14a39.06,39.06,0,0,1-1.73,4.67c-.91,2.13-2.39,4.18.58,6,1.28.79.6,2,0,3.09-7.79,14.18-17.06,27-31.59,35.14a30.3,30.3,0,0,1-6.44,2.61C307.72,183.87,301,178.63,301.17,168.44Z" transform="translate(350 80)"/><path class="cls-5" d="M114.89,45.46c.07,4.48-7.32,12.86-11.85,13.26-2.61.23-3-2.06-2.73-3.67,1-5.1,3.08-9.69,7.38-13,1.76-1.35,3.24-.77,5,0A3.24,3.24,0,0,1,114.89,45.46Z" transform="translate(350 80)"/></svg>