<svg id="Capa_1" data-name="Capa 1" xmlns="http://www.w3.org/2000/svg" viewBox="0 0 219.17 159.17"><defs><style>.cls-1{fill:#fefefe;}.cls-2{fill:#023978;}.cls-3{fill:#033978;}.cls-4{fill:#043777;}.cls-5{fill:#043977;}.cls-6{fill:#063979;}.cls-7{fill:#063978;}.cls-8{fill:#031b6d;}.cls-9{fill:#fafbf9;}.cls-10{fill:#f8faf9;}.cls-11{fill:#f9fbf9;}.cls-12{fill:#011e66;}.cls-13{fill:#fcfdfc;}.cls-14{fill:#033877;}.cls-15{fill:#083b79;}</style></defs><title>Logo OMINT</title><path class="cls-1" d="M150.5,21c35.33,0,70.67.05,106-.08,3,0,3.59.6,3.58,3.58q-.16,76,0,152c0,3-.6,3.59-3.58,3.58q-106-.15-212,0c-3,0-3.59-.6-3.58-3.58q.16-76,0-152c0-3,.6-3.6,3.58-3.58C79.83,21.05,115.17,21,150.5,21Z" transform="translate(-40.92 -20.92)"/><path class="cls-2" d="M86.07,175.13c-.38-20.77,2.41-39.66,12.05-56.95,13.29-23.82,34.79-34.33,61.09-36.12,12.92-.87,26,.4,38.77-2.43,24.59-5.43,44.29-17.46,55.83-41.93,1.44,7.94.64,15,.17,21.92-1.11,16.72-4.7,32.84-12.86,47.66-12,21.73-30.68,32.91-55.17,34.79-9.82.75-19.59-.32-29.4-.89-27.26-1.61-48.93,9.78-66.68,29.74C88.89,172,87.89,173.11,86.07,175.13Z" transform="translate(-40.92 -20.92)"/><path class="cls-3" d="M85.23,53.81C85.3,69.07,73.94,78.46,60.78,74a15,15,0,0,1-3.14-1.47c-11-6.91-14.25-28.59-5.85-38.49a17.51,17.51,0,0,1,28.72,2.18A32.87,32.87,0,0,1,85.23,53.81Z" transform="translate(-40.92 -20.92)"/><path class="cls-4" d="M113.27,43.91c-2.55,6.88-5.11,13.76-8.11,21.83L97.1,44.11l-.82.16c0,8.68,0,17.36,0,26,0,1.36,1.12,3.64-1.77,3.73s-2-2-2.09-3.55c-.34-11.79.75-23.61-.64-35.38a3.34,3.34,0,0,1,.13-1.31c3.64-.19,7.28-.46,10.91-.37,3,.08,1.52,2.8,2.06,4.28,1,2.93,1.81,6,3,9.93,2.1-4.08,3.86-7.35,4.07-11,.15-2.7,1-3.44,3.51-3.28,3,.19,5.91.05,8.89.05-1.71,12.31-.78,24.45-.72,36.56,0,4.51-2.22,4-5.14,4.19-3.29.19-4.66-.5-4.53-4.23.31-8.61.1-17.23.1-25.84Z" transform="translate(-40.92 -20.92)"/><path class="cls-5" d="M154.09,37c-1.17-2-2-3.83,1.64-3.64h.5c6.24-.49,12.12-.66,13.91,7.51.52,2.36,2.63,4.37,4.46,7.25,0-4.56.05-8.13,0-11.71,0-1-1.39-2.35.33-2.9a7.17,7.17,0,0,1,3.95,0c1.92.54.34,1.82.33,2.81-.11,11-.17,22-.24,33,0,1.16,0,2.31,0,4.91L158.83,42.37l-1,.09V72c-3.11,2.87-3.31.6-3.32-1.9,0-9.41,0-18.82,0-28.24C154.49,40.28,154.86,38.6,154.09,37Z" transform="translate(-40.92 -20.92)"/><path class="cls-6" d="M187.3,42.28c.2-8.85.2-8.85,8.58-8.86,3.66,0,7.31,0,11,0,6.34,0,6.56.33,5.49,7.46-7.41-3.85-7.41-3.85-7.41,4.68,0,7.81-.1,15.63,0,23.44.06,3.28.15,5.41-4.49,5.34s-5.52-1.37-5.35-5.64c.35-8.63.14-17.29.05-25.93,0-1.53.95-3.71-.77-4.5s-3.39.77-4.8,1.91C188.86,40.75,188.19,41.45,187.3,42.28Z" transform="translate(-40.92 -20.92)"/><path class="cls-7" d="M144.26,33.43c-1.09,12.38-.63,24.38-.4,36.34.09,4.94-2.51,4.16-5.54,4.41-3.51.3-4.37-.84-4.4-4.34-.09-11.47,1-23-.61-34.39-.24-1.76.36-2,1.74-2Z" transform="translate(-40.92 -20.92)"/><path class="cls-8" d="M154.09,37c1.6,1.68.86,3.78.88,5.68.08,8.95,0,17.89,0,26.83,0,1.84-.28,4.12,2.83,2.5.51,2.09-.85,2-2.27,2-2.21,0-1.56-1.71-1.56-2.86C154,59.8,154.05,48.41,154.09,37Z" transform="translate(-40.92 -20.92)"/><path class="cls-9" d="M184.12,131.74c-3.74,1.42-5.83.54-7.21-3-1.9-4.95-4.3-9.71-6.5-14.55-.45-1-.58-2.49-2.28-1.9-1.28.44-2.22,1.07-2.17,2.81.13,4.66,0,9.33,0,14,0,1.65.32,3.24-2.35,3.31s-2.86-1.34-2.85-3.4c.06-9.82-.11-19.65.13-29.46.07-2.72-2.43-6.18-.14-7.78,1.92-1.35,5.46-.43,8.28-.43a66.43,66.43,0,0,1,7.47.23c5.47.61,7.39,3.94,5.51,9.12a10,10,0,0,1-3.68,5.22c-4.05,2.56-3.47,5.36-1.61,9C179.49,120.35,181.68,126.07,184.12,131.74Z" transform="translate(-40.92 -20.92)"/><path class="cls-10" d="M140.82,91.45c3.5-.85,4.12.43,4.76,3.32,2.51,11.32,5.64,22.5,8.36,33.78.26,1.07,2.53,3.31-.82,3.74-2,.25-3.8.26-4.49-2.54-.48-1.93,0-5.19-2.46-5.51a45.77,45.77,0,0,0-12.91.09c-1.87.28-1.48,3.47-2,5.31s-1.38,3.3-3.3,2.62-.34-2.23-.07-3.35c2.89-12.08,7.69-23.65,9.66-36C138.05,89.79,140.3,92.18,140.82,91.45Z" transform="translate(-40.92 -20.92)"/><path class="cls-11" d="M194.05,95.27c-2.28.22-3.56,2.18-5.42,3.24-.65-7.3-.65-7.29,6.37-7.28,3.82,0,7.63,0,11.45,0,6.6,0,6.6-.06,6.19,7.42a30.24,30.24,0,0,0-2.72-2.35c-1.86-1.23-4.08-2.13-6.08-1.11-1.66.85-.71,3-.72,4.56-.08,9.79,0,19.58-.08,29.37,0,1.15.73,2.92-1.33,3.16-1.77.2-3.83.55-3.88-2.3-.72-10.24-.21-20.5-.25-30.75C197.57,96.51,196.78,95.21,194.05,95.27Z" transform="translate(-40.92 -20.92)"/><path class="cls-12" d="M194.05,95.27c2.19-.49,4.1-1.07,4,2.56-.23,10.71-.18,21.43-.24,32.14-1.75-4.11-.62-8.41-.78-12.61-.21-5.76-.19-11.53,0-17.29C197.16,97.55,196.39,96,194.05,95.27Z" transform="translate(-40.92 -20.92)"/><path class="cls-13" d="M75.11,59.37c.13,4.95-1.81,9.91-5.2,9.91-5.44,0-7.22-4.6-8.94-8.69-2.8-6.63-4.45-13.52-3-20.78.56-2.84,1.59-5.8,4.82-6.25,3.06-.43,5.34,1.77,6.89,4.17C73.57,43.75,75,50.51,75.11,59.37Z" transform="translate(-40.92 -20.92)"/><path class="cls-14" d="M166,109.94c0-3.65-.06-6.8,0-9.94,0-2.07-.46-4.6,2.54-5.14,2.74-.5,5.9-1.32,7.85,1.24,1.72,2.25,1.19,5.06-.55,7.38C173.5,106.62,170.16,108.3,166,109.94Z" transform="translate(-40.92 -20.92)"/><path class="cls-15" d="M140.58,98.13c1.72,6.55,3.26,12.93,5.1,19.23.83,2.83-.06,3.35-2.73,3.42-9.41.23-9.44.31-7-8.7,1.19-4.44,2.49-8.85,3.75-13.27C139.71,98.69,139.92,98.62,140.58,98.13Z" transform="translate(-40.92 -20.92)"/></svg>