<svg id="Capa_1" data-name="Capa 1" xmlns="http://www.w3.org/2000/svg" viewBox="0 0 787.69 373.72"><defs><style>.cls-1{fill:#fefefe;}.cls-2{fill:#7e7e7e;}.cls-3{fill:#faf6f1;}.cls-4{fill:#807e7e;}.cls-5{fill:#fe344d;}.cls-6{fill:#e8132f;}.cls-7{fill:#7f7e7e;}.cls-8{fill:#fdfdfd;}.cls-9{fill:#fafafa;}.cls-10{fill:#d1d1d1;}.cls-11{fill:#fbfbfb;}.cls-12{fill:#f9f9f9;}.cls-13{fill:#e81430;}</style></defs><title>Logo SMG</title><path class="cls-1" d="M8,250V197c1.72-.9,3.58-.57,5.4-.56,14.81,0,29.63,0,44.45,0,3.65,0,6.59-.33,6.92-5,.23-3.18,2.78-3.66,5.47-3.89s5.42,1,7.49-1.54a6.46,6.46,0,0,0,.62-2.41c.16-16.16.11-32.32,0-48.47,0-3.09-1.43-4.56-4.55-4.58q-23.74-.09-47.47,0c-3,0-4.69,1.21-4.79,4.39-.05,1.82-.13,3.69-1.35,5.24C16.11,142.11,12,142.35,8,140V85c2.25-1.92,5-1.54,7.61-1.54q21.39-.08,42.78,0c3.29,0,5.84-.5,6.45-4.46.45-2.87,2.91-3.2,5.35-3.38s5,.68,7.1-1.34c1.35-1.73,1.12-3.78,1.13-5.75q0-21.93,0-43.86c0-5.75-.37-6.07-6.37-6.08-14.28,0-28.57,0-42.86,0-7.09,0-8,.62-8,6.41a3.78,3.78,0,0,1-1,2.25C16.11,29.12,12,29.35,8,27c0-4.33-1.69-10.36.48-12.52S16.67,14,21,14H353c0,2.57-2.1,2.69-3.76,3.15a42.32,42.32,0,0,1-15.38.89c-8.44-.8-16.89-2-25.38-1.65-15.49.64-29.72,4.6-42,14.85-19.93,16.59-20.21,46.5-.1,62.69,9.87,7.95,21.49,12.63,33.1,17.28,10.21,4.09,20.66,7.61,30.07,13.45,18.18,11.27,22.05,28.94,14.39,47.27-9.86,23.59-39.25,33.49-65.11,14-14.29-10.78-22.76-25.85-29.42-42.07-.82-2-1.45-4.08-2.32-6.07-.43-1-.67-2.61-2.16-2.28-1.69.37-1.48,2.07-1.32,3.33.38,3,.57,6,.84,8.95,1.1,12.09,2.52,24.17,3.11,36.3.26,5.41,2.75,8.31,8.1,9.63,21.54,5.32,43.2,9.19,65.06,2.63,22.05-6.6,38.5-19.73,44.74-42.89,5.88-21.83-1.5-42.16-21.19-53.72-11.3-6.62-23.4-11.24-35.53-15.88-8.26-3.15-16.31-6.52-23.78-11.46-15.58-10.3-18.31-37.86,2.93-48.32,15.55-7.66,32.56-5.58,45.58,5.93,9.29,8.22,15.68,18.49,21.14,29.44.3.6.45,1.27.78,1.84.76,1.34.93,3.79,3.13,3,1.63-.56,1.11-2.63.81-4-1.91-9-2.3-18.17-4-27.18-.7-3.77-1-7.6-1.47-11.4-.32-2.58-.78-5.35,1.15-7.67H761c.35,2.29-1.41,2.87-3,3.3-5.29,1.44-10.54,2.9-16.13,3.14-16.4.68-32.61-1.11-48.79-3.27-19.1-2.54-36.46,2.59-52.39,12.48-25.88,16-40.44,39.52-43.44,69.89-4.58,46.4,24,84.19,65.35,96,20,5.7,39.79,4.78,59.57-1.14q13.42-4,26.42-9.2a93.46,93.46,0,0,1,24.57-6.43c4.36-.48,5-1.58,2.91-5.51-3.5-6.71-4.64-13.82-4.49-21.27.11-5.83-.18-11.67.08-17.5.39-8.53,3.07-16,10.62-21,3.86-2.51,8-3.93,12.69-2.46V380c0,7,0,7-7,7a7,7,0,0,1-1-1.69,19.38,19.38,0,0,1-.56-6.43q0-55.42,0-110.85a37.74,37.74,0,0,1,.43-7c0-.24.07-.4.09-.49,2.15-9.93,1.2-11.16-8.63-11.16q-379.69,0-759.38,0C15.23,249.38,11.64,249.9,8,250Z" transform="translate(-7.37 -13.37)"/><path class="cls-1" d="M762,14c10,0,20,.1,30-.07,2.51,0,3.07.57,3.06,3.07-.1,30-.06,60-.06,90-2.13,1.84-4.72,1.37-7.18,1.37-24.32,0-48.64,0-73,0-1.91,0-4-.54-6.48,1.19a110.6,110.6,0,0,1,13.48.7c12.81,1.86,20.57,9.46,21.33,22.3.62,10.63.92,21.36-1.09,31.89-2.79,14.6-11.9,24.4-25.64,28.76-23.39,7.44-44.84,2.86-63.21-13.66-14.11-12.69-21.55-29.07-23.94-47.67-3.49-27.23-3.13-54.24,7.56-80.11C645,32.11,661.39,19.17,685,19.5c23.91.34,44,9.12,61.27,25.23,8.37,7.8,15.1,16.84,21.25,26.38.69,1.07,1,2.53,2.69,2.75,1.35-1.45.25-2.83-.23-4.08-6.34-16.57-8.45-33.85-8.91-51.43A11.89,11.89,0,0,1,762,14Z" transform="translate(-7.37 -13.37)"/><path class="cls-2" d="M762,14c1.25,10.22.72,20.57,2.75,30.75a201.63,201.63,0,0,0,6.79,25.53c.63,1.83,3.41,4.1,0,5.89s-3.72-1.75-4.71-3.43C754.2,51.49,737.53,34.9,714,26a75.88,75.88,0,0,0-37.8-4.59c-19.11,2.67-32,14-38.35,31.76-12.09,33.63-13.78,67.89-.62,101.51a63.64,63.64,0,0,0,70.93,39.58c21-3.79,32.93-17.64,33.48-39,.19-7.33.17-14.66,0-22-.26-12.62-8.12-20.77-20.71-21.59-3.65-.24-7.32-.17-11-.32-1.61-.07-4,1.06-4-2.12s2.37-2.22,4-2.22q25.74-.07,51.48,0L795,107v4c-4,1.06-8.25.72-11.85,3.34-5.73,4.16-9.52,9.54-9.72,16.63-.3,10-.13,20,.15,30a22.56,22.56,0,0,0,4.33,12.57c2.8,3.95,1.77,6.16-2.84,6.42-13.24.77-25.07,6.32-37.25,10.72-15.71,5.67-31.67,10.41-48.6,10.2-42.16-.53-77.9-26.08-89.68-64A93.83,93.83,0,0,1,670.07,16.51c12.84-2.7,25.5-.48,38.22,1,16.23,1.9,32.49,3.57,48.55-1.26,1.5-.45,3.42-.31,4.16-2.25Z" transform="translate(-7.37 -13.37)"/><path class="cls-2" d="M355,14c.44,15.18,3.37,30.05,5.36,45.05.34,2.55,3.07,6.27-1.32,7.66s-4-3.17-5.06-5.36C348.47,50,342.07,39.42,332.65,30.86c-12.55-11.41-31.87-13.43-45.95-4.8a26.65,26.65,0,0,0-2.11,44.31c8.77,6.69,19,10.16,29.14,14a232.11,232.11,0,0,1,30,13.47c28.73,15.68,29.89,47.56,17.93,68.7-12.76,22.56-33.47,32.7-58.57,34.18a141.65,141.65,0,0,1-51.71-6.91c-3-1-4.48-2.29-4.75-5.82-1.26-16.59-3-33.14-4.42-49.72-.17-1.95-1.23-4.48,2.16-5.13s3.11,2.14,3.78,4c6.6,18.25,15.44,35,31,47.43,18,14.33,41.81,13.7,56.18-1.69s17.46-43.88-7.78-57.91c-8.78-4.88-18.12-8.38-27.41-12-11-4.3-21.92-8.88-31.72-15.67-23.28-16.14-24.74-48.58-3.07-66.93,15.84-13.41,34.48-16.19,54.38-14.88,9.42.62,18.85,2.65,28.33.67,1.76-.37,3.68-.45,4.89-2.12Z" transform="translate(-7.37 -13.37)"/><path class="cls-3" d="M8,250c2.25-2.25,5.09-2,7.94-2q228.68,0,457.36,0H780.21c8.92,0,8.93,0,8.81,8.65,0,1.48.33,3-.63,4.37-1.72-1-1.93-2.73-1.92-4.35,0-4.05-2.26-5.14-5.77-5-1.66,0-3.33,0-5,0q-376.94,0-753.87,0c-3,0-6-.52-8.85.83-2.13,1.8-1.55,4.27-1.55,6.53q0,60.17,0,120.32c0,2.61.57,5.38-1.39,7.66-.63-.41-2.12,1-2-1,.06-1.16,0-2.33,0-3.5Z" transform="translate(-7.37 -13.37)"/><path class="cls-4" d="M79.58,188.16c-2.67,2-5.75.88-8.56.8-3.78-.1-5.71.82-5,4.93.54,3.05-.81,4-3.86,3.93-16.77-.13-33.55-.07-50.32-.06A6.94,6.94,0,0,1,8,197V140l11.92-.22c2,2,1.63,4.62,1.65,7.06.07,11.16,0,22.32.05,33.47,0,5.54.51,6,6,6.06,14.82.08,29.64,0,44.46.06C74.65,186.44,77.46,185.92,79.58,188.16Z" transform="translate(-7.37 -13.37)"/><path class="cls-4" d="M8,27l12,.23c2,2,1.57,4.64,1.59,7.08.07,11.14,0,22.28,0,33.41,0,6.39.29,6.65,6.82,6.67,14.3,0,28.6,0,42.89,0,2.58,0,5.4-.56,7.47,1.77-2.71,1.15-5.58.56-8.34.46-3.46-.12-4.89,1-4.43,4.51.29,2.29.15,4.09-3.2,4C44.55,85,26.27,85.05,8,85Z" transform="translate(-7.37 -13.37)"/><path class="cls-5" d="M10,387q0-65.7,0-131.41c0-1.86-.88-4,.82-5.62,2.19,2.33,1.76,5.28,1.76,8.07q0,58.48,0,117c0,9.33,0,9.34,9.33,9.34q377.7,0,755.38,0c3.58,0,7.39-.93,10.61,1.65a.84.84,0,0,1,0,.95Z" transform="translate(-7.37 -13.37)"/><path class="cls-6" d="M788,386.05q-43.23,0-86.46-.05-342.34,0-684.68.12c-5,0-5.94-1.6-5.93-6.22.13-43.31,0-86.62,0-129.93,1.81-.14,3.62-.39,5.43-.39q382.29,0,764.56,0a21.44,21.44,0,0,0,3,0c3.6-.52,4.69,1.07,4.35,4.5a54.24,54.24,0,0,0,.19,7q-.1,21.66-.21,43.33Q788,345.19,788,386.05Z" transform="translate(-7.37 -13.37)"/><path class="cls-2" d="M532.2,39c-20.4,44-40.81,88.07-61.73,133.24C451.91,130.6,433.85,90.09,415.8,49.57l-.9.12C414,58.85,413,68,412.15,77.18c-2.64,27.33-5.31,54.67-7.85,82-.78,8.32.55,16.31,5.14,23.48,4.37,6.81,10.54,10.45,18.79,10.24,2.66-.06,5.33,0,8,0,1.82,0,2.76.57,2.77,2.56,0,2.17-1.27,2.37-2.92,2.36-3.5,0-7,0-10.5,0-19.16,0-38.33,0-57.49-.06-1.74,0-4.3,1.13-4.76-2-.55-3.76,2.58-2.74,4.36-3.06,15.93-2.89,30.17-18.27,32-36,3.73-35.42,6.25-71,10.67-106.31,2-15.72-13.25-27.43-25.18-27.3-2.16,0-4.33,0-6.5,0-1.88,0-3.78.19-3.62-2.69.15-2.64,2-2.19,3.62-2.19,14,0,28.06.82,42-.27,11.39-.89,17,2.54,21.4,13.62,12.79,32,27.21,63.33,41,94.92.33.74.73,1.45,1.53,3,3-6.42,5.83-12.18,8.53-18q18-38.73,36-77.46c1.86-4,3.6-7.83,2.64-12.39-.54-2.56.65-3.52,3.29-3.51q30,.11,60,0c1.88,0,3.3.22,3.16,2.65s-1.9,2.32-3.57,2.26c-7.95-.29-15.62.34-22.25,5.56-5.83,4.6-8.53,10.39-7.88,17.83q4.86,55.71,9.64,111.44c.33,3.81.53,7.65,1,11.44,1.7,12.42,14.5,23.51,27.13,23.62,1.33,0,2.67,0,4,.09s1.61.95,1.57,2.07.13,2.48-1.52,2.65a31.22,31.22,0,0,1-3.49.09H520.41c-.66,0-1.33,0-2,0-1.68.09-2.93-.26-3-2.32-.14-2.5,1.44-2.59,3.24-2.57a26.17,26.17,0,0,0,18.68-7c5.62-5.11,7.66-11.55,7-18.92Q541,127.94,537.5,88.9,535.32,64,533.11,39.19Z" transform="translate(-7.37 -13.37)"/><path class="cls-6" d="M78.79,76.21c-17.62,0-35.24-.25-52.85.05-5,.09-6-1.45-5.94-6.14.27-14.29,0-28.6,0-42.89C20.67,17,20.67,17,31.2,17c14.84,0,29.67.05,44.5,0,2.77,0,4.2.37,4.17,3.74-.16,17.49-.07,35-.09,52.49C79.78,74.25,80.24,75.56,78.79,76.21Z" transform="translate(-7.37 -13.37)"/><path class="cls-6" d="M79.58,188.16c-18.25,0-36.5,0-54.75.16-3.73.05-4.84-1-4.8-4.74.14-14.6,0-29.2-.11-43.8a2.66,2.66,0,0,0,.1-.49c.7-9.93.7-9.93,11.06-9.94,14.63,0,29.27.09,43.9-.08,3.46,0,5,.49,4.9,4.53C79.58,151.92,79.64,170,79.58,188.16Z" transform="translate(-7.37 -13.37)"/><path class="cls-6" d="M138.81,139.75c.8-10.39.8-10.39,11.67-10.4q21.75,0,43.49,0c2.07,0,4.48-.65,4.45,2.93-.16,18.63-.22,37.27-.31,55.9A491.7,491.7,0,0,1,144,189.55c-5.17-.11-6.44-1.42-6.52-6.7-.19-12.63-.11-25.26,0-37.89A9,9,0,0,1,138.81,139.75Z" transform="translate(-7.37 -13.37)"/><path class="cls-6" d="M138.89,27.09C139.41,17,139.41,17,149.68,17c14.81,0,29.62,0,44.43,0,2.56,0,4.42,0,4.39,3.54-.13,18,0,35.94-.06,53.91a5.5,5.5,0,0,1-.66,1.76c-18,1.71-36,1.7-54.09,1.44-4,0-6.22-1.83-6.25-6-.11-13.44-.15-26.89,0-40.34A5.84,5.84,0,0,1,138.89,27.09Z" transform="translate(-7.37 -13.37)"/><path class="cls-7" d="M138.81,139.75c.08,14.44.31,28.89.13,43.33-.05,4.22,1.28,5.29,5.37,5.24,17.93-.23,35.87-.14,53.8-.16-2.51,1.91-5.42.88-8.1.82-3.58-.08-5.89.43-5.11,4.78.61,3.4-1.12,4.08-4.25,4.06q-24.71-.21-49.42,0c-3.14,0-4.36-.67-4.33-4.1.17-16.64.15-33.28,0-49.92,0-3,.74-4.31,3.89-4.06C133.47,139.94,136.15,139.76,138.81,139.75Z" transform="translate(-7.37 -13.37)"/><path class="cls-7" d="M138.89,27.09q.09,21.23.15,42.45c0,6.59,0,6.59,6.8,6.59h51.94c-2.67,1.44-5.53.59-8.27.52-3.28-.08-5.17.68-4.6,4.37.5,3.3-.9,4.25-4.19,4.22q-24.74-.24-49.47,0c-3.7,0-4.36-1.33-4.33-4.64.15-16.16.2-32.32,0-48.47-.06-4,1-5.46,5-5A52.51,52.51,0,0,0,138.89,27.09Z" transform="translate(-7.37 -13.37)"/><path class="cls-8" d="M640.07,36.07c-27.43,33.51-32.76,70.83-18.08,111,7,19.07,21.3,32.25,38.65,42.25,1.57.91,3.15,1.8,5.19,3-23.94-3.65-53-25-62.59-58.54-10.68-37.49,3.13-76.81,34.81-98.7C639.3,34.25,640.09,34.36,640.07,36.07Z" transform="translate(-7.37 -13.37)"/><path class="cls-8" d="M737.77,185c8.08-11,8.9-23.23,8.41-35.88-.19-5,0-10,0-15,0-1.33-.43-3.06.23-3.93,5.78-7.66-1.26-10.41-5.3-14.3-1.28-1.23-2.66-2.36-4.72-4.18h35.35c-.84,2.5-3.21,3.25-5,4.49-4,2.79-6.11,6.35-6,11.33.13,11.17.07,22.33.11,33.5,0,4.41.82,8.64,3.44,12.3,1.24,1.73.91,2.58-1,3.22C754.7,179.3,746.24,182.14,737.77,185Z" transform="translate(-7.37 -13.37)"/><path class="cls-9" d="M755.51,48c-8.35-9.55-18.52-16.58-29.72-22.64,7.44.17,14.77.72,22-1.06,1.44-.36,2.11.48,2.28,1.89C750.94,33.63,753.12,40.75,755.51,48Z" transform="translate(-7.37 -13.37)"/><path class="cls-10" d="M640.07,36.07c-.4-.89-1.19-1-2-1a17.43,17.43,0,0,1,6.92-4.1A15,15,0,0,1,640.07,36.07Z" transform="translate(-7.37 -13.37)"/><path class="cls-8" d="M343.08,178.86a45.71,45.71,0,0,0,7-30.91A31,31,0,0,0,337,125.31c-8.89-6.4-18.83-10.59-29-14.41-12.33-4.63-24.48-9.64-35.51-17-21.37-14.2-23.91-41.6-5.6-59.63a34.57,34.57,0,0,1,11.26-7.68c-4.19,4.79-7.44,8.64-9.78,13.15-8.31,16-4,31.65,11.28,41.54,11.18,7.22,23.84,11,36,15.84a149.89,149.89,0,0,1,24.13,11.93c18.61,11.64,23.07,28.85,17.56,48.93a47.4,47.4,0,0,1-10.12,18.73C346.29,177.85,345.54,179.2,343.08,178.86Z" transform="translate(-7.37 -13.37)"/><path class="cls-11" d="M280.87,193.56c-9.17-.46-17.87-2.56-26.52-4.94-1.77-.48-2.93-1.32-3.1-3.33-.49-5.78-1.06-11.55-1.16-17.66C258.76,178.26,268.67,187.23,280.87,193.56Z" transform="translate(-7.37 -13.37)"/><path class="cls-12" d="M348,40C342,32.82,335.32,26.81,328.4,20.55c5,.53,9.93.37,14.86.48.95,0,1.38.82,1.54,1.68Q346.39,31.35,348,40Z" transform="translate(-7.37 -13.37)"/><path class="cls-8" d="M490.65,270.34c11,.1,22.79-2,34.41,1.83,14.49,4.82,19.79,18.83,15.81,30.89-2.28,6.94-7.73,10.23-14.31,11.85-4.27,1-4.37,2.72-2.13,6.06,6.12,9.12,11.91,18.46,18,27.6,2.41,3.6,5.07,7.22,10.46,5.75a2.11,2.11,0,0,1,2.62,1.74c.52,1.75-.58,3-1.76,3.82-6.43,4.52-13.53,5.23-20.93,3.09-4.34-1.26-7.38-4.39-10-7.92-5.2-7-8.75-14.9-12.9-22.48a99,99,0,0,0-6.17-9.68c-1.63-2.29-3.92-3.75-6.9-2.69-2.78,1-2.71,3.53-2.73,5.86,0,6.5-.05,13,0,19.5.1,7.36,2.19,10,9.35,12.13,2.2.65,5.11.73,4.37,4.11-.65,3-3.34,2.34-5.39,2.08a126,126,0,0,0-33.38,0c-1.79.25-4.31,1.07-5.19-1.54s1.23-3.82,3.27-4.77c4.83-2.24,6.59-6.29,6.6-11.33,0-19.33.14-38.66,0-58-.06-8-2-10.25-9.79-12.78-1.6-.52-3.47-.82-3.24-3.07.25-2.5,2.24-2.6,4.12-2.52C473.19,270.26,481.49,271.3,490.65,270.34Z" transform="translate(-7.37 -13.37)"/><path class="cls-8" d="M336.76,362.83c-5.18-.1-11.67-.41-18.11.86-1.75.34-3.94.66-4.5-1.81-.47-2,1.23-3.09,2.77-3.61,6.09-2,6.94-7,5-12.52-4.54-12.79-4.46-12.83-17.89-12.86-5.16,0-10.33.1-15.49,0-4.16-.07-7,1.56-8.39,5.6-.93,2.67-2.32,5.2-3,7.91-1.59,6.23.77,9.85,7,11.58,2.38.66,6.49.16,6,3.73-.56,4.14-4.63,2.09-7,1.92a133.58,133.58,0,0,0-21.45-.09c-1.61.15-3.6.49-4.33-1.51-.79-2.18.86-3.33,2.53-4.25,3.81-2.11,6.19-5.4,8-9.26q17.71-37.45,35.54-74.86c.95-2,1.18-5.17,3.88-5.31,2.91-.16,3,3.15,4,5.1,11.13,24,22.13,48.05,33.21,72.07,2.42,5.25,4.26,11,10.82,12.88a2.34,2.34,0,0,1,1.53,3.24c-.67,1.59-2.14,2-3.72,2C348,363.4,343.05,363.14,336.76,362.83Z" transform="translate(-7.37 -13.37)"/><path class="cls-8" d="M699,269.8c12.66,0,25.31.14,38-.08,3.74-.07,5.48,1.06,5.75,4.83.36,5,1,9.93,1.48,14.9.11,1.3.25,2.84-1.56,3.19a3.09,3.09,0,0,1-3.7-1.84,4.51,4.51,0,0,1-.22-.44c-1.53-4.24-2.84-8.69-7.41-10.77-5.68-2.59-11.76-1.8-17.72-1.7-4.15.08-4.57,3.22-4.58,6.38q-.08,16.25,0,32.49c0,8.66-.07,17.32.1,26,.2,10.57,2.3,13,12.69,15.09,1.32.27,2.6.36,3.42,1.68a3,3,0,0,1,.05,3.28c-.9,1.77-2.52,1.44-4,1.28a189.54,189.54,0,0,0-44.85,0c-1.85.23-4.21.78-4.54-2.33-.3-2.92,1.46-3.48,3.88-4,10.76-2.31,12.47-4.07,12.63-15,.28-19.32.11-38.65.24-58,0-4.48-2.12-6.41-6.31-6.48-2.66,0-5.34,0-8,.2-10,.77-12.15,2.51-15.11,12.08-.72,2.34-1.4,5-4.46,4.11s-1.47-3.58-1.29-5.54c.38-4.14,1-8.26,1.44-12.4.76-7.11.73-7,8.11-6.95,12,.09,24,0,36,0Z" transform="translate(-7.37 -13.37)"/><path class="cls-8" d="M567,23.83l-3.37,1.9c-8.17,4.56-12,10.83-11,20.82,3.75,39.1,7,78.25,10.11,117.41.88,11.24,5.22,20.13,14.25,26.77.52.39,1.2.57,1.15,1.86H537.8c0-2,2-2.76,3.18-3.81,6.49-5.79,9-12.93,8.19-21.5-1.58-17.08-3-34.17-4.53-51.24Q541.87,85.46,539,54.88c-.87-9.28-1.65-18.57-2.68-27.83-.33-3,.24-4.2,3.54-4.13,9,.2,18,.07,27,.07Z" transform="translate(-7.37 -13.37)"/><path class="cls-8" d="M470.41,161.19c-9.75-21.81-19.05-42.61-28.32-63.41q-11.18-25.08-22.3-50.19A56,56,0,0,0,399.57,23c8.74,0,16,.05,23.21,0,2.4,0,3,1.63,3.75,3.33L467.76,120c2.88,6.54,5.64,13.15,8.72,19.61,1.24,2.62,1.55,4.89.27,7.53C474.66,151.47,472.78,155.89,470.41,161.19Z" transform="translate(-7.37 -13.37)"/><path class="cls-12" d="M381.46,192.91c6.79-5.75,12.18-11,16.93-18.11.84,6.12,1.61,11.36,2.25,16.6.17,1.39-1,1.5-2.05,1.51Z" transform="translate(-7.37 -13.37)"/><path class="cls-6" d="M494.24,296.6c0-4.49-.27-9,.06-13.48.41-5.48,2.59-7.18,8.11-7.31,7.85-.18,13.8,3.23,16.68,10.38,3.11,7.7,3.3,15.73-2.09,22.77-3.23,4.22-15.79,6.83-20.62,4.73-2-.88-2.27-2.67-2.26-4.59,0-4.17,0-8.33,0-12.5Z" transform="translate(-7.37 -13.37)"/><path class="cls-13" d="M299.74,325.11c-2.82,0-5.63-.05-8.45,0-3.27.08-4.32-1.48-3-4.33,3.33-7.39,6.83-14.71,10.27-22.06,1.22-2.61,2.73-1.58,3.5.08q5.22,11.25,10.06,22.67c1.07,2.54-.3,3.67-2.89,3.63C306,325.08,302.89,325.11,299.74,325.11Z" transform="translate(-7.37 -13.37)"/></svg>